<svg xmlns="http://www.w3.org/2000/svg" viewBox="0 0 206.49 249.71"><defs><style>.cls-1{fill:#a62025;}</style></defs><g id="Layer_2" data-name="Layer 2"><g id="Layer_1-2" data-name="Layer 1"><path class="cls-1" d="M204.68,88.7q.9,80.5,1.81,161H22c39.12-65,47.57-127.28,32.57-157.39-15.12-30.33-38-41.61-38-41.61A71.38,71.38,0,0,0,0,45q21.87-21,43.73-42.09s0,.07-.06.11A44.87,44.87,0,0,1,61.76.06c3.55.18,13.66,1.16,43.42,23.51,15.75,11.84,23.63,17.75,27.14,21.71,4.57,5.16,9.21,11.55,18.09,14.47,2.67.89,4.69,1.11,12.66,1.81s15.3,1.31,21.71,1.81Q194.73,76,204.68,88.7Z"/></g></g></svg>