<svg xmlns="http://www.w3.org/2000/svg" viewBox="0 0 53.01 46.9"><defs><style>.cls-1{fill:#faecbf;}.cls-2{fill:#f5d775;}</style></defs><g id="Layer_2" data-name="Layer 2"><g id="Layer_1-2" data-name="Layer 1"><path class="cls-1" d="M14.62,43.89a18.45,18.45,0,0,1,1.93.8c3,1.35,3.32,1.8,4.49,2.09s1.38-.1,4.34-.32c2.61-.19,2.76.13,6.43,0S36.42,46,37,45.34s.54-1.34,1.44-2.09a4.78,4.78,0,0,1,2.25-1c2.45-.51,3.12.61,5,0,1-.33.83-.64,2.41-1.29,1.25-.51,1.64-.44,2.41-.8A5.91,5.91,0,0,0,53,37.63a17.85,17.85,0,0,0-5-1,12.82,12.82,0,0,1-2.57-.16c-1.51-.3-1.73-.73-3.53-1.28a31.39,31.39,0,0,0-3.38-.64c-1.14-.2-2.08-.34-2.72-.43a17.93,17.93,0,0,1-1.94-5.52,10.55,10.55,0,0,0-.64-2.89c-.65-1.58-1.29-1.74-1.6-3-.36-1.49.37-1.7,0-3.05s-1.25-1.41-1.93-3.22a8.29,8.29,0,0,1-.48-2.24,25.78,25.78,0,0,1,0-3.22,28.8,28.8,0,0,0-.16-3.21c-.22-1.83-.42-1.63-.33-2.09.45-2.27,4.73-4.17,5.47-4.5.21-.09.82-.35.8-.64s-.5-.42-.8-.48c-.94-.19-1.66.35-2.9,1a20.3,20.3,0,0,1-2.41,1c-2.08.76-2.38.58-4,1.28A8.13,8.13,0,0,0,22.49,4.7,7.73,7.73,0,0,0,21.36,6c-.7,1-.85,1.85-1.44,4.18-.26,1-.54,2-.8,3.05A24.82,24.82,0,0,1,18,17.07c-.71,1.57-1.11,1.54-1.28,2.57-.09.54,0,.74.32,3.05.21,1.47.32,2.22.32,2.57,0,1.42-.4,1.62-.8,3.53-.53,2.52.19,3.26-.49,5.3A8,8,0,0,1,15,36.22c-1.87.24-3.42.53-4.55.76-2.93.62-4.29,1.05-5,1.61-1.1.9-1.16,1.6-2.57,2.41A16.47,16.47,0,0,0,1,42.29c-.79.59-1,.86-1,1.12,0,.55,1,.88,1.29,1,1.69.57,2.73-.21,5.14-.32,1.34-.06,1,.19,2.57.16C11.77,44.17,12.69,43.43,14.62,43.89Z"/><path class="cls-2" d="M.12,43.66a21.54,21.54,0,0,1,2.32-.49,12.73,12.73,0,0,0,2.8-.49c1-.4,1-.73,1.83-1s1.29.06,2.68.12c1.11,0,.89-.18,3.78-.49a8.9,8.9,0,0,1,2.68,0,10.61,10.61,0,0,1,1.34.37c1.75.46,2.83-.31,5.48-.74A19.25,19.25,0,0,1,26,40.73c3.33-.07,3.88.73,6.33.61,2.27-.11,1.9-.79,5.12-1.22,1-.13,2.42-.17,5.24-.24a26.19,26.19,0,0,0,4.27-.25,23.55,23.55,0,0,0,3.29-.85,27,27,0,0,0,2.8-1.1,6.86,6.86,0,0,0-1.34-.48s-.31-.08-.61-.13a6.13,6.13,0,0,0-2.56.37,15.63,15.63,0,0,1-5.61.49c-2.19,0-3.31,0-4.38-.73s-1.94-1.94-2.07-1.83.49.77.36,1.7a1.42,1.42,0,0,1-.36.86c-.52.48-1.39.23-2.2.12s-.6.09-3.53.24c-1.61.09-1.76,0-4.88.13a10.77,10.77,0,0,0-2.55.24,20.28,20.28,0,0,1-2.32.73,10.94,10.94,0,0,1-2.07.12,9.26,9.26,0,0,1-1.46-.12,13.59,13.59,0,0,1-1.59-.49c-.72-.21-.84-.22-1-.36-.38-.42-.19-1.19,0-1.71a4.38,4.38,0,0,1-1.22,1.59,4.87,4.87,0,0,1-1.83.85c-1.47.33-2-.29-2.92.24-.48.26-.6.53-1.1.61S7,39.93,6.46,40s-.64.36-1.34.85a5.12,5.12,0,0,1-2.07,1c-.85.15-1.2-.12-1.83.24a2.42,2.42,0,0,0-.73.61A2,2,0,0,0,.12,43.66Z"/><path class="cls-2" d="M18.52,36.22a5.92,5.92,0,0,0,1.59,0c.83-.1,1.2-.33,2.07-.49A8.87,8.87,0,0,1,24,35.61a1.44,1.44,0,0,0-.86-.85c-.5-.14-.84.21-1.82.49a7.65,7.65,0,0,1-1.47.24,22.11,22.11,0,0,0-2.43.12C17.41,35.69,17.58,35.85,18.52,36.22Z"/><path class="cls-2" d="M19.86,45.12a11.92,11.92,0,0,0,1.95.24c2,.07,2.67-.43,4.39-.61,2.15-.23,2,.46,5.12.37,2.83-.09,3.47-.68,3.65-.86a6.05,6.05,0,0,1,1.47-1.34,4.53,4.53,0,0,1,1.21-.48A2.08,2.08,0,0,0,36.19,42c-.83.1-1.08.84-2.19,1.46a5.68,5.68,0,0,1-2.07.61,12.58,12.58,0,0,1-3.29-.12,19.47,19.47,0,0,0-3.41-.24,14.13,14.13,0,0,0-2.81.6A26.79,26.79,0,0,0,19.86,45.12Z"/><path class="cls-2" d="M16.33,29.76a2.89,2.89,0,0,1,1.46-.12,3,3,0,0,1,1.1.49c1.59,1,3.82.33,4.14.24,1.12-.31,1-.66,2.2-1.09a9.8,9.8,0,0,1,3.53-.37,11.19,11.19,0,0,0,5-1.46,3.33,3.33,0,0,0-1.22-.37,6.2,6.2,0,0,0-1.95.37c-1.27.17-1.67-1.07-3.29-1.71a6.74,6.74,0,0,0-4.88.37c-1.23.52-1.3,1-3.29,2.19A22.29,22.29,0,0,1,16.33,29.76Z"/><path class="cls-2" d="M17.43,20.38a2.24,2.24,0,0,0,.36.85c.46.57,1.17.42,2.2.61,1.84.36,2.64,1.45,3,1.1.25-.22.13-.79,0-1.1a1.8,1.8,0,0,0-.61-.73c-1.06-.9-1-1.31-1.7-1.83-1.17-.86-3-1-3.42-.36C17.09,19.23,17.25,19.78,17.43,20.38Z"/><path class="cls-2" d="M24.74,21.72a7,7,0,0,0,1.22-1c.47-.49.52-.68,1.09-1.34s1.06-1.21,1.59-1.34a1.58,1.58,0,0,1,1.58.36,1.81,1.81,0,0,1,.25.73,2.72,2.72,0,0,1,.12,1.34c-.21.58-1,.77-1.83,1-1.3.32-1.54,0-2.32.36-1,.44-1.29,1.23-1.58,1.1S24.61,22.62,24.74,21.72Z"/><path class="cls-2" d="M18.89,17c.1.28.69.14,1.46.36a4.38,4.38,0,0,1,1.83,1.22c1.23,1.17,1.31,2.1,1.83,2.07s.37-.54,1.22-1.58a5.69,5.69,0,0,1,2.19-1.95c.43-.18.84-.26,1-.61a.74.74,0,0,0-.24-.85c-.44-.26-1.23.36-1.71.73-1.42,1.11-1.58,2-2.31,2.07-.35,0-.45-.19-1.34-.85-1.25-.92-2.46-1.81-3.29-1.46C19.1,16.28,18.8,16.73,18.89,17Z"/><path class="cls-2" d="M25.71,23.07c0-.13.57-.15.75-.15a3,3,0,0,1,.3,0c.57,0,.68.15,1,.15.5,0,.66-.3.85-.18a.68.68,0,0,1,0,.92c-.16.11-.31,0-.9-.14a9.39,9.39,0,0,1-1.2-.18C26.14,23.39,25.69,23.19,25.71,23.07Z"/><path class="cls-2" d="M22.42,23.55c0,.11-.24.22-.61.36a7,7,0,0,1-.73.25c-.65.23-.68.38-1,.36s-.68-.17-.73-.48a.59.59,0,0,1,.36-.61c.05,0,.13-.05.49,0s.52.13.73.12.37-.21.73-.25S22.41,23.41,22.42,23.55Z"/><path class="cls-2" d="M24.62,30.49c-.06-.26.71-.72,1.46-.85a6.08,6.08,0,0,1,1,0c1.21,0,1.87-.31,1.95-.12s-.16.36-.36.49c-.36.21-.63.06-1.1.12-.65.08-.67.43-1.34.61S24.67,30.75,24.62,30.49Z"/><path class="cls-2" d="M24.37,13.19c.91-.25.89.05,2.07-.24a6.82,6.82,0,0,0,1.83-.73,6.17,6.17,0,0,0,1-.74V10.39A12.37,12.37,0,0,0,28,11a9.43,9.43,0,0,1-1.46.73c-.83.3-.93,0-1.95.24a13.74,13.74,0,0,0-2.44,1c.27-.11-.71.19-.73.48s.3.4.61.49C22.79,14.13,23.18,13.52,24.37,13.19Z"/><path class="cls-2" d="M20.35,11.12c-.23.17-.44.47-.36.61s.5,0,1.34-.12A9.76,9.76,0,0,0,24,11a.68.68,0,0,0,.36-.37.52.52,0,0,0-.24-.61c-.14,0-.24.11-.61.37a5.4,5.4,0,0,1-.61.36c-.29.14-.42.09-1.22.13C20.72,10.92,20.51,11,20.35,11.12Z"/><path class="cls-2" d="M29.12,8.19a4.67,4.67,0,0,0-.24-1.82,1.58,1.58,0,0,1-.12-.61,1.76,1.76,0,0,1,.36-1,3.85,3.85,0,0,1-2.07,1.59,1.9,1.9,0,0,0-1,.48c-.28.28-.52.74-.37,1s.56.15,1,.12A7.76,7.76,0,0,1,29.12,8.19Z"/></g></g></svg>