<svg xmlns="http://www.w3.org/2000/svg" viewBox="0 0 201.68 209.06"><defs><style>.cls-1{fill:#b65e26;}.cls-2{fill:#bd7026;}.cls-3{fill:#3e130e;}.cls-4{fill:#e9cc8b;}.cls-5{fill:#763d13;}.cls-6{fill:#bdac5c;}.cls-7{fill:#ac5f1e;}</style></defs><g id="Layer_2" data-name="Layer 2"><g id="Layer_1-2" data-name="Layer 1"><path class="cls-1" d="M136.84,178.89a34,34,0,0,0,3.93,7.43c9.79,13.94,27.31,16.15,32.29,16.61l-76.83-.75a146,146,0,0,1-16.41-6.71c-12-5.77-17.7-10.66-23.13-8.21-1.62.74-1.07,1.14-6,5.23-3.21,2.68-6.75,5.64-10.44,7.46-2.68,1.32-8.08,3.33-16.41,2.23H0c2.7-4.82,6.63-12,11.19-20.88s7-13.59,8.2-17.16c6.42-18.5-1.2-28,3.33-31.6,10.15-8.08,46.76,40.36,105.81,45.91C132,178.78,134.93,178.87,136.84,178.89Z"/><path class="cls-2" d="M101.86,121.61a104.23,104.23,0,0,0,22.74,34.54A42.45,42.45,0,0,0,138.15,150c3.68-2.53,5.81-4.89,10.06-9.62,5.62-6.25,9.58-10.65,13.11-17.49,2.68-5.17,2.72-7.11,5.69-10s4.61-2.73,8.74-6.56a56.58,56.58,0,0,0,6.12-7c4.21-5.32,4.68-7,7-7.87,1.51-.58,4-.91,7.87.88a5.87,5.87,0,0,1,4.37,3.06,5.61,5.61,0,0,1-.44,5.68,7.55,7.55,0,0,1,0,3.5c-.38,1.58-1.18,2.41-2.18,3.93-1.78,2.71-1.61,3.66-2.62,5.25s-3.16,3.64-7.87,4.81a4.7,4.7,0,0,1,3.49,2.19c1.16,2.32-1,4.91-1.31,5.24-2.79,3.3-8,2.26-8.31,2.19-8.65,11.78-17.45,24.46-26.23,38-9.54,14.75-18.11,29.09-25.8,42.85q-.87-4.6-1.75-9.19a11.22,11.22,0,0,0-5.68,8.75,11.3,11.3,0,0,1-1.75-5.25,11.16,11.16,0,0,1,.44-3.93,19.1,19.1,0,0,1-6.56,2.18,18.62,18.62,0,0,1-5.25,0,15.21,15.21,0,0,0,4.38-3.06,15.48,15.48,0,0,0,3.06-4.37,19.54,19.54,0,0,0-7,3.5,19.32,19.32,0,0,0-4.37,4.81l2.62-6.56a17.84,17.84,0,0,1-13.11-1.31,9.3,9.3,0,0,0,10-4.81A7.69,7.69,0,0,1,101,192a8.15,8.15,0,0,1-6.56-1.75,21.84,21.84,0,0,0,5.68-.87c1.61-.47,2.43-.72,2.63-1.31.48-1.43-2.81-3.84-5.69-5.69-6.56-4.2-11.42-5.73-15.3-7.43-10-4.41-16.46-11.31-21-16.18A77.41,77.41,0,0,1,52,147.41,27.16,27.16,0,0,1,56,155.28c.42,1.38.77,3,.88,3.49.45,2.13.72,3.93.87,5.25-1.22-1.85-2.52-3.75-3.93-5.68-2.2-3-4.41-5.78-6.56-8.31-.21,2.05-.37,4.24-.44,6.56-.07,2.15-.06,4.19,0,6.12a28,28,0,0,1-5.25-15.3,15.64,15.64,0,0,0-.87,10.49A21.35,21.35,0,0,1,35.4,150a21,21,0,0,1-1.31-6.12,7.3,7.3,0,0,0-2.19,7.43,7.39,7.39,0,0,1-3.49-2.18,7.48,7.48,0,0,1-1.75-3.5,32.29,32.29,0,0,0-1.31,19.24,45.52,45.52,0,0,1-9.19-11.81c-1.16-2.16-5.84-10.85-5.24-18.36,1.52-19.28,37.58-29.06,43.28-30.61,8-2.16,25.33-6.63,39.79,1.31,2.53,1.39,11.67,6.41,10.93,11.81A6.9,6.9,0,0,1,101.86,121.61Z"/><path class="cls-3" d="M143.4,84.45a13.4,13.4,0,0,0-7.44.43c-.76.28-6.72,2.56-7,7a5.94,5.94,0,0,0,1.31,3.93c2.32,2.87,6.37,2.22,6.56,2.19a11.32,11.32,0,0,1-2.62,6.12,12.17,12.17,0,0,1-.88.88,18.74,18.74,0,0,1-10-4.81c-.86-.82-6.84-6.51-5.25-12.25,1.66-6,10.59-8.52,17-7.43A17.54,17.54,0,0,1,143.4,84.45Z"/><path class="cls-4" d="M122.41,93.19a16.26,16.26,0,0,0,2.19,2.62,20.56,20.56,0,0,0,5.24,3.5c1.64.87,2.46,1.31,3.06,1.31,2.31,0,4.43-2.2,5.25-4.37a7,7,0,0,0,.44-2.62c-1.32,1-2.77,2.05-4.37,3.06-.75.47-1.47.9-2.19,1.31a8.73,8.73,0,0,0,2.19-2.19,8.59,8.59,0,0,0,1.31-3.06,16.32,16.32,0,0,1-3.06,2.19,16.75,16.75,0,0,1-3.06,1.31l.87-2.19a3.53,3.53,0,0,0-2.62.44,3.16,3.16,0,0,0-.88.88l-.43-1.75a11.31,11.31,0,0,1-1.75,0A10.66,10.66,0,0,1,122.41,93.19Z"/><path class="cls-4" d="M138.15,79.64v4.81l2.62-.88-.43,1.75,3.93-.44c-.66.71-1.39,1.45-2.18,2.19-1.05,1-2.08,1.85-3.06,2.62a5.49,5.49,0,0,0,2.18.88,5.61,5.61,0,0,0,1.75,0,8.1,8.1,0,0,0,3.5,0,8.67,8.67,0,0,0,5.25-3.94Z"/><path class="cls-5" d="M143.4,35.91a21.81,21.81,0,0,1-1.75-4.81c-1.09-5.64,1.56-8.43.87-11.8-.5-2.47-2.86-5.62-11.36-8.31-2.23-3.11-5.81-6.95-10.94-7.87a23.89,23.89,0,0,0-5.68,0A49.32,49.32,0,0,1,99.67,1.37,23.81,23.81,0,0,0,90.06.06a25,25,0,0,0-15.31,7A44.63,44.63,0,0,0,51.58,26.73,18.35,18.35,0,0,1,56,22.8a18.05,18.05,0,0,1,3.5-1.75L48.52,33.29a17.08,17.08,0,0,0-2.62,2.19,18.81,18.81,0,0,0-4.81,8.74l5.24-6.12L51.14,35A121,121,0,0,1,38.46,60.83c-2.29,3.46-5.29,7.47-7,13.56-1.55,5.55-2.63,11.37-2.63,11.37-.59,3.18-.49,3.33-.87,4.37-.86,2.35-2.19,3.9-8.31,9.18-4.92,4.25-6.15,5-7.87,7.43a25.31,25.31,0,0,0-3.06,5.69c2.55-2,5.17-4.08,7.87-6.12Q22.36,101.93,28,98a65,65,0,0,0-15.3,32.35A10.58,10.58,0,0,1,17.48,126a10.26,10.26,0,0,1,4.37-.87,35.78,35.78,0,0,0-7.43,17l22.29-14.43a16.78,16.78,0,0,0-1.31,9.18A16.41,16.41,0,0,0,37.59,143a26.48,26.48,0,0,1,7-15.74l2.19,14c.32-10.07.87-12.23,1.31-12.25.59,0,.94,3.67,3.06,9.62.24.68,2.92,8.11,3.94,7.87,1.22-.29-3-11,1.31-21a24.87,24.87,0,0,1,7-9.18,37.37,37.37,0,0,0-1.31,32.36c-.45-8.45,1.85-13.33,3.94-16.18,4.13-5.64,9.68-6.47,13.12-13.12a20.69,20.69,0,0,0,2.18-9.62,29.46,29.46,0,0,0,3.06,6.13,36.73,36.73,0,0,0,4.81,5.68c1.77,1.84,4.45,4.65,7.87,8.31-1.1-2.51-2.47-5.76-3.93-9.62s-1.85-5.25-1.32-5.69c.9-.73,4,1.16,6.13,3.5,2.56,2.87,2.44,5.12,3.93,9.18,2.2,6,5.73,10,10.49,15.31a75.53,75.53,0,0,0,6.13,6.12,17.54,17.54,0,0,1-1.32-10.06,15.48,15.48,0,0,0,5.69,10.93,25.29,25.29,0,0,1-2.19-6.56,25.9,25.9,0,0,1-.44-4.81c1,2.34,2,4.67,3.07,7a34.53,34.53,0,0,0,.43-3.5,34.11,34.11,0,0,0-.43-8.31c.6,1.79,1.19,3.69,1.74,5.69.51,1.81.94,3.56,1.32,5.25a23.14,23.14,0,0,0,1.31-4.38,23.4,23.4,0,0,0,0-8.74,14.41,14.41,0,0,1,2.62,13.55,21.37,21.37,0,0,0,2.62-4.37,21.87,21.87,0,0,0,1.75-6.12,22.38,22.38,0,0,1,.44,3.5c0,.78,0,1.51,0,2.18a26.15,26.15,0,0,0,3.06-11.36A26.92,26.92,0,0,0,136,117.24a34,34,0,0,0-5.68-9.18C117.83,92.52,115.7,92.12,115,88.38c-.27-1.42-.59-4.62,9.62-19.24C136.37,52.28,146.05,43.28,143.4,35.91Z"/><path class="cls-2" d="M135.53,100.62a9.23,9.23,0,0,1-10.93,7c-3-.55-4.94-2.38-7-4.37s-2.22-2.88-4.81-6.13c-2.3-2.87-3.1-3.31-7-7.43-2.7-2.85-2.73-3.08-7-7.87-9.19-10.3-9.67-9.94-10.49-12.24-2.36-6.6.36-13.2.87-14.43a19.18,19.18,0,0,1,3.5-5.68c1-1.12,1-.79,3.5-3.06,2.95-2.66,3.71-3.74,6.56-6.12.92-.78,1.69-1.38,2.18-1.75a13.43,13.43,0,0,1-2.62-2.19c-.92-1-4.22-4.51-3.5-9.18a10.22,10.22,0,0,1,3.5-6.12,10.39,10.39,0,0,1,7.87-2.63c.79.1,3.89.49,5.25,2.63.47.74,1.31,2.62,1.31,2.62.14.73.29,1.46.43,2.19a18.53,18.53,0,0,1,5.25,0A20.83,20.83,0,0,1,129,28c10.87,5.29,9.91,4.56,10.93,5.25,2.71,1.85,10.14,6.93,11.37,15.3a17,17,0,0,1,0,4.81c1.26.62,8.4,4.27,10.49,12.24a19.73,19.73,0,0,1-.87,11.81c-1.17,3.36-3,8.51-7,10.06C147.32,90,142.38,79.84,132.47,81c-5.15.57-10.66,4.06-10.93,7.87-.23,3.26,3.44,6.12,5.68,7.87A21.48,21.48,0,0,0,135.53,100.62Z"/><path class="cls-5" d="M106.67,34.16a6,6,0,0,1,.44-11.36c.42-.13,3.2-.92,4.81.87a4.37,4.37,0,0,1,.87,3.5,11.13,11.13,0,0,0-6.12,7Z"/><path class="cls-5" d="M161.32,77.89a6.34,6.34,0,0,0,.88-5.69,5.39,5.39,0,0,0-1.75-2.62c-2.39-1.88-6.53-1.39-7.43.44a4.09,4.09,0,0,0,0,2.62,4.34,4.34,0,0,0,.87,1.75c1.12,1.29,2.29.79,3.06,1.75,1.08,1.33-.35,3.36.44,3.93S160.18,79.43,161.32,77.89Z"/><path class="cls-5" d="M124.36,51.07a7.73,7.73,0,0,0,3.49,2.8,13.23,13.23,0,0,0,4.9,1.39c1.21.15,2.78.34,3.14-.34.22-.42-.1-1-.35-1.4a13.85,13.85,0,0,0-4.89-4.89c-2-1-6-2.41-7-1.05C122.87,48.62,124.21,50.83,124.36,51.07Z"/><circle class="cls-6" cx="129.67" cy="51.58" r="2.28"/><circle cx="129.96" cy="51.3" r="2.02"/><circle class="cls-6" cx="129.08" cy="50.52" r="1.1"/><path class="cls-7" d="M38,173.84a38.33,38.33,0,0,1,16.41,9.69,45.79,45.79,0,0,1,11.94,18.65H50a29.27,29.27,0,0,0-8.21-11.93,28.79,28.79,0,0,0-14.17-6.72,29.46,29.46,0,0,0-19.39,3.73q1.48-3,3-6l3-6A38,38,0,0,1,38,173.84Z"/></g></g></svg>