<svg xmlns="http://www.w3.org/2000/svg" viewBox="0 0 140.08 200.15"><defs><style>.cls-1{fill:#939393;}.cls-2{fill:#767676;}.cls-3{fill:#6c6c6c;}.cls-4{fill:#525554;}.cls-5{fill:#434343;}.cls-6{fill:#fff;}</style></defs><g id="Layer_2" data-name="Layer 2"><g id="Layer_1-2" data-name="Layer 1"><path d="M28.7,34.93c-5.73,4-7.41,4.4-13.06,8.63C9,48.54,5.63,52.29,3.2,56,0,60.86-.18,63.48.08,65.33a10.48,10.48,0,0,0,3.2,6,11.2,11.2,0,0,0,9.42,3c4.77-.86,9.33-5.58,10.61-6.93s2.51-2.9,4.77-3.57a8.72,8.72,0,0,1,4.67,0,7.15,7.15,0,0,0-6.22-1.56,2.37,2.37,0,0,0,0-1.55,2.93,2.93,0,0,0-3.11-1.56A2.88,2.88,0,0,1,25,60.67a2.81,2.81,0,0,1,0,1.55c-.19.72-7.7,13.14-16.65,10.14-2.87-1-6-3.55-6.68-7C.9,61.58,3.33,58.38,6.31,54.44a48.22,48.22,0,0,1,7.77-7.77c4.54-3.81,7.3-5.41,14.91-10.73,3.49-2.45,6.29-4.48,8-5.75,1.22-1.68,2.45-3.36,3.67-5.05A107.12,107.12,0,0,1,28.7,34.93Z"/><path class="cls-1" d="M99.43,33.53a24.34,24.34,0,0,0-2-10c-.44-1-6.28-13.75-18.07-14-7.38-.19-12.62,4.6-14,6a12.91,12.91,0,0,1,0,8c-2.09,5.69-8.65,8-20.08,12-9.34,3.3-8.13,1.4-14,4-3.33,1.47-7,3.53-10,2a4.07,4.07,0,0,1-2-2c-.85-2.26,1.36-5,4-8,4.73-5.32,7-6.91,10-10,7.78-8,6.55-11.81,12-14a33.86,33.86,0,0,1,10-2,37.71,37.71,0,0,1,4,0,29.58,29.58,0,0,1,8-4c11.18-3.57,24.32-.16,32.12,8,2.39,2.5,6,6.32,6,12C105.45,28.31,100.34,32.76,99.43,33.53Z"/><path class="cls-2" d="M111.86,174.26c4.66-8.53,5.53-16.36,2-20.08-2-2.07-5.45-3-12-2-23.77,3.72-28.52,24.06-46.18,26.1-13.55,1.57-28-8.41-34.13-20.07-8.68-16.42-.35-34.92,2-40.15,7.16-15.89,17.46-21,58.22-58.22a52.32,52.32,0,0,0,14-20.08,39.42,39.42,0,0,0,2-22.08,38.32,38.32,0,0,0-6-14c2.85,1.24,12.53,5.89,16.06,16.06,2.25,6.49,1.13,12.56,0,18.06a54.91,54.91,0,0,1-6,16.06c-12.56,22-33,32.1-46.18,58.22-2.21,4.4-7.87,16.52-4,28.11,1.5,4.5,3.34,5.66,4,6,4.63,2.5,10.46-2.18,24.09-10,19.12-11,25.06-11.82,28.11-12,4-.29,11.35-.72,18.07,4a24.27,24.27,0,0,1,10,18.07C136.57,157.92,126.91,170.06,111.86,174.26Z"/><path class="cls-3" d="M111.48,174.05c4.65-8.52,5.52-16.35,2-20.07-2-2.08-5.45-3-12-2-23.76,3.72-28.52,24.06-46.17,26.1-13.55,1.57-28-8.42-34.13-20.08-8.35-15.79-1.3-32.42,2-40.15C30.84,99.9,45,90.83,50.5,87.69c-1.28,5.21-11.53,48,1.72,54.81,5.67,2.92,14.86-1.15,27.14-6.59,14.07-6.23,17.45-11.27,28.1-12,4-.29,11.35-.72,18.07,4a24.27,24.27,0,0,1,10,18.07C136.18,157.71,126.52,169.86,111.48,174.05Z"/><path class="cls-4" d="M91.4,156c-11-3.09-21.75.61-26.09,8a19.83,19.83,0,0,0-2,14,17.51,17.51,0,0,0,4,8c1.89,2.08,5.39,4.84,14.06,6a59.31,59.31,0,0,0,30.11-4c3.69-1.85,25.09-11.63,28.1-32.12.51-3.41,2.25-15.25-6-24.09-7.46-8-18-8.06-20.07-8,.9.76,14.22,12.37,12,28.1-.14,1.05-2.21,14.61-12,20.08l-.11.06c-1.28.7-12.18,6.49-20,1.94a10.24,10.24,0,0,1-4-4C86.1,163.89,91.07,156.46,91.4,156Z"/><path class="cls-5" d="M49.25,166c-.88,1.15-5.7,7.72-4,16.06,1.32,6.59,5.89,10.31,8,12,7.47,6.08,16.16,6,20.08,6,4.11,0,12.56,0,20.07-6,2-1.63,10.64-9.09,10-20.08S93.34,150.83,81.37,152c-8.46.81-16,8.13-18.07,18.07,10.48-6.19,20.7-5,24.09,0,2.71,4,1,10.34-2,14.05-7.18,8.95-27,8.66-34.13-2C47.16,176,48.64,168.5,49.25,166Z"/><path d="M21.86,40.44c0,.24,1.7.32,3.11,0a7.09,7.09,0,0,0,3.11-1.55C23,39.83,21.84,40.24,21.86,40.44Z"/><path d="M20.55,39c-.22,0-.36-.86-.23-1.53a2.62,2.62,0,0,1,1.3-1.77C21.06,38.36,20.74,39,20.55,39Z"/><path d="M35.86,34.22c.12.18.42.08,1.56,0,1.71-.11,2,.06,3.11,0a7.44,7.44,0,0,0,4.67-1.55c.79-.7,2-2.21,1.55-3.11-.58-1.19-3.86-1-6.22,0C37.54,30.82,35.46,33.64,35.86,34.22Z"/><circle class="cls-6" cx="43.56" cy="30.71" r="0.46"/><path d="M28.19,27.63c-.06-.08,0-.2.26-.69.34-.74.32-.92.52-1.38a3.52,3.52,0,0,1,1.46-1.82c.44-.24,1.31-.52,1.64-.18s-.19,1.88-1,2.77C30,27.45,28.39,27.9,28.19,27.63Z"/></g></g></svg>