<svg xmlns="http://www.w3.org/2000/svg" viewBox="0 0 113.3 102.2"><defs><style>.cls-1{fill:#4d4d4d;}.cls-2{fill:#999;}.cls-3{fill:#fff;}.cls-4{fill:#363430;}</style></defs><g id="Layer_2" data-name="Layer 2"><g id="Layer_1-2" data-name="Layer 1"><path class="cls-1" d="M9.76,35.11,66.42,58.22a36.58,36.58,0,0,1-9,7.45c-4,2.35-6.92,3-13.42,5.22a144.28,144.28,0,0,0-14.16,5.22c-5.33,2.64-11.84,9-15.65,26.09A53.41,53.41,0,0,1,9.76,35.11Z"/><path class="cls-2" d="M9.76,35.11,62,56.73a45.2,45.2,0,0,1-9,4.47C42.31,65.12,36,63,29.89,64.93c-5.55,1.76-12.21,7.32-17.15,23.85A39.54,39.54,0,0,1,3.05,73.13C-3.06,54.26,8.09,37.53,9.76,35.11Z"/><path class="cls-3" d="M52.73,6A27.37,27.37,0,0,1,47.12,8a27.6,27.6,0,0,1-6.63.82c0-.37-.17-3.35-2.17-4.52C36.07,3,32,4.26,29.88,8.25a9.47,9.47,0,0,1,2.06-4.93C35.48-.86,42.48-.61,47,1.42A14.86,14.86,0,0,1,52.73,6Z"/><path class="cls-3" d="M112.62,52a13,13,0,0,1-2.09,4.16C106.85,61,100.35,61,99.11,61c-1.43,0-1-.19-8.87-1.91-6.5-1.43-8.18-1.6-10.17-1.47a14.87,14.87,0,0,0-2.25.3c-1.53.35-2.3.47-4.36,1.1-1.33.41-3,.45-13.75-3.08-3.75-1.24-4.08-1.42-5.22-1.49-3.3-.2-4.76,1.08-8.2,1.49a17.88,17.88,0,0,1-7.45-.75,8.33,8.33,0,0,0,3-.74A8.45,8.45,0,0,0,44.05,53a26.86,26.86,0,0,0-10.43,1.49A14.85,14.85,0,0,1,37.35,50a13.94,13.94,0,0,1,2.23-1.49,21.39,21.39,0,0,0-8.2,2.23c-3.72,1.9-6.11,4.65-10.44,11.18-2.73,4.14-6.13,9.64-9.69,16.41A31.18,31.18,0,0,1,4.54,67.16C.45,55,5.51,43.68,7.22,39.85a22,22,0,0,1,2.54-4.74c6-8.12,17.29-8.84,23.35-9.23A54.63,54.63,0,0,1,50.24,27.6c6.81,1.77,9.69,3.87,21.64,9.92,10.41,5.27,12.5,6.72,17.7,8.51A72.79,72.79,0,0,0,101.22,49a4,4,0,0,1,.27-2.18,3.87,3.87,0,0,1,.43-.7,80.08,80.08,0,0,1-7.54-3.49c-4.36-2.31-8.07-4.27-11.66-7.72-5.4-5.19-3.42-6.94-8.78-12.83-3.86-4.25-4.89-3.34-14.29-11.13-6-5-5.81-5.39-7.46-5.85l-.13,0a33.33,33.33,0,0,1,16,1.07c.89-.68,2.3-1.56,4.27-2.79a12.48,12.48,0,0,1,4.42-2c3.17-.66,7.39,0,8,2.09A3.81,3.81,0,0,1,84,6.35C82.94,8.15,81.68,8,80.89,9.44a3.85,3.85,0,0,0-.19,2.89c1.69,1.21,3,2.34,4.07,3.2,4.43,3.69,3,3.66,8.9,9.34a8.82,8.82,0,0,1,3.07,4.7c.3,1.58-.24,2.19.25,3.58.58,1.67,1.89,2.35,3.72,3.7.94.69-.43-.24,5.37,4.91,1.43,1.28,2.53,2.24,3.38,3A34.1,34.1,0,0,1,112,47.09a2.66,2.66,0,0,1,.6,1.06c.06.21.12.42.16.63A7.13,7.13,0,0,1,112.62,52Z"/><path class="cls-4" d="M105.61,47.46,104,49.37c-.82-.11-1.73-.24-2.73-.41a4,4,0,0,1,.27-2.18,3.87,3.87,0,0,1,.43-.7C103.3,46.64,104.54,47.09,105.61,47.46Z"/><path d="M112.63,52c-.34.28-.9.74-1.61,1.29-1.49,1.17-2.43,1.48-2.36,2s.64.6,1,.65a1.54,1.54,0,0,0,1.29-.45l-.75,1.37a1.35,1.35,0,0,1-.82.18,1.49,1.49,0,0,1-1-.65,8.62,8.62,0,0,1-1,.9c-2.63,2-5.82,2-7.91,1.86C93,58.72,89.27,56.93,82,55.76c-2.77-.44-3.85-.44-5-.13-2.15.55-3.11,1.7-5.05,1.42-.36-.06-2-.34-2.37-1.4s.72-2.42,1.58-3.1,3-1.84,11.92.75c2.74.79,1.81.69,8.15,2.77A53.46,53.46,0,0,0,102.49,58a3.64,3.64,0,0,0,2.48-.52,3.75,3.75,0,0,0,1.14-4.4c-.9-1.64-3.18-.88-4.37-2.69a3.45,3.45,0,0,1-.52-1.4,4,4,0,0,1,.27-2.18,3.87,3.87,0,0,1,.43-.7c1.45-1.84,4.93-2.58,7.54-1.34a7.63,7.63,0,0,1,.67.38,6.57,6.57,0,0,1,2.54,2.22,4.58,4.58,0,0,1,.63,2.11A4.64,4.64,0,0,1,112.63,52Z"/><path class="cls-4" d="M101.22,49A72.79,72.79,0,0,1,89.58,46c-5.2-1.79-7.29-3.24-17.7-8.51-11.95-6.05-14.83-8.15-21.64-9.92a50.17,50.17,0,0,0-17.13-1.72,49.08,49.08,0,0,0-20.62,6.53l-.71.42A55.35,55.35,0,0,1,29.35,16.31a13.69,13.69,0,0,1,0-9C30.66,3.77,33.92,0,36.19.51c.92.21,1.05,1,2.73,1.5,1.49.45,2.19.09,2.93.76S42.26,4,42.84,5a5.1,5.1,0,0,0,3.37,2c3.17.65,5.64-1.78,5.84-2l.14,0c1.65.46,1.48.88,7.46,5.85C69.05,18.7,70.08,17.79,73.94,22c5.36,5.89,3.38,7.64,8.78,12.83,3.59,3.45,7.3,5.41,11.66,7.72a80.08,80.08,0,0,0,7.54,3.49,3.87,3.87,0,0,0-.43.7A4,4,0,0,0,101.22,49Z"/><path class="cls-4" d="M68,6A22.25,22.25,0,0,1,70.45,4c2.18-1.57,5.57-4,9.47-3.4a8.63,8.63,0,0,1,3.2,1.22,5.07,5.07,0,0,1-1.21,1.64c-1.1,1-1.83.69-3.59,1.8a10.43,10.43,0,0,0-2,1.82,2.81,2.81,0,0,0-.74,1.37,2.54,2.54,0,0,0,.08,1.19Z"/><path d="M61.63,25c.18.51.57,1.36,2.6,2.83,3.57,2.57,5.74,2.36,6.26,2.29,1-.13,1.26-.43,1.34-.58.6-1.07-1.18-3.35-2.12-4.35a10.87,10.87,0,0,0-4.38-2.71c-1.67-.66-3-1.17-3.63-.47C60.91,22.89,61.6,24.94,61.63,25Z"/><circle class="cls-3" cx="64.16" cy="24.38" r="0.95"/><path d="M42.12,2.14c.71.47.83,1,1.37,1.83C45,6.38,47.09,6.8,46.94,7.21c-.28.78-7.82,0-8.59-3A2.32,2.32,0,0,1,38.92,2C39.75,1.27,41.23,1.55,42.12,2.14Z"/></g></g></svg>