<svg xmlns="http://www.w3.org/2000/svg" viewBox="0 0 206.87 218.63"><defs><style>.cls-1{fill:#363430;}.cls-2{fill:#4d4d4d;}.cls-3{fill:#999;}.cls-4{fill:#fff;}</style></defs><g id="Layer_2" data-name="Layer 2"><g id="Layer_1-2" data-name="Layer 1"><path class="cls-1" d="M121,56.67a13.61,13.61,0,0,0-3.82,5.65,15,15,0,0,0,0,8.61c2,8.19,8.34,13.86,10.45,15.67,9.27,8,18.49,11.52,23.12,13.43,18.94,7.79,38.06,15.66,47,32.07,3.85,7.07.48,5.93,7.46,29.09,1,3.36,3.33,11.05,0,14.92a11.37,11.37,0,0,1-4.48,3c-2.15.78-3.4.45-5.22.74-3.15.51-5.23,2.42-7.46,4.48-5.33,4.91-7.56,11.43-8.95,15.66a60,60,0,0,0-3,18.65c-3.59-1.32-7.33-2.81-11.18-4.47q-5.12-2.21-9.7-4.48c3.55-6.63,3.26-10.8,2.24-13.43-1-2.47-2.31-3-3.73-6.71-1.85-4.77-.47-6.83-2.24-8.2-2.44-1.9-7.49.1-10.44,2.23-2.71,2-3.07,3.58-5.23,6s-5.61,5.08-11.93,6.71a48.82,48.82,0,0,1-9-3.73,49.4,49.4,0,0,1-11.19-8.2c11.41-5.39,13.79-8.52,13.42-10.44s-3.17-2.2-6-6a18.45,18.45,0,0,1-3-6.72c-3.14-10.78-24.58-13.73-38.79-30.58a51,51,0,0,1-5.22-7.46l-9,2.24c-1-2.74-2-5.47-3-8.21L41,124.64a8.91,8.91,0,0,1-7.46-.74,8.42,8.42,0,0,1-3.27-4q-.87-3.1-1.95-6.41c-1-2.89-2-5.63-3-8.2.66.41,8.9,5.3,17,1.33A16.41,16.41,0,0,0,49.23,100c-2.31-4.92-4.38-9-6-11.94-2.27-4.28-3.06-5.5-4.48-6.71-3.07-2.64-5.8-2.46-10.44-3.73-3.13-.86-7.06-3.06-14.92-7.46C9.85,68.19,5.25,65.47,0,62L9,49.3a53.25,53.25,0,0,0,11.94,8.21c5.53,2.77,15.23,7.63,22.69,4,1.74-.86,2.63-1.87,7.22-8.26,11-15.36,11.44-18.34,15.54-20.89,6.57-4.07,14.53-2,21.2-.35C106.21,36.47,117.12,50.94,121,56.67Z"/><path class="cls-2" d="M117.38,62.13a22.71,22.71,0,0,0,0,8.61c1.15,6,4.68,10.7,10.45,15.67,5,4.27,9.87,7.39,23.12,13.43,16.5,7.51,15,5.64,22.91,9.88,4.29,2.31,20.06,11.06,24.09,22.19.19.53.71,2.06,1.27,3.92,1.88,6.3,2,9.46,3,14.18,1.77,8.84,4.2,12.79,4.48,20.14a9.08,9.08,0,0,1-1.49,6,8.6,8.6,0,0,1-4.48,3c-2.84-7.18-6.66-10.75-9.7-12.68-4.47-2.86-7.88-2.55-13.42-6a32.77,32.77,0,0,1-8.95-8.21,12.86,12.86,0,0,0,1.49,5.22,12.71,12.71,0,0,0,3,3.73,54.19,54.19,0,0,1-26.85-30.58,30,30,0,0,0,5.22,14.92A57.14,57.14,0,0,1,124.57,106a45.17,45.17,0,0,0,1.5,23.13,56.28,56.28,0,0,1-14.92-27.6C107,81.77,115.08,66.22,117.38,62.13Z"/><path class="cls-2" d="M63.41,35.13,120.1,58.25a36.77,36.77,0,0,1-8.95,7.46c-4,2.35-6.93,3.05-13.43,5.22-5.23,1.76-11.23,3.77-14.17,5.23-5.34,2.64-11.85,9-15.67,26.1a53.44,53.44,0,0,1-4.47-67.13Z"/><path class="cls-3" d="M63.41,35.13l52.21,21.63a45.4,45.4,0,0,1-9,4.48C96,65.16,89.69,63,83.55,65,78,66.73,71.33,72.29,66.39,88.84a39.64,39.64,0,0,1-9.7-15.67C50.58,54.29,61.73,37.56,63.41,35.13Z"/><path class="cls-4" d="M106.4,6a28,28,0,0,1-5.61,2.06,28.23,28.23,0,0,1-6.63.82c0-.37-.18-3.36-2.18-4.53C89.73,3,85.66,4.27,83.54,8.25A9.42,9.42,0,0,1,85.6,3.32c3.54-4.18,10.54-3.93,15.11-1.9A14.89,14.89,0,0,1,106.4,6Z"/><path class="cls-4" d="M166.32,52.07a12.5,12.5,0,0,1-2.09,4.16c-3.68,4.84-10.18,4.85-11.42,4.85-1.43,0-1-.19-8.88-1.92-6.5-1.42-8.19-1.6-10.17-1.47a13.69,13.69,0,0,0-2.26.31c-1.52.34-2.29.47-4.36,1.1-1.33.4-3,.45-13.76-3.08-3.75-1.24-4.08-1.43-5.22-1.5-3.3-.2-4.76,1.09-8.2,1.5a18.11,18.11,0,0,1-7.46-.75,8.34,8.34,0,0,0,3-.75A8.46,8.46,0,0,0,97.72,53a26.9,26.9,0,0,0-3,0,27.26,27.26,0,0,0-7.46,1.49A15,15,0,0,1,91,50.05a14.4,14.4,0,0,1,2.23-1.49A21.39,21.39,0,0,0,85,50.79C81.31,52.69,78.92,55.44,74.6,62a189.53,189.53,0,0,0-9.7,16.41A31,31,0,0,1,58.18,67.2c-4.1-12.19,1-23.5,2.68-27.32a22.3,22.3,0,0,1,2.55-4.75c6-8.12,17.3-8.84,23.36-9.23a54.39,54.39,0,0,1,17.14,1.72c6.82,1.77,9.7,3.87,21.65,9.92,10.42,5.28,12.51,6.73,17.72,8.51A71.64,71.64,0,0,0,154.92,49a3.93,3.93,0,0,1,.28-2.18,3.33,3.33,0,0,1,.42-.7,79.23,79.23,0,0,1-7.54-3.5c-4.37-2.3-8.08-4.27-11.67-7.72C131,29.7,133,28,127.63,22.06c-3.87-4.26-4.9-3.34-14.3-11.15-6-5-5.82-5.39-7.47-5.84l-.13,0a33.63,33.63,0,0,1,16,1.07c.89-.67,2.3-1.56,4.27-2.79a12.48,12.48,0,0,1,4.42-2c3.18-.66,7.4,0,8,2.1.36,1.09-.39,2.33-.76,2.93-1.09,1.79-2.35,1.65-3.15,3.09a3.84,3.84,0,0,0-.18,2.89c1.69,1.2,3.05,2.34,4.07,3.2,4.44,3.69,3,3.66,8.91,9.34a8.81,8.81,0,0,1,3.07,4.71c.29,1.58-.24,2.19.24,3.58.59,1.67,1.9,2.35,3.73,3.71.94.68-.43-.25,5.37,4.91,1.43,1.27,2.53,2.24,3.39,3a34,34,0,0,1,2.56,2.35,2.52,2.52,0,0,1,.59,1.06,4.91,4.91,0,0,1,.17.63A7.13,7.13,0,0,1,166.32,52.07Z"/><path class="cls-1" d="M159.32,47.49l-1.67,1.91c-.81-.11-1.73-.24-2.73-.41a3.93,3.93,0,0,1,.28-2.18,3.33,3.33,0,0,1,.42-.7C157,46.67,158.24,47.12,159.32,47.49Z"/><path d="M166.34,52.05c-.34.28-.9.74-1.61,1.3-1.49,1.17-2.43,1.48-2.37,2s.65.6,1,.65a1.59,1.59,0,0,0,1.29-.44l-.75,1.37a1.38,1.38,0,0,1-.83.17,1.4,1.4,0,0,1-1-.65,8.7,8.7,0,0,1-1,.91c-2.63,2-5.82,2-7.91,1.85-6.49-.42-10.19-2.2-17.49-3.37-2.77-.44-3.86-.44-5-.14-2.16.55-3.12,1.71-5.06,1.42-.35,0-2-.34-2.37-1.4s.73-2.42,1.59-3.1,3-1.84,11.92.75c2.74.8,1.81.69,8.15,2.78A54.5,54.5,0,0,0,156.19,58a3.65,3.65,0,0,0,2.48-.53,3.76,3.76,0,0,0,1.15-4.39c-.91-1.64-3.19-.89-4.38-2.7a3.45,3.45,0,0,1-.52-1.4,3.93,3.93,0,0,1,.28-2.18,3.33,3.33,0,0,1,.42-.7c1.45-1.84,4.93-2.58,7.55-1.34a7.45,7.45,0,0,1,.66.37,6.63,6.63,0,0,1,2.55,2.23,4.53,4.53,0,0,1,.62,2.11A4.66,4.66,0,0,1,166.34,52.05Z"/><path class="cls-1" d="M154.92,49a71.64,71.64,0,0,1-11.64-2.94c-5.21-1.78-7.3-3.23-17.72-8.51-12-6.05-14.83-8.15-21.65-9.92A50,50,0,0,0,86.77,25.9a48.93,48.93,0,0,0-20.63,6.53l-.72.42a55.59,55.59,0,0,1,9.18-10.4A55,55,0,0,1,83,16.32a13.73,13.73,0,0,1,0-9C84.31,3.77,87.58,0,89.85.51c.92.21,1.05,1,2.74,1.5,1.48.45,2.19.09,2.92.76S95.92,4,96.5,5A5.16,5.16,0,0,0,99.88,7c3.17.65,5.64-1.79,5.84-2l.14,0c1.65.45,1.48.88,7.47,5.84,9.4,7.81,10.43,6.89,14.3,11.15C133,28,131,29.7,136.41,34.89c3.59,3.45,7.3,5.42,11.67,7.72a79.23,79.23,0,0,0,7.54,3.5,3.33,3.33,0,0,0-.42.7A3.93,3.93,0,0,0,154.92,49Z"/><path class="cls-1" d="M121.63,6A22.09,22.09,0,0,1,124.13,4c2.18-1.57,5.57-4,9.48-3.4a8.52,8.52,0,0,1,3.2,1.23,5.28,5.28,0,0,1-1.21,1.64c-1.1,1-1.83.69-3.6,1.8A10,10,0,0,0,130,7a2.88,2.88,0,0,0-.75,1.37,2.58,2.58,0,0,0,.08,1.2Z"/><path d="M115.31,25.05c.18.5.57,1.36,2.6,2.82,3.57,2.57,5.74,2.37,6.26,2.3,1-.13,1.26-.43,1.34-.58.6-1.07-1.18-3.36-2.12-4.35A10.76,10.76,0,0,0,119,22.53c-1.67-.66-3-1.18-3.63-.47S115.28,25,115.31,25.05Z"/><circle class="cls-4" cx="117.84" cy="24.4" r="0.95"/><path d="M95.79,2.14c.7.47.82,1,1.36,1.84,1.55,2.4,3.61,2.83,3.46,3.24-.28.77-7.83,0-8.59-3A2.29,2.29,0,0,1,92.59,2C93.41,1.27,94.89,1.55,95.79,2.14Z"/><path class="cls-3" d="M117.23,61.78a22.71,22.71,0,0,0,0,8.61c1.39,7.22,6.1,11.67,10.44,15.67a63.63,63.63,0,0,0,23.13,13.42,30.27,30.27,0,0,1-17.22-3.18,27.23,27.23,0,0,1-4.48-3,6.91,6.91,0,0,0-.75,3c0,3.56,2.95,7,7.46,9-2.53,0-7.31-.4-11.19-3.73a15,15,0,0,1-1.49-1.49,18.74,18.74,0,0,0-3,14.92A32.84,32.84,0,0,1,111,101.17c-2.38-7.15-1.47-13.17-.59-19A62.82,62.82,0,0,1,117.23,61.78Z"/></g></g></svg>