<svg xmlns="http://www.w3.org/2000/svg" viewBox="0 0 108.16 97.72"><defs><style>.cls-1{fill:#ca8b00;}</style></defs><g id="Layer_2" data-name="Layer 2"><g id="Layer_1-2" data-name="Layer 1"><path class="cls-1" d="M105.91,82.61c-1.36-3.44-6.37-16.57-7.32-41.85-.74-19.54,1.94-25.16,3.94-28.48A32.68,32.68,0,0,1,106.47,7l-3.94-7a154.42,154.42,0,0,1-48.3,7.76A154.51,154.51,0,0,1,5.63,0L1.69,7a30.66,30.66,0,0,1,3.94,5.23c2.44,4.06,4.65,9.88,4,28.48-1,25.28-6,38.41-7.33,41.85-.86,2.18-1.67,4-2.25,5.23q2.82,4.94,5.63,9.88h.14c1.37-.53,3.24-1.23,5.5-2l1.12-.36c17.48-5.49,41.84-5.44,41.84-5.44s24.12,0,41.54,5.5l1.13.37c2.25.73,4.13,1.43,5.49,2h.14l5.63-9.88C107.58,86.59,106.78,84.8,105.91,82.61Z"/><path d="M20.55,57.7A11.33,11.33,0,0,1,25,51.36c1.81-1.16,2.63-.76,9.51-1.28,3.61-.27,10.72-.84,14.51,0a12.2,12.2,0,0,1,2,.62,18.35,18.35,0,0,1,3.58,1.91,12,12,0,0,1,3.59-1.91,13.35,13.35,0,0,1,4.3-.63,99,99,0,0,1,10,.63c6.07.58,9.1.87,12.19-.63.81-.4,5.07-2.59,5-5.69a4,4,0,0,0-1.9-3.17,4.62,4.62,0,0,0-5.21.61,3.27,3.27,0,0,1,3.94.66c.94,1.26.07,3,0,3.17-.58,1.14-1.74,1.75-3.22,2.52a8.14,8.14,0,0,1-1.12.52c-1.76.59-3.85.3-9.86.22s-7.8.16-10.53-.74a28.34,28.34,0,0,1-4.3-1.91,23.71,23.71,0,0,1-2.87-1.9,11.38,11.38,0,0,1-2.87,1.9c-2,.93-3.9,1.16-7.17,1.27l-2.45.06c-2.46,0-4.26,0-4.72-.06-9.42-.3-14.14-.45-16.19,1.92C20.48,50.28,19.13,52.43,20.55,57.7Z"/><path d="M38.76,79.25a2.92,2.92,0,0,0,1.78,1.27,2.84,2.84,0,0,0,2.36-.63,3.74,3.74,0,0,1-1.18,1.9,3.59,3.59,0,0,1-2.37.63,9.61,9.61,0,0,1-4.72-1.27,6.89,6.89,0,0,1-4.13,1.27,4.62,4.62,0,0,1-2.36-.63,5.06,5.06,0,0,1-1.78-1.9,3.23,3.23,0,0,0,4.73-.64v-59a3.63,3.63,0,0,0-1.77-1.9,3.6,3.6,0,0,0-4.14,1.27,6,6,0,0,1,2.36-3.81c2.05-1.34,5-.88,7.09,1.27a8.31,8.31,0,0,1,10.63,0,5.71,5.71,0,0,0-4.13.64,6.32,6.32,0,0,0-2.37,2.53Z"/><path d="M70.31,79a2.92,2.92,0,0,1-1.78,1.27,2.82,2.82,0,0,1-2.36-.63,3.67,3.67,0,0,0,1.18,1.9,3.57,3.57,0,0,0,2.36.63,9.61,9.61,0,0,0,4.73-1.27,6.89,6.89,0,0,0,4.13,1.27,4.62,4.62,0,0,0,2.36-.63,5.06,5.06,0,0,0,1.78-1.9A3.23,3.23,0,0,1,78,79v-59a3.63,3.63,0,0,1,1.77-1.9,3.6,3.6,0,0,1,4.14,1.27,6,6,0,0,0-2.37-3.81c-2-1.34-5-.88-7.08,1.27a8.31,8.31,0,0,0-10.63,0,5.71,5.71,0,0,1,4.13.64,6.32,6.32,0,0,1,2.37,2.53Z"/></g></g></svg>