<svg xmlns="http://www.w3.org/2000/svg" viewBox="0 0 485 534.07"><defs><style>.cls-1{fill:#ca7500;}.cls-2{fill:#ca9f00;}</style></defs><g id="Layer_2" data-name="Layer 2"><g id="Layer_1-2" data-name="Layer 1"><path class="cls-1" d="M443.18,103.09c-1.12,1.43-6.76,8.19-16.27,9a34.79,34.79,0,0,1,3.62-12.65A28.23,28.23,0,0,1,432.59,96C436.11,98.39,439.66,100.74,443.18,103.09Z"/><path class="cls-1" d="M58.09,112.13c-9.51-.85-15.15-7.61-16.27-9,3.52-2.35,7.07-4.7,10.59-7.07a28.23,28.23,0,0,1,2.06,3.46A34.79,34.79,0,0,1,58.09,112.13Z"/><path class="cls-1" d="M83.76,96a28.47,28.47,0,0,1-16.2,15,7.62,7.62,0,0,0,3.18-2.38c2.66-4-1.75-11.74-5.42-16.28-7.77-9.58-14.66-7.52-23.5-18.08-1.1-1.31-7.69-9.31-5.43-12.65,1-1.45,3.37-1.63,5.43-1.81a21,21,0,0,1,8.8,1.45C54.09,62.65,72.81,74.11,83.76,96Z"/><path class="cls-1" d="M443.18,74.16c-8.84,10.56-15.73,8.5-23.5,18.08-3.67,4.54-8.08,12.33-5.42,16.28a7.62,7.62,0,0,0,3.18,2.38,28.47,28.47,0,0,1-16.2-15c10.95-21.84,29.67-33.3,33.14-34.8a21,21,0,0,1,8.8-1.45c2.06.18,4.45.36,5.43,1.81C450.87,64.85,444.28,72.85,443.18,74.16Z"/><path class="cls-2" d="M412.68,207.59c-26-64.6-19.38-92.1-14.46-104.86a65.31,65.31,0,0,1,3-6.78c10.95-21.84,29.67-33.3,33.14-34.8a21,21,0,0,1,8.8-1.45c2.06.18,4.45.36,5.43,1.81,2.26,3.34-4.33,11.34-5.43,12.65-8.84,10.56-15.73,8.5-23.5,18.08-3.67,4.54-8.08,12.33-5.42,16.28a7.62,7.62,0,0,0,3.18,2.38,21.71,21.71,0,0,0,9.47,1.23,34.79,34.79,0,0,1,3.62-12.65A28.23,28.23,0,0,1,432.59,96c6.25-9,15-10.54,21.44-21.86,1.83-3.18,7.11-12.16,3.62-18.07-1.76-3-5.28-4.42-8.79-5.05a38.29,38.29,0,0,0-9.29-.38c-22.78,1.56-43.63,25.08-52.43,48.82-1.85,5-7.09,20.35-3.62,50.62,4.32,37.64,18.33,67.83,36.81,100.12H247.92V94.94Q257,84.53,266,74.16a77.08,77.08,0,0,0,28.93-3.61c16.47-5.44,20-13.2,54.24-39.78,15.69-12.15,27.17-20,43.39-21.69a63.32,63.32,0,0,1,12.66,0,.3.3,0,0,0-.06-.11,15.81,15.81,0,0,0-3.56-5.32,15,15,0,0,0-9-3.61c-22.38-1.3-59.43,30.37-59.43,30.37-20.41,17.5-24.1,24.9-38,28.93-12,3.49-23.15,1.92-30.74,0L242.5,83.91,220.57,59.34c-7.59,1.92-18.73,3.49-30.74,0-13.86-4-17.55-11.43-38-28.93,0,0-37.05-31.67-59.43-30.37a15,15,0,0,0-9,3.61A15.81,15.81,0,0,0,79.84,9a.3.3,0,0,0-.06.11,63.32,63.32,0,0,1,12.66,0c16.22,1.7,27.7,9.54,43.39,21.69,34.26,26.58,37.77,34.34,54.24,39.78A77.08,77.08,0,0,0,219,74.16q9,10.4,18.08,20.78V250.22H64.67c18.48-32.29,32.49-62.48,36.81-100.12,3.47-30.27-1.77-45.67-3.62-50.62-8.8-23.74-29.65-47.26-52.43-48.82a38.29,38.29,0,0,0-9.29.38c-3.51.63-7,2.06-8.79,5.05C23.86,62,29.14,71,31,74.16,37.44,85.48,46.16,87,52.41,96a28.23,28.23,0,0,1,2.06,3.46,34.79,34.79,0,0,1,3.62,12.65,21.71,21.71,0,0,0,9.47-1.23,7.62,7.62,0,0,0,3.18-2.38c2.66-4-1.75-11.74-5.42-16.28-7.77-9.58-14.66-7.52-23.5-18.08-1.1-1.31-7.69-9.31-5.43-12.65,1-1.45,3.37-1.63,5.43-1.81a21,21,0,0,1,8.8,1.45c3.47,1.5,22.19,13,33.14,34.8a65.31,65.31,0,0,1,3,6.78C91.7,115.49,98.28,143,72.32,207.59,60.08,238.06,38.53,281.86,0,328.72a115.14,115.14,0,0,1,30.74,30.74,114.91,114.91,0,0,1,18.07,45.2L68.7,388.39c16.58,32.29,36.12,49.73,50.62,59.66,35,24,66.56,24.33,97.63,57.85a138.05,138.05,0,0,1,20.13,28.17h10.84a138.05,138.05,0,0,1,20.13-28.17c31.07-33.52,62.6-33.88,97.63-57.85,14.5-9.93,34-27.37,50.62-59.66l19.89,16.27A114.53,114.53,0,0,1,485,328.72C446.47,281.86,424.92,238.06,412.68,207.59ZM210,481c-14.68-10.15-24.51-12-43.39-19.88-7.76-3.24-32.37-13.64-50.63-28.93-10.75-9-29-27.23-41.58-59.66L54.47,386.94a88.74,88.74,0,0,0-12.65-38,88.43,88.43,0,0,0-23.51-25.31c8.77-12.36,19.4-28.17,30.74-47q4.77-7.95,9.31-15.59H237.08V507.35A116.24,116.24,0,0,0,210,481ZM443.18,349a88.74,88.74,0,0,0-12.65,38l-19.89-14.46c-12.55,32.43-30.83,50.65-41.58,59.66-18.26,15.29-42.87,25.69-50.63,28.93C299.55,469,289.72,470.8,275,481a116.24,116.24,0,0,0-27.12,26.4V261.07H426.64q4.53,7.65,9.31,15.59c11.34,18.83,22,34.64,30.74,47A88.43,88.43,0,0,0,443.18,349Z"/></g></g></svg>