<svg xmlns="http://www.w3.org/2000/svg" viewBox="0 0 351.26 377.88"><defs><style>.cls-1{fill:#faecbf;}</style></defs><g id="Layer_2" data-name="Layer 2"><g id="Layer_1-2" data-name="Layer 1"><path class="cls-1" d="M119.15,377.52c10.35-2,17.06-12.57,36.64-15.59,11.26-1.74,17.32.46,28.57,1.86,12.21,1.52,55.22,6.87,78.82-14,13-11.49,8.67-20.8,27.12-37,10.14-8.91,14.45-8.75,24.28-16,2.28-1.68,28.77-21.71,35.61-52.27,3.39-15.19-1.7-16.72-9.5-76.49-3.13-24-2.21-23-3.76-27.06-9.23-24.17-28.37-25.47-57.4-57.85C270,72.43,273.13,73.8,257.35,55c-19.35-23.07-29-34.6-41.15-41.81-5-2.94-29.28-17.4-56.9-12-23.58,4.64-21.84,18.34-58.43,37.48C72,53.78,60.23,50.89,53,64.62c-7.5,14.21,1.72,23.81-7.19,43.69-5.42,12.08-11.21,13.84-21,26.28C23.64,136.1,6,159.05,1.31,188.21.87,191-7.25,245.6,23,269.21c20.1,15.66,36.87,1.89,63.37,22.12,12.68,9.67,12.85,15.88,29,25.9,9.81,6.07,23.24,14.38,39.86,13.38,17.82-1.07,20.05-11.69,35.28-10.79,16.95,1,19,14.42,34.24,14.9,20.63.66,37-23.22,40.18-28.1,7.68-11.83,5-15.81,13.94-34.51s15-21.63,20.68-32.59c12.38-23.81,10.31-60.63-6.63-83-21-27.65-55-13.39-71.24-42-9.57-16.85-5.93-35.33-16.33-38.41-8.51-2.52-13.61,9.05-28,9-15.12-.06-19.37-12.86-29-11-12.39,2.4-9.56,24.4-26,47-18,24.78-35.71,18-45,38-10.14,21.83.6,52.13,18,69,4.59,4.45,15.86,14,32,17,11.37,2.11,14.6-1,28-1,29.12,0,34.94,14.64,49.59,10.14,19-5.82,27.81-36.14,26.41-57.14-.49-7.3-1.42-21.21-11-28-8.8-6.23-16.14.13-29-6-13.13-6.25-12.07-15.9-22-18-11.12-2.35-26.59,6.75-31,21-.36,1.15-4.26,14.52,4,25,8.11,10.3,24.49,13.4,39,6-11.43-1.21-20.47-8-23-17-3.26-11.54,4.85-24.4,9-24,3.74.36,1.88,11.31,11,19,4.94,4.17,11.5,6,15,7,8,2.26,10,.56,13,3,5.93,4.77,6.95,15.31,4,23-3.61,9.39-13.63,15.85-23,16-13.73.22-16.67-13.25-30-13-12.72.24-17.62,12.63-27,10-2.65-.74-5.87-2.73-11.77-14.21-10.28-20-16.22-30.26-12.58-39.94,7.28-19.43,34.47-14.77,46.34-38.83,6.13-12.42,5.48-26.58,10.8-27.09,4.38-.42,6.42,9,14.21,10.07,6.8.9,10.24-5.64,14.24-4.08,5.64,2.21.3,16,6,26.63,7.41,13.95,25.51,9,44.27,19.83,19.64,11.33,32.51,35.61,33.36,58.31,1.23,33.16-23.51,54.32-40.24,68.63-12.51,10.69-20.37,12.53-26.35,12.28-10.42-.45-12.24-7.14-22.55-8.47-16.83-2.19-21.94,14.34-38.29,14.09-5.88-.1-8.49-2.29-37.55-25.2-27.32-21.54-29-22.72-32.47-24.8-24.06-14.25-32.05-9.27-39.19-19.42-13.54-19.26,3.61-53.74,6.47-59.49,9.71-19.51,16.49-17,24.93-36.59,9.26-21.56,3-29.07,13.23-43,5.22-7.1,14.31-12.4,32.51-23s21.51-9.89,33.34-18.61C164.3,37,163.37,32.5,172,29.76,187,25,204.74,33.86,215,43c13.81,12.26,9.76,21.05,28.25,43.35a160.11,160.11,0,0,0,18.58,18.78c19.56,17.19,27.06,16.61,38.93,27.67,17.85,16.62,22.84,38.37,25,47.61a109.78,109.78,0,0,1-2.49,56.46c-2.95,9.33-13.83,24.82-35.46,55.43-12.65,17.9-20.6,28.5-33.3,40.45-23.47,22.1-33.31,20.69-36.77,19.72-6.36-1.78-7.7-6.67-17.88-10.27-1.72-.61-8.53-2.88-19.1-2.29-24.49,1.36-44.34,16.72-60.53,19.22-14.59,2.25-36.12-4.4-66.85-42.86C86.32,370.27,106.49,380,119.15,377.52Z"/></g></g></svg>