<?xml version="1.0" standalone="no"?>
<!DOCTYPE svg PUBLIC "-//W3C//DTD SVG 20010904//EN"
 "http://www.w3.org/TR/2001/REC-SVG-20010904/DTD/svg10.dtd">
<svg version="1.0" xmlns="http://www.w3.org/2000/svg"
 width="1068.000000pt" height="1068.000000pt" viewBox="0 0 1068.000000 1068.000000"
 preserveAspectRatio="xMidYMid meet">
<metadata>
Created by potrace 1.14, written by Peter Selinger 2001-2017
</metadata>
<g transform="translate(0.000000,1068.000000) scale(0.100000,-0.100000)"
fill="#000000" stroke="none">
<path d="M2252 10660 c-29 -10 -59 -26 -68 -34 -8 -9 -23 -21 -33 -28 -10 -7
-30 -34 -44 -59 -15 -25 -106 -122 -203 -215 -97 -93 -213 -204 -258 -247 -44
-44 -153 -147 -240 -230 -87 -84 -166 -159 -175 -168 -9 -9 -40 -24 -70 -34
-75 -25 -126 -73 -140 -133 -10 -48 -10 -62 3 -122 9 -40 85 -203 98 -208 4
-2 8 -8 8 -13 0 -20 87 -117 155 -173 129 -105 148 -121 188 -158 22 -21 37
-38 34 -38 -4 0 2 -9 14 -21 l21 -21 -43 -26 c-24 -14 -50 -32 -57 -39 -7 -7
-17 -13 -21 -13 -4 0 -17 -9 -29 -20 -12 -11 -24 -20 -27 -20 -12 -1 -35 -13
-35 -20 0 -8 43 -54 83 -87 35 -30 123 -74 131 -66 3 4 6 2 6 -4 0 -10 9 -12
65 -15 19 -1 35 -5 35 -9 0 -3 25 -6 55 -5 30 0 55 4 55 9 0 4 4 6 9 3 12 -8
91 21 115 42 12 10 16 11 11 3 -9 -16 -4 -13 65 32 75 51 155 140 197 220 9
17 22 -5 63 -108 4 -11 12 -32 19 -48 12 -31 46 -164 56 -217 18 -105 25 -354
12 -470 -6 -60 -3 -56 -177 -210 -97 -86 -104 -94 -132 -148 -12 -26 -27 -50
-33 -54 -7 -5 -6 -8 1 -8 5 0 19 8 30 18 10 9 46 37 79 62 33 25 65 50 71 55
6 6 22 17 34 25 12 8 38 27 57 42 20 15 39 25 44 23 9 -6 -2 -27 -55 -110 -66
-102 -162 -330 -170 -405 -1 -8 -7 -25 -13 -36 -7 -12 -9 -24 -6 -28 3 -3 2
-6 -4 -6 -11 0 -28 -85 -26 -125 2 -29 11 -100 13 -102 3 -4 5 -12 14 -56 5
-24 4 -42 -3 -51 -6 -7 -8 -16 -4 -19 3 -4 1 -12 -4 -19 -6 -7 -20 -42 -32
-78 -13 -35 -25 -69 -29 -75 -4 -5 -7 -14 -8 -20 -1 -5 -20 -52 -42 -104 -23
-52 -39 -98 -37 -102 3 -3 -2 -12 -10 -19 -8 -7 -15 -16 -15 -21 0 -11 -42
-104 -119 -268 -12 -25 -21 -51 -21 -58 0 -7 -4 -13 -9 -13 -10 0 -27 -39 -23
-52 1 -5 -3 -8 -8 -8 -6 0 -10 -6 -10 -12 0 -7 -6 -24 -14 -38 -7 -14 -39 -74
-71 -135 -110 -209 -171 -321 -190 -346 -6 -8 -19 -32 -30 -54 -11 -22 -23
-44 -28 -50 -15 -21 -57 -86 -57 -90 0 -5 -48 -81 -119 -190 -52 -80 -65 -101
-82 -132 -7 -13 -16 -23 -21 -23 -4 0 -8 -6 -8 -14 0 -8 -3 -16 -7 -18 -5 -1
-37 -46 -72 -98 -36 -52 -74 -107 -85 -122 -12 -15 -37 -48 -56 -75 -19 -26
-39 -51 -45 -55 -7 -5 -7 -8 0 -8 6 0 6 -3 0 -8 -6 -4 -21 -20 -33 -37 -13
-16 -34 -43 -47 -60 -13 -16 -54 -68 -90 -115 -37 -47 -78 -98 -91 -114 l-24
-29 63 -46 c34 -24 66 -48 72 -53 133 -109 299 -275 385 -388 19 -25 37 -47
40 -50 10 -10 118 -176 140 -215 56 -99 141 -279 156 -330 1 -5 14 -41 28 -80
29 -78 62 -194 71 -250 9 -54 14 -76 24 -92 9 -17 10 -17 16 -1 4 10 13 18 20
18 7 0 15 4 17 8 2 5 30 30 63 57 33 26 62 51 65 54 3 3 23 19 45 36 22 16 45
34 50 40 19 21 116 98 119 94 1 -2 31 -53 65 -114 88 -156 216 -354 260 -404
11 -13 21 -27 21 -30 0 -3 10 -17 23 -31 12 -14 33 -38 46 -55 86 -111 288
-317 394 -400 21 -16 44 -34 50 -40 47 -39 111 -87 162 -120 33 -21 63 -43 67
-49 5 -7 8 -7 8 -1 0 6 3 6 8 0 25 -36 535 -300 602 -311 8 -2 16 -8 18 -13 2
-6 10 -11 18 -11 7 0 33 -9 56 -19 39 -18 67 -30 178 -79 19 -9 38 -16 42 -16
4 -1 13 -7 19 -14 7 -6 18 -12 24 -12 24 0 414 -206 435 -229 3 -4 25 -19 50
-36 101 -67 242 -186 358 -301 67 -67 122 -125 122 -129 0 -4 12 -19 28 -35
15 -15 36 -40 47 -56 11 -15 26 -33 33 -40 6 -7 12 -17 12 -23 0 -6 4 -11 8
-11 4 0 19 -18 32 -40 14 -22 28 -40 33 -40 4 0 7 -5 7 -11 0 -5 17 -36 38
-67 21 -31 53 -83 71 -115 l33 -58 110 3 110 3 28 50 c70 120 86 147 103 169
4 6 35 49 69 96 34 46 66 90 72 96 6 6 27 31 46 55 19 24 80 89 135 145 94 96
141 139 229 209 21 17 43 35 50 40 20 19 209 141 256 166 25 13 47 26 50 30 3
3 41 23 85 45 44 21 83 43 86 47 3 5 8 8 10 7 5 -3 50 16 144 60 39 18 76 33
83 33 6 0 12 4 12 8 0 4 10 11 23 15 12 3 41 15 64 25 63 28 96 42 112 45 8 1
17 8 21 14 4 7 10 11 14 10 8 -2 65 23 165 71 l75 37 26 -27 c15 -14 39 -35
55 -46 15 -11 36 -28 47 -37 10 -10 18 -15 18 -12 0 3 14 -5 31 -17 39 -28
218 -109 241 -109 9 0 19 -4 22 -9 3 -5 16 -11 28 -14 13 -3 55 -14 93 -25 39
-10 78 -18 88 -16 9 1 17 -1 17 -5 0 -8 222 -6 255 2 11 3 43 11 70 18 28 7
63 18 78 24 l29 12 -44 33 c-23 19 -66 54 -94 79 -27 25 -70 62 -94 81 -108
85 -313 283 -352 339 -14 20 -15 26 -3 37 7 8 17 14 21 14 4 0 16 10 28 23 12
13 29 26 39 30 9 3 17 11 17 17 0 5 7 10 16 10 8 0 12 5 9 10 -3 6 -1 10 5 10
14 0 60 42 180 164 122 125 118 120 218 245 46 59 90 114 98 124 8 9 14 21 14
25 0 5 8 17 18 28 28 33 62 83 62 93 0 5 4 11 9 13 8 3 161 263 161 276 0 4 7
15 15 26 12 16 16 16 29 5 8 -8 21 -19 28 -24 69 -55 189 -153 260 -212 82
-70 87 -72 94 -51 5 13 7 26 6 29 -1 4 3 22 9 40 6 19 12 43 13 54 5 29 24
100 49 175 12 36 22 67 22 70 1 3 7 19 14 35 6 17 17 44 23 60 6 17 15 34 20
40 4 5 8 17 8 26 0 10 7 25 16 33 8 9 13 16 9 16 -3 0 9 26 27 58 17 31 38 71
47 87 8 17 32 56 53 88 21 32 38 63 38 68 0 5 4 9 9 9 5 0 12 8 15 18 4 10 14
27 24 38 16 17 63 78 102 129 20 26 237 243 275 275 17 13 67 53 113 87 l82
63 -20 20 c-11 11 -20 22 -20 25 0 6 -35 49 -67 82 -13 13 -23 26 -23 29 0 3
-64 88 -113 149 -4 6 -26 35 -48 65 -22 30 -46 62 -53 71 -31 37 -266 378
-266 385 0 3 -5 10 -10 17 -6 7 -42 62 -80 122 -63 100 -68 111 -53 123 15 11
14 12 -8 12 -20 0 -33 16 -76 87 l-51 88 25 16 c58 38 203 210 203 240 0 6 -7
6 -19 0 -10 -6 -21 -7 -25 -4 -3 3 -6 1 -6 -5 0 -7 -8 -12 -18 -12 -10 0 -22
-3 -26 -7 -3 -4 -12 -8 -19 -9 -7 -1 -37 -9 -67 -18 -30 -8 -70 -18 -88 -21
l-34 -6 23 33 c13 18 26 35 29 38 11 9 70 110 70 119 0 5 -9 7 -20 4 -11 -3
-20 -9 -20 -14 0 -5 -5 -9 -11 -9 -6 0 -25 -6 -42 -14 -89 -39 -115 -46 -121
-31 -3 9 6 19 22 28 62 31 190 115 246 160 91 75 159 157 215 260 40 76 39 85
-6 49 -57 -44 -200 -119 -283 -147 -40 -14 -75 -23 -77 -21 -2 2 9 17 26 33
31 32 131 199 131 220 0 7 5 13 10 13 6 0 10 5 10 11 0 7 10 21 23 33 28 28
87 111 87 124 0 6 4 12 9 14 15 6 78 151 95 222 19 73 25 127 27 216 1 56 -9
149 -18 163 -2 4 -19 -11 -37 -32 -19 -22 -40 -47 -47 -54 -8 -8 -28 -32 -46
-53 -17 -22 -52 -61 -77 -89 -25 -27 -46 -53 -46 -57 0 -5 -5 -8 -11 -8 -5 0
-7 5 -3 11 23 38 21 264 -3 359 -3 14 -6 28 -5 33 7 30 -38 -17 -81 -86 -10
-16 -20 -27 -23 -25 -2 3 -7 38 -9 79 -5 74 -10 113 -20 159 -3 14 -8 39 -11
55 -9 46 -13 60 -34 110 -5 11 -12 34 -16 50 l-7 30 -8 -35 c-4 -19 -15 -73
-24 -120 -9 -47 -18 -92 -20 -100 -5 -21 -45 -152 -52 -170 -4 -8 -7 -17 -8
-20 -1 -3 -7 -18 -13 -33 -7 -16 -12 -30 -12 -33 0 -2 -11 -27 -25 -56 -14
-28 -25 -58 -25 -65 0 -8 -5 -11 -10 -8 -6 3 -7 18 -4 33 11 46 13 254 2 307
-5 28 -11 59 -13 70 -10 54 -18 86 -42 155 -30 90 -53 140 -62 140 -4 0 -8
-17 -8 -37 -1 -64 -23 -212 -44 -298 -5 -22 -12 -51 -15 -64 -7 -34 -62 -202
-74 -226 -17 -36 -33 -80 -32 -87 1 -5 -2 -8 -6 -8 -5 0 -14 -16 -22 -35 -8
-19 -16 -35 -19 -35 -3 0 -6 20 -6 45 0 25 2 45 5 45 3 0 5 14 6 30 1 17 -3
30 -8 30 -5 0 -4 8 1 19 6 10 8 21 4 25 -3 3 -7 25 -9 48 -3 36 -18 116 -29
153 -1 6 -3 13 -4 17 -10 44 -89 220 -92 203 -1 -5 -2 -23 -4 -40 -1 -16 -4
-47 -6 -67 -2 -21 -6 -38 -9 -38 -6 0 -65 241 -76 310 -4 23 -13 72 -20 110
-31 159 -37 529 -9 660 22 108 26 130 25 135 0 3 7 19 15 35 8 16 15 32 14 35
-1 6 35 100 59 153 l15 33 27 -48 c15 -27 48 -71 74 -99 50 -57 169 -139 186
-129 5 3 10 2 10 -3 0 -16 106 -50 124 -40 10 6 16 5 16 -1 0 -5 17 -8 38 -6
20 2 37 4 37 5 0 1 14 3 30 4 17 2 40 6 52 10 12 4 31 9 42 11 12 2 28 11 37
19 8 9 20 16 26 16 10 0 54 33 117 89 23 20 24 22 6 41 -10 11 -24 20 -31 20
-7 0 -14 3 -16 8 -1 4 -35 29 -75 55 l-72 48 22 27 c37 44 94 99 134 129 21
15 40 30 43 34 3 3 15 12 28 21 67 46 202 197 202 227 0 5 7 17 16 25 9 9 17
22 18 29 1 6 5 17 8 23 4 6 17 36 28 68 37 97 32 185 -13 234 -30 32 -96 70
-130 74 -26 4 -55 30 -477 438 -37 36 -147 142 -245 235 -97 94 -184 183 -192
199 -27 52 -92 113 -141 132 -72 29 -235 25 -319 -7 -15 -6 -30 -10 -33 -10
-7 1 -73 -20 -85 -28 -5 -3 -12 -6 -15 -7 -28 -5 -218 -100 -281 -140 -21 -13
-43 -24 -49 -24 -5 0 -10 -4 -10 -8 0 -5 -16 -16 -36 -25 -19 -10 -40 -22 -47
-27 -7 -6 -61 -44 -122 -86 -60 -42 -113 -81 -117 -88 -4 -6 -8 -7 -8 -1 0 6
-6 3 -13 -5 -7 -9 -40 -36 -74 -62 -34 -25 -59 -48 -56 -52 4 -3 1 -6 -6 -6
-7 0 -18 -6 -25 -12 -7 -7 -41 -38 -75 -68 -71 -62 -88 -77 -227 -207 -55 -50
-115 -106 -134 -123 -39 -35 -169 -123 -185 -126 -5 -2 -32 -12 -60 -23 -46
-18 -82 -32 -95 -36 -3 -1 -25 -5 -50 -9 -25 -5 -54 -10 -65 -13 -49 -11 -256
-9 -330 3 -153 27 -143 27 -173 -4 -15 -15 -54 -59 -87 -96 -33 -37 -69 -78
-80 -90 -11 -13 -45 -51 -75 -85 -30 -34 -76 -85 -102 -113 -27 -28 -48 -55
-48 -60 0 -4 -9 -8 -20 -8 -11 0 -20 4 -20 8 0 5 -17 27 -37 49 -34 36 -139
153 -186 207 -68 77 -127 143 -154 173 -18 19 -33 39 -33 44 0 6 -6 7 -12 2
-7 -4 -22 -8 -33 -9 -11 -2 -33 -5 -50 -9 -96 -21 -262 -29 -299 -14 -79 29
-105 46 -153 96 -28 29 -75 64 -105 78 -47 22 -66 25 -165 24 l-112 -1 -47 44
c-60 55 -162 149 -206 191 -19 17 -63 57 -98 87 -34 30 -70 62 -79 70 -9 9
-41 36 -71 60 -61 50 -60 49 -115 90 -22 16 -44 33 -50 37 -40 31 -187 133
-191 133 -3 0 -20 10 -37 23 -41 29 -129 81 -197 115 -30 15 -57 30 -60 34
-10 13 -258 108 -308 119 -96 20 -213 20 -270 -1z"/>
</g>
</svg>
