<svg xmlns="http://www.w3.org/2000/svg" viewBox="0 0 246 281.22"><defs><style>.cls-1{fill:#a62025;}.cls-2{fill:#b65e26;}.cls-3{fill:#ac5f1e;}.cls-4{fill:#bdac5c;}.cls-5{fill:#bd7026;}.cls-6{fill:#3e130e;}.cls-7{fill:#e9cc8b;}.cls-8{fill:#763d13;}</style></defs><g id="Layer_2" data-name="Layer 2"><g id="Layer_1-2" data-name="Layer 1"><path class="cls-1" d="M230.52,79.06a168,168,0,0,0-7.2,16.18S212.77,124.1,210,166.53c-.28,4.37-.46,8.48-1.1,15.66-1.41,15.67-2.12,23.5-4.44,30.85a73.44,73.44,0,0,1-16.05,27.3,82.54,82.54,0,0,1-33.22,21.23l-8.86-9.6-23.25,17.18Q111.47,260.57,99.86,252L91,261.57a82.54,82.54,0,0,1-33.22-21.23A73.42,73.42,0,0,1,41.72,213c-2.31-7.35-3-15.18-4.43-30.85-.64-7.18-.82-11.29-1.11-15.66C33.45,124.1,22.9,95.24,22.9,95.24a168,168,0,0,0-7.2-16.18A35.65,35.65,0,0,0,31.21,73c2.51-1.79,4.2-2.94,5.53-5.06,5.37-8.55-.64-21.17-3.32-26.8A63.44,63.44,0,0,0,24.56,27.5C36.1,24,48.85,20.68,62.76,17.89a415.15,415.15,0,0,1,60.35-7.58,414.86,414.86,0,0,1,60.34,7.58c13.91,2.79,26.67,6.1,38.21,9.61a63.44,63.44,0,0,0-8.86,13.64c-2.68,5.63-8.69,18.25-3.33,26.8,1.34,2.12,3,3.27,5.54,5.06A35.6,35.6,0,0,0,230.52,79.06Z"/><path class="cls-2" d="M164,228.21c1.27,2.72,2.76,5.57,4.49,8.49a101,101,0,0,0,14.06,18.45l-21.94,11-13.28-5.77L137.52,265c-18.28-5.44-30.52-12.28-38.58-17.83-4.35-5-8.66-5.79-10.31-6-5.51-.65-9.9,2.39-15.78,6.48a59.16,59.16,0,0,0-10.4,9.24c-4-2.41-26.88-16.77-32.45-45.49-1.43-7.38-5-29,3.8-36.06,11.58-9.22,53.35,46,120.73,52.39C158.53,228.09,161.83,228.19,164,228.21Z"/><path class="cls-3" d="M79,228.58a43.7,43.7,0,0,1,18.72,11.07,52.05,52.05,0,0,1,13.62,21.28H92.62a33.4,33.4,0,0,0-9.37-13.62,32.77,32.77,0,0,0-16.17-7.66A33.57,33.57,0,0,0,45,243.9l3.41-6.81,3.4-6.81A43.41,43.41,0,0,1,79,228.58Z"/><path class="cls-4" d="M246,74.69c-.33-5.8-3.74-10.37-6.34-13.17q-1,3.84-1.9,7.68a17.35,17.35,0,0,1-9.52-1.09,14.44,14.44,0,0,1-6.34-5.5c-6.14-9.29.74-23,3.81-29.11a68.33,68.33,0,0,1,10.14-14.82C222.62,14.87,208,11.27,192.09,8.23A500.51,500.51,0,0,0,123,0,500.51,500.51,0,0,0,53.91,8.23c-15.92,3-30.53,6.64-43.74,10.45A68.33,68.33,0,0,1,20.31,33.5c3.07,6.12,10,19.82,3.81,29.11a14.44,14.44,0,0,1-6.34,5.5A17.35,17.35,0,0,1,8.26,69.2q-.95-3.84-1.9-7.68c-2.6,2.8-6,7.37-6.34,13.17-.44,8.12,5.39,14.16,8.24,17.58,10.84,13,12.3,34.48,15.22,77.45.32,4.75.53,9.22,1.27,17,1.61,17,2.41,25.53,5.07,33.51A79.13,79.13,0,0,0,48.2,249.91C61.6,263.56,77.28,270,86.23,273l10.15-10.43L123,281.22l26.62-18.67L159.77,273c8.95-3,24.63-9.42,38-23.07a79.13,79.13,0,0,0,18.38-29.66c2.66-8,3.46-16.48,5.07-33.51.74-7.8.95-12.27,1.27-17,2.92-43,4.38-64.45,15.22-77.45C240.59,88.85,246.42,82.81,246,74.69ZM223.32,95.24S212.77,124.1,210,166.53c-.28,4.37-.46,8.48-1.1,15.66-1.41,15.67-2.12,23.5-4.44,30.85a73.44,73.44,0,0,1-16.05,27.3,82.54,82.54,0,0,1-33.22,21.23l-8.86-9.6-23.25,17.18Q111.47,260.57,99.86,252L91,261.57a82.54,82.54,0,0,1-33.22-21.23A73.42,73.42,0,0,1,41.72,213c-2.31-7.35-3-15.18-4.43-30.85-.64-7.18-.82-11.29-1.11-15.66C33.45,124.1,22.9,95.24,22.9,95.24a168,168,0,0,0-7.2-16.18A35.65,35.65,0,0,0,31.21,73c2.51-1.79,4.2-2.94,5.53-5.06,5.37-8.55-.64-21.17-3.32-26.8A63.44,63.44,0,0,0,24.56,27.5C36.1,24,48.85,20.68,62.76,17.89a415.15,415.15,0,0,1,60.35-7.58,414.86,414.86,0,0,1,60.34,7.58c13.91,2.79,26.67,6.1,38.21,9.61a63.44,63.44,0,0,0-8.86,13.64c-2.68,5.63-8.69,18.25-3.33,26.8,1.34,2.12,3,3.27,5.54,5.06a35.6,35.6,0,0,0,15.51,6.06A168,168,0,0,0,223.32,95.24Z"/><path class="cls-5" d="M124.1,162.86A119.22,119.22,0,0,0,150,202.27a48.42,48.42,0,0,0,15.47-7c4.2-2.89,6.62-5.59,11.47-11,6.42-7.13,10.94-12.15,15-19.95,3.05-5.91,3.09-8.12,6.48-11.48s5.27-3.11,10-7.48a65.51,65.51,0,0,0,7-8c4.8-6.08,5.33-8,8-9,1.73-.67,4.55-1,9,1a6.76,6.76,0,0,1,5,3.5,6.42,6.42,0,0,1-.5,6.48,8.83,8.83,0,0,1,0,4c-.44,1.81-1.35,2.75-2.5,4.49-2,3.09-1.83,4.18-3,6s-3.6,4.16-9,5.49c.34,0,3,.42,4,2.49,1.33,2.65-1.17,5.61-1.5,6-3.17,3.76-9.1,2.57-9.47,2.49-9.88,13.45-19.92,27.91-29.94,43.41C174.57,230.58,164.8,247,156,262.64q-1-5.24-2-10.48a12.74,12.74,0,0,0-6.48,10,12.78,12.78,0,0,1-2-6,12.62,12.62,0,0,1,.5-4.49,21.61,21.61,0,0,1-13.47,2.5,17.59,17.59,0,0,0,8.48-8.48,22.13,22.13,0,0,0-8,4,22.48,22.48,0,0,0-5,5.48l3-7.48a20.52,20.52,0,0,1-9,.5,20.25,20.25,0,0,1-6-2,10.58,10.58,0,0,0,11.47-5.48,8.76,8.76,0,0,1-4.49,2.49,9.35,9.35,0,0,1-7.48-2,25.4,25.4,0,0,0,6.48-1c1.84-.54,2.77-.82,3-1.5.54-1.63-3.2-4.38-6.49-6.48-7.49-4.81-13-6.54-17.46-8.49-11.47-5-18.79-12.9-24-18.45a88.56,88.56,0,0,1-10-13,31,31,0,0,1,4.49,9c.48,1.59.88,3.45,1,4,.53,2.42.82,4.48,1,6-1.39-2.11-2.88-4.28-4.49-6.48-2.51-3.44-5-6.6-7.48-9.48-.24,2.34-.42,4.84-.5,7.48-.08,2.45-.07,4.79,0,7a31.91,31.91,0,0,1-4-7.49,32.3,32.3,0,0,1-2-10,17.84,17.84,0,0,0-1,12,24.27,24.27,0,0,1-6-9,23.68,23.68,0,0,1-1.5-7,8.33,8.33,0,0,0-2.5,8.48,8.43,8.43,0,0,1-6-6.48,36.87,36.87,0,0,0-1.5,21.95,52.06,52.06,0,0,1-10.48-13.47c-1.32-2.46-6.66-12.38-6-20.95,1.74-22,42.88-33.16,49.39-34.93,9.08-2.46,28.9-7.56,45.4,1.5,2.88,1.58,13.31,7.31,12.47,13.47C127.29,160.09,125.6,161.76,124.1,162.86Z"/><path class="cls-6" d="M171.49,120.45a15.42,15.42,0,0,0-8.48.5c-.87.32-7.68,2.92-8,8a6.73,6.73,0,0,0,1.5,4.49c2.64,3.27,7.26,2.54,7.48,2.5a12.89,12.89,0,0,1-3,7,13.47,13.47,0,0,1-1,1,21.24,21.24,0,0,1-11.48-5.49c-1-.92-7.8-7.42-6-14,1.89-6.83,12.08-9.72,19.45-8.48A20,20,0,0,1,171.49,120.45Z"/><path class="cls-7" d="M147.55,130.43a18.48,18.48,0,0,0,2.49,3,23.62,23.62,0,0,0,6,4c1.86,1,2.81,1.49,3.49,1.49,2.64,0,5.06-2.51,6-5a8.13,8.13,0,0,0,.5-3c-1.51,1.16-3.17,2.34-5,3.49-.85.54-1.68,1-2.5,1.5a9.52,9.52,0,0,0,2.5-2.5,9.67,9.67,0,0,0,1.49-3.49,18.58,18.58,0,0,1-7,4c.33-.83.66-1.66,1-2.49a4,4,0,0,0-3,.5,3.43,3.43,0,0,0-1,1c-.17-.67-.34-1.33-.5-2a11.08,11.08,0,0,1-2,0A11.72,11.72,0,0,1,147.55,130.43Z"/><path class="cls-7" d="M165.51,115v5.48l3-1c-.17.66-.33,1.33-.5,2l4.49-.5c-.76.81-1.59,1.65-2.49,2.5-1.2,1.12-2.37,2.11-3.5,3a6.31,6.31,0,0,0,2.5,1,6.23,6.23,0,0,0,2,0,9.13,9.13,0,0,0,4,0,9.87,9.87,0,0,0,6-4.49Z"/><path class="cls-8" d="M171.49,65.08c-.55-1.53-1.45-2.7-2-5.49-1.24-6.44,1.78-9.63,1-13.47-.58-2.82-3.27-6.41-13-9.48-2.53-3.55-6.62-7.94-12.47-9-2.26-.41-3.7-.12-6.48,0a56.3,56.3,0,0,1-17-2,27.17,27.17,0,0,0-11-1.49,28.56,28.56,0,0,0-17.46,8A50.82,50.82,0,0,0,66.73,54.6a20.77,20.77,0,0,1,5-4.49,21.22,21.22,0,0,1,4-2l-12.48,14a20.73,20.73,0,0,0-3,2.5,21.59,21.59,0,0,0-5.49,10q3-3.48,6-7l5.49-3.49A138.39,138.39,0,0,1,51.76,93.51c-2.62,3.95-6,8.52-8,15.47-1.77,6.34-3,13-3,13-.67,3.64-.56,3.8-1,5-1,2.68-2.5,4.45-9.47,10.48-5.62,4.85-7,5.76-9,8.48a28.77,28.77,0,0,0-3.5,6.48q4.37-3.48,9-7,6.58-5,13-9.48a74.24,74.24,0,0,0-17.46,36.92,12.12,12.12,0,0,1,5.49-5,11.83,11.83,0,0,1,5-1,40.76,40.76,0,0,0-4.49,7,41.34,41.34,0,0,0-4,12.47l25.44-16.47a19.22,19.22,0,0,0-1.49,10.48,18.77,18.77,0,0,0,2.49,7,30,30,0,0,1,2-8.49,30.34,30.34,0,0,1,6-9.48q1.24,8,2.5,16c.37-11.48,1-13.95,1.49-14,.68,0,1.07,4.19,3.5,11,.27.77,3.33,9.25,4.49,9,1.39-.34-3.38-12.53,1.49-24a28.28,28.28,0,0,1,8-10.48,42.63,42.63,0,0,0-1.5,36.92c-.52-9.64,2.11-15.2,4.49-18.46,4.71-6.44,11-7.38,15-15a23.73,23.73,0,0,0,2.49-11,33.66,33.66,0,0,0,3.49,7,41.76,41.76,0,0,0,5.49,6.49c2,2.1,5.08,5.31,9,9.48-1.26-2.86-2.82-6.58-4.49-11s-2.11-6-1.5-6.48c1-.84,4.6,1.32,7,4,2.92,3.27,2.78,5.84,4.49,10.47,2.51,6.83,6.54,11.36,12,17.47a85.29,85.29,0,0,0,7,7,20.09,20.09,0,0,1-1.5-11.47,17.48,17.48,0,0,0,1.5,6,17.75,17.75,0,0,0,5,6.49,29.06,29.06,0,0,1-2.5-7.48,29.51,29.51,0,0,1-.5-5.49q1.75,4,3.49,8a37.43,37.43,0,0,0,.5-4,38.27,38.27,0,0,0-.5-9.48c.69,2,1.37,4.2,2,6.49.57,2.06,1.07,4.06,1.5,6a25.64,25.64,0,0,0,1.49-5,26.31,26.31,0,0,0,0-10,16.42,16.42,0,0,1,3,15.46,25.15,25.15,0,0,0,5-12,27,27,0,0,1,.49,4,23,23,0,0,1,0,2.49,29.73,29.73,0,0,0,3.5-13,30.56,30.56,0,0,0-2.5-13,39.69,39.69,0,0,0-6.48-10.48c-14.21-17.72-16.65-18.18-17.46-22.45-.32-1.62-.68-5.27,11-22C163.48,83.75,174.52,73.48,171.49,65.08Z"/><path class="cls-5" d="M162.51,138.91a10.52,10.52,0,0,1-12.47,8c-3.46-.62-5.63-2.71-8-5s-2.53-3.29-5.49-7c-2.62-3.28-3.54-3.78-8-8.48-3.07-3.25-3.11-3.52-8-9-10.49-11.76-11-11.35-12-14-2.68-7.53.42-15.06,1-16.46a22,22,0,0,1,4-6.49c1.15-1.28,1.1-.89,4-3.49,3.38-3,4.24-4.27,7.49-7,1.05-.88,1.93-1.57,2.49-2a14.91,14.91,0,0,1-3-2.5c-1-1.13-4.81-5.14-4-10.47a11.66,11.66,0,0,1,4-7,11.91,11.91,0,0,1,9-3c.9.11,4.44.56,6,3a33.24,33.24,0,0,1,1.5,3c.17.83.33,1.66.5,2.49a21.48,21.48,0,0,1,6,0A23.43,23.43,0,0,1,155,56.1c12.4,6,11.31,5.19,12.47,6,3.1,2.12,11.57,7.91,13,17.46a19.11,19.11,0,0,1,0,5.49c1.45.71,9.59,4.88,12,14a22.54,22.54,0,0,1-1,13.47c-1.33,3.83-3.37,9.71-8,11.48-7.5,2.86-13.14-8.75-24.45-7.49-5.87.66-12.16,4.64-12.47,9-.27,3.73,3.93,7,6.48,9A24.48,24.48,0,0,0,162.51,138.91Z"/><path class="cls-8" d="M129.59,63.08a6.8,6.8,0,0,1,.49-13c.49-.14,3.65-1,5.49,1a4.93,4.93,0,0,1,1,4,12.82,12.82,0,0,0-5,4A12.63,12.63,0,0,0,129.59,63.08Z"/><path class="cls-8" d="M192,113a7.25,7.25,0,0,0,1-6.49,6.2,6.2,0,0,0-2-3c-2.73-2.14-7.45-1.59-8.48.5a4.66,4.66,0,0,0,0,3,4.93,4.93,0,0,0,1,2c1.27,1.47,2.61.91,3.49,2,1.23,1.52-.4,3.84.5,4.49S190.65,114.73,192,113Z"/><path class="cls-8" d="M149.77,82.37a8.78,8.78,0,0,0,4,3.19,15,15,0,0,0,5.58,1.6c1.38.16,3.18.38,3.59-.4.25-.48-.12-1.13-.4-1.6A15.81,15.81,0,0,0,157,79.58c-2.28-1.16-6.82-2.74-8-1.2C148.08,79.58,149.6,82.1,149.77,82.37Z"/><circle class="cls-4" cx="155.83" cy="82.96" r="2.6"/><circle cx="156.16" cy="82.63" r="2.3"/><circle class="cls-4" cx="155.16" cy="81.74" r="1.25"/></g></g></svg>