<svg xmlns="http://www.w3.org/2000/svg" viewBox="0 0 485.3 534.4"><defs><style>.cls-1{fill:#ca7500;}.cls-2{fill:#a62025;}.cls-3{fill:#d9ab0d;}.cls-4{fill:#ca9f00;}.cls-5{fill:#214926;}.cls-6{fill:#02223b;}.cls-7{fill:#363430;}.cls-8{fill:#4d4d4d;}.cls-9{fill:#999;}.cls-10{fill:#fff;}.cls-11{fill:#3e3b26;}.cls-12{fill:#a16b1d;}.cls-13{fill:#946b2d;}.cls-14{fill:#939393;}.cls-15{fill:#767676;}.cls-16{fill:#6c6c6c;}.cls-17{fill:#525554;}.cls-18{fill:#434343;}.cls-19{fill:#b65e26;}.cls-20{fill:#bd7026;}.cls-21{fill:#3e130e;}.cls-22{fill:#e9cc8b;}.cls-23{fill:#763d13;}.cls-24{fill:#bdac5c;}.cls-25{fill:#ac5f1e;}.cls-26{fill:#ca8b00;}</style></defs><g id="Layer_2" data-name="Layer 2"><g id="Layer_1-2" data-name="Layer 1"><path class="cls-1" d="M443.46,103.16c-1.12,1.43-6.77,8.19-16.28,9a34.83,34.83,0,0,1,3.61-12.66,28.25,28.25,0,0,1,2.07-3.46C436.38,98.45,439.93,100.8,443.46,103.16Z"/><path class="cls-2" d="M240.84,94.8q.9,80.51,1.81,161H58.13c39.11-65,47.56-127.28,32.56-157.39-15.11-30.33-38-41.61-38-41.61a71.58,71.58,0,0,0-16.54-5.74Q58,30,79.89,9s0,.07-.06.1A45.08,45.08,0,0,1,97.92,6.15c3.55.19,13.66,1.16,43.42,23.52C157.1,41.51,165,47.42,168.48,51.38c4.57,5.16,9.21,11.55,18.09,14.47,2.68.89,4.69,1.11,12.66,1.81s15.31,1.31,21.71,1.81Z"/><path class="cls-2" d="M242.65,101.22c-.07.07-.13.16-.22.24V101C242.51,101.06,242.58,101.15,242.65,101.22Z"/><path class="cls-1" d="M58.13,112.2c-9.52-.85-15.16-7.61-16.29-9,3.53-2.36,7.08-4.71,10.6-7.08a28.25,28.25,0,0,1,2.07,3.46A35.09,35.09,0,0,1,58.13,112.2Z"/><path class="cls-1" d="M83.81,96A28.26,28.26,0,0,1,72.6,108.58a27.5,27.5,0,0,1-5,2.39,7.59,7.59,0,0,0,3.19-2.39c2.66-3.94-1.76-11.74-5.43-16.28-7.78-9.59-14.67-7.52-23.52-18.09-1.1-1.32-7.68-9.32-5.42-12.66,1-1.45,3.36-1.63,5.42-1.81a21,21,0,0,1,8.81,1.45C54.13,62.69,72.85,74.16,83.81,96Z"/><path class="cls-3" d="M240.84,259.42V512.69a99.92,99.92,0,0,1-21.71-16.28c-5.79-5.73-8.11-9.46-10.85-12.66-11.91-13.93-28.21-13.88-47-19.9-25.8-8.25-42.63-23.49-50.65-30.76-9.69-8.77-25.25-25.6-36.18-54.27a101.16,101.16,0,0,1-10.86,7.24,103.4,103.4,0,0,1-10.85,5.43,136.91,136.91,0,0,1-9.05-19.9c-3.28-9.1-3.79-13.53-5.42-18.1-2.73-7.62-9.36-17.74-27.14-27.13l47-70.55Z"/><path class="cls-4" d="M67.6,111a18.16,18.16,0,0,1-4,1.23,14.67,14.67,0,0,1-5.42,0A21.71,21.71,0,0,0,67.6,111Z"/><path class="cls-5" d="M449.14,51.07a76.67,76.67,0,0,0-18.35,5.74c-2.05.94-31.75,15-41.61,45.22-5,15.36-3,29,1.81,48.85A558.78,558.78,0,0,0,427.18,254l-182.72,1.81V89.37L266.17,64a54.63,54.63,0,0,0,27.13,1.81c18.67-3.77,21.42-15.9,52.47-38C367,12.78,380.59,7.82,394.61,8a59.87,59.87,0,0,1,10.86,1.12s0-.07-.06-.1Q427.28,30,449.14,51.07Z"/><path class="cls-1" d="M443.46,74.21c-8.85,10.57-15.74,8.5-23.52,18.09-3.67,4.54-8.09,12.34-5.43,16.28A7.65,7.65,0,0,0,417.7,111a27.5,27.5,0,0,1-5-2.39A28.26,28.26,0,0,1,401.49,96c11-21.85,29.68-33.32,33.16-34.82a21,21,0,0,1,8.81-1.45c2.06.18,4.45.36,5.42,1.81C451.15,64.89,444.56,72.89,443.46,74.21Z"/><path class="cls-6" d="M477.83,324.55a93.84,93.84,0,0,0-25.33,23.52,95.66,95.66,0,0,0-18.09,48.84L412.7,378.82a125.55,125.55,0,0,1-18.09,34.37C374,440.8,348.55,450,320.44,465.66a379.13,379.13,0,0,0-76,56.08V257.61l182.72-1.8Z"/><path class="cls-4" d="M242.65,101.22c-.07.07-.13.16-.22.24V101C242.51,101.06,242.58,101.15,242.65,101.22Z"/><path class="cls-4" d="M427.18,112.2a14.73,14.73,0,0,1-5.43,0A18.16,18.16,0,0,1,417.7,111,21.73,21.73,0,0,0,427.18,112.2Z"/><path class="cls-4" d="M412.94,207.72c-26-64.64-19.4-92.15-14.47-104.93a65.31,65.31,0,0,1,3-6.78c11-21.85,29.68-33.32,33.16-34.82a21,21,0,0,1,8.81-1.45c2.06.18,4.45.36,5.42,1.81,2.27,3.34-4.32,11.34-5.42,12.66-8.85,10.57-15.74,8.5-23.52,18.09-3.67,4.54-8.09,12.34-5.43,16.28A7.65,7.65,0,0,0,417.7,111a21.73,21.73,0,0,0,9.48,1.23,34.83,34.83,0,0,1,3.61-12.66,28.25,28.25,0,0,1,2.07-3.46c6.26-9.06,15-10.54,21.45-21.87,1.83-3.18,7.11-12.17,3.62-18.09-1.76-3-5.28-4.41-8.79-5a38.38,38.38,0,0,0-9.3-.38c-22.8,1.56-43.65,25.09-52.46,48.85-1.85,4.95-7.1,20.37-3.62,50.65,4.32,37.67,18.34,67.88,36.83,100.19H248.08V95l18.09-20.79a77,77,0,0,0,28.94-3.62c16.48-5.44,20-13.2,54.28-39.8,15.7-12.15,27.19-20,43.41-21.71a63.42,63.42,0,0,1,12.67,0s0-.07-.06-.1a15.72,15.72,0,0,0-3.56-5.32A15,15,0,0,0,392.8,0c-22.39-1.3-59.46,30.39-59.46,30.39-20.43,17.51-24.12,24.91-38,29-12,3.49-23.16,1.91-30.76,0L242.65,84,220.71,59.38c-7.6,1.91-18.75,3.49-30.76,0-13.87-4-17.56-11.44-38-28.95,0,0-37.07-31.69-59.46-30.39a15,15,0,0,0-9,3.62A15.72,15.72,0,0,0,79.89,9s0,.07-.06.1a63.43,63.43,0,0,1,12.67,0c16.22,1.7,27.71,9.56,43.42,21.71,34.28,26.6,37.79,34.36,54.27,39.8a77,77,0,0,0,28.94,3.62L237.22,95V250.38H64.71c18.49-32.31,32.51-62.52,36.83-100.19,3.48-30.28-1.77-45.7-3.62-50.65C89.11,75.78,68.26,52.25,45.46,50.69a38.38,38.38,0,0,0-9.3.38c-3.51.64-7,2.07-8.79,5C23.88,62,29.16,71,31,74.21,37.47,85.54,46.19,87,52.44,96.08a28.25,28.25,0,0,1,2.07,3.46,35.09,35.09,0,0,1,3.62,12.66A21.71,21.71,0,0,0,67.6,111a7.59,7.59,0,0,0,3.19-2.39c2.66-3.94-1.76-11.74-5.43-16.28-7.78-9.59-14.67-7.52-23.52-18.09-1.1-1.32-7.68-9.32-5.42-12.66,1-1.45,3.36-1.63,5.42-1.81a21,21,0,0,1,8.81,1.45c3.48,1.5,22.2,13,33.16,34.82a67.54,67.54,0,0,1,3,6.78c4.92,12.78,11.5,40.29-14.48,104.93C60.12,238.2,38.55,282,0,328.93a114.92,114.92,0,0,1,30.75,30.75,115,115,0,0,1,18.09,45.23l19.9-16.28c16.59,32.31,36.15,49.76,50.66,59.7,35,24,66.59,24.35,97.69,57.89a137.66,137.66,0,0,1,20.13,28.18h10.86a137.66,137.66,0,0,1,20.13-28.18c31.1-33.54,62.65-33.9,97.69-57.89,14.51-9.94,34.07-27.39,50.66-59.7q10,8.13,19.9,16.28a114.64,114.64,0,0,1,48.84-76C446.75,282,425.19,238.2,412.94,207.72ZM210.09,481.25c-14.69-10.15-24.52-12-43.42-19.9-7.76-3.24-32.38-13.64-50.65-28.94-10.77-9-29.06-27.25-41.61-59.7l-19.9,14.47a88.8,88.8,0,0,0-12.67-38,88.42,88.42,0,0,0-23.51-25.33c8.77-12.37,19.41-28.18,30.75-47q4.77-7.95,9.32-15.6H237.22V507.66A116.13,116.13,0,0,0,210.09,481.25ZM443.46,349.19a88.8,88.8,0,0,0-12.67,38l-19.9-14.47c-12.55,32.45-30.84,50.69-41.6,59.7-18.28,15.3-42.9,25.7-50.66,28.94-18.9,7.89-28.73,9.75-43.42,19.9a116.13,116.13,0,0,0-27.13,26.41V261.23H426.9q4.55,7.65,9.32,15.6c11.34,18.85,22,34.66,30.75,47A88.42,88.42,0,0,0,443.46,349.19Z"/><path class="cls-7" d="M143.45,312a13.7,13.7,0,0,0-3.81,5.65,15,15,0,0,0,0,8.61c2,8.19,8.34,13.85,10.44,15.67a78.74,78.74,0,0,0,23.13,13.42c18.94,7.8,38.06,15.67,47,32.08,3.85,7.07.48,5.93,7.46,29.09,1,3.36,3.34,11,0,14.92a11.29,11.29,0,0,1-4.47,3c-2.15.79-3.4.46-5.22.75-3.16.51-5.23,2.42-7.46,4.48-5.33,4.9-7.56,11.43-9,15.66a60,60,0,0,0-3,18.65c-3.59-1.32-7.33-2.81-11.19-4.48-3.4-1.47-6.63-3-9.7-4.47,3.56-6.64,3.27-10.8,2.24-13.43-1-2.47-2.31-3-3.73-6.71-1.85-4.77-.46-6.83-2.24-8.21-2.44-1.9-7.48.11-10.44,2.24-2.71,1.95-3.06,3.58-5.22,6s-5.62,5.08-11.94,6.71a49.4,49.4,0,0,1-9-3.73,50.18,50.18,0,0,1-11.19-8.2c11.41-5.39,13.8-8.53,13.43-10.45s-3.17-2.2-6-6a18.53,18.53,0,0,1-3-6.71c-3.14-10.78-24.59-13.73-38.79-30.58a51.58,51.58,0,0,1-5.22-7.46l-8.95,2.24-3-8.21L63.5,380a8.92,8.92,0,0,1-7.46-.75,8.37,8.37,0,0,1-3.26-4q-.87-3.1-2-6.41c-1-2.89-2-5.63-3-8.21.66.41,8.89,5.31,17,1.34a16.42,16.42,0,0,0,6.88-6.56c-2.32-4.91-4.39-8.95-6-11.93-2.27-4.28-3.06-5.5-4.47-6.72-3.08-2.63-5.8-2.45-10.45-3.73-3.13-.85-7.06-3.05-14.92-7.46-3.57-2-8.18-4.72-13.42-8.2l9-12.68a52.84,52.84,0,0,0,11.93,8.2c5.53,2.78,15.23,7.64,22.7,3.95,1.73-.85,2.62-1.86,7.21-8.26,11-15.36,11.45-18.34,15.55-20.88,6.56-4.07,14.53-2,21.19-.35C128.69,291.82,139.6,306.29,143.45,312Z"/><path class="cls-8" d="M139.86,317.48a22.71,22.71,0,0,0-.05,8.61c1.15,6,4.68,10.7,10.44,15.67,5,4.27,9.88,7.39,23.13,13.42,16.49,7.52,15,5.65,22.9,9.89,4.3,2.3,20.06,11.06,24.09,22.19.2.53.72,2.06,1.27,3.92,1.88,6.29,2.05,9.46,3,14.17,1.76,8.84,4.19,12.8,4.47,20.14a9.09,9.09,0,0,1-1.49,6,8.49,8.49,0,0,1-4.47,3c-2.85-7.17-6.66-10.74-9.7-12.68-4.48-2.85-7.88-2.54-13.43-6a33.08,33.08,0,0,1-8.95-8.21,13,13,0,0,0,1.49,5.22,12.87,12.87,0,0,0,3,3.73A54.25,54.25,0,0,1,168.68,386a30,30,0,0,0,5.22,14.92,57.09,57.09,0,0,1-26.85-39.54,45,45,0,0,0,1.49,23.13,56.35,56.35,0,0,1-14.92-27.61C129.44,337.12,137.56,321.57,139.86,317.48Z"/><path class="cls-8" d="M85.88,290.48l56.69,23.12a36.8,36.8,0,0,1-8.95,7.46c-4,2.34-6.93,3-13.42,5.22A149.3,149.3,0,0,0,106,331.5c-5.33,2.64-11.84,9-15.66,26.11a53.43,53.43,0,0,1-4.48-67.13Z"/><path class="cls-9" d="M85.88,290.48l52.22,21.63a45.2,45.2,0,0,1-8.95,4.47c-10.7,3.93-17,1.78-23.13,3.73-5.55,1.77-12.22,7.33-17.15,23.87a39.48,39.48,0,0,1-9.7-15.66C73.06,309.64,84.21,292.9,85.88,290.48Z"/><path class="cls-10" d="M128.88,261.34a28.36,28.36,0,0,1-5.62,2.05,27.6,27.6,0,0,1-6.63.82c0-.36-.17-3.35-2.18-4.52-2.25-1.32-6.32-.08-8.44,3.91a9.5,9.5,0,0,1,2.07-4.93c3.53-4.18,10.54-3.93,15.1-1.9A14.83,14.83,0,0,1,128.88,261.34Z"/><path class="cls-10" d="M188.8,307.42a12.91,12.91,0,0,1-2.09,4.16c-3.68,4.84-10.18,4.84-11.42,4.85-1.44,0-1-.19-8.88-1.92-6.51-1.42-8.19-1.6-10.17-1.47a13.53,13.53,0,0,0-2.26.31,44.79,44.79,0,0,0-4.36,1.1c-1.33.4-3.05.44-13.76-3.09-3.76-1.24-4.08-1.42-5.22-1.49-3.3-.2-4.77,1.08-8.21,1.49a18.06,18.06,0,0,1-7.46-.74,8.6,8.6,0,0,0,3-.75,8.71,8.71,0,0,0,2.24-1.49,26.95,26.95,0,0,0-10.45,1.49,14.79,14.79,0,0,1,6-6,21.47,21.47,0,0,0-8.21,2.24c-3.72,1.9-6.11,4.65-10.44,11.19-2.73,4.14-6.14,9.64-9.7,16.41a31.1,31.1,0,0,1-6.71-11.19c-4.1-12.19,1-23.5,2.68-27.33a22,22,0,0,1,2.54-4.74c6-8.12,17.3-8.85,23.36-9.24A54.69,54.69,0,0,1,126.38,283c6.82,1.78,9.7,3.88,21.65,9.93,10.42,5.27,12.52,6.73,17.72,8.51a71.72,71.72,0,0,0,11.65,2.94,4,4,0,0,1,.27-2.19,3.16,3.16,0,0,1,.43-.69,80.46,80.46,0,0,1-7.55-3.5c-4.36-2.31-8.08-4.27-11.67-7.72-5.4-5.2-3.42-6.95-8.78-12.84-3.87-4.25-4.9-3.34-14.3-11.14-6-5-5.81-5.39-7.46-5.85l-.14,0a33.41,33.41,0,0,1,16,1.07c.88-.68,2.3-1.56,4.26-2.79a12.51,12.51,0,0,1,4.43-2c3.17-.67,7.39.05,8.05,2.09.35,1.1-.4,2.33-.76,2.93-1.09,1.8-2.36,1.66-3.15,3.09a3.92,3.92,0,0,0-.19,2.9c1.69,1.2,3,2.34,4.08,3.19,4.43,3.7,3,3.67,8.9,9.35,1.21,1.17,2.68,2.54,3.08,4.71.29,1.58-.24,2.19.24,3.58.58,1.67,1.9,2.35,3.73,3.7.93.69-.44-.24,5.36,4.91l3.39,3a32,32,0,0,1,2.56,2.35,2.49,2.49,0,0,1,.6,1.06,4.34,4.34,0,0,1,.16.62A7.17,7.17,0,0,1,188.8,307.42Z"/><path class="cls-7" d="M181.79,302.83l-1.67,1.91c-.81-.1-1.73-.23-2.72-.4a4,4,0,0,1,.27-2.19,3.16,3.16,0,0,1,.43-.69C179.47,302,180.72,302.46,181.79,302.83Z"/><path d="M188.81,307.39c-.34.29-.9.75-1.6,1.3-1.49,1.17-2.44,1.48-2.37,2s.64.6,1,.65a1.54,1.54,0,0,0,1.29-.45l-.75,1.37a1.28,1.28,0,0,1-.82.18,1.46,1.46,0,0,1-1-.65,8.52,8.52,0,0,1-1,.91c-2.63,2-5.82,2-7.91,1.85-6.5-.42-10.19-2.21-17.49-3.37-2.78-.45-3.86-.44-5-.14-2.15.55-3.12,1.7-5.05,1.42-.36-.05-2-.34-2.38-1.4s.73-2.43,1.59-3.1,3-1.84,11.92.75c2.75.79,1.81.69,8.16,2.78a54,54,0,0,0,11.34,1.89,3.59,3.59,0,0,0,2.48-.52,3.75,3.75,0,0,0,1.14-4.4c-.9-1.64-3.18-.88-4.38-2.7a3.49,3.49,0,0,1-.51-1.39,4,4,0,0,1,.27-2.19,3.16,3.16,0,0,1,.43-.69c1.45-1.85,4.92-2.59,7.54-1.34.25.12.49.26.67.37a6.62,6.62,0,0,1,2.55,2.23,4.53,4.53,0,0,1-.05,4.67Z"/><path class="cls-7" d="M177.4,304.34a71.72,71.72,0,0,1-11.65-2.94c-5.2-1.78-7.3-3.24-17.72-8.51-11.95-6.05-14.83-8.15-21.65-9.93a50.2,50.2,0,0,0-17.14-1.72,49.23,49.23,0,0,0-20.63,6.53l-.71.43a55.4,55.4,0,0,1,17.58-16.53,13.72,13.72,0,0,1,0-9c1.32-3.56,4.59-7.32,6.85-6.82.93.21,1.06,1,2.74,1.49,1.49.46,2.19.1,2.93.76s.41,1.26,1,2.22a5.17,5.17,0,0,0,3.37,2.05c3.17.65,5.64-1.79,5.85-2l.14,0c1.65.46,1.47.88,7.46,5.85,9.4,7.8,10.43,6.89,14.3,11.14,5.36,5.89,3.38,7.64,8.78,12.84,3.59,3.45,7.31,5.41,11.67,7.72a80.46,80.46,0,0,0,7.55,3.5,3.16,3.16,0,0,0-.43.69A4,4,0,0,0,177.4,304.34Z"/><path class="cls-7" d="M144.11,261.38a21.94,21.94,0,0,1,2.49-2.08c2.19-1.58,5.58-4,9.48-3.4a8.57,8.57,0,0,1,3.2,1.22,4.92,4.92,0,0,1-1.21,1.64c-1.1,1-1.82.69-3.59,1.8a10.43,10.43,0,0,0-2,1.82,2.81,2.81,0,0,0-.74,1.37,2.54,2.54,0,0,0,.08,1.19Z"/><path d="M137.79,280.4c.17.5.57,1.36,2.6,2.82,3.56,2.57,5.74,2.36,6.25,2.3,1-.13,1.26-.43,1.35-.58.6-1.07-1.19-3.36-2.13-4.35a10.91,10.91,0,0,0-4.38-2.72c-1.67-.66-3-1.17-3.63-.47C137.06,278.25,137.75,280.3,137.79,280.4Z"/><circle class="cls-10" cx="140.31" cy="279.74" r="0.95"/><path d="M118.26,257.49c.71.47.83,1,1.37,1.83,1.55,2.41,3.61,2.84,3.46,3.25-.28.77-7.83,0-8.6-3a2.34,2.34,0,0,1,.57-2.2C115.89,256.61,117.37,256.89,118.26,257.49Z"/><path class="cls-9" d="M139.71,317.13a22.5,22.5,0,0,0-.05,8.61c1.39,7.22,6.1,11.67,10.44,15.66a63.5,63.5,0,0,0,23.12,13.43A30.22,30.22,0,0,1,156,351.64a27.1,27.1,0,0,1-4.47-3,6.76,6.76,0,0,0-.75,3c0,3.57,2.95,7,7.46,8.95a17,17,0,0,1-11.19-3.73,14,14,0,0,1-1.49-1.49,18.72,18.72,0,0,0-3,14.92,32.8,32.8,0,0,1-9.1-13.78c-2.39-7.15-1.48-13.16-.59-19A62.25,62.25,0,0,1,139.71,317.13Z"/><path class="cls-11" d="M352.41,403.17a15.77,15.77,0,0,1,6,1.58,16,16,0,0,1,4.91,3.76,8.45,8.45,0,0,0-.59-5.69,7.37,7.37,0,0,0-.86-1.21,7.5,7.5,0,0,0-3-2l9.77.75c-.38-1.51-.76-3-1.12-4.61-.29-1.28-.57-2.54-.84-3.79a46.56,46.56,0,0,0,7.59-.33,48.56,48.56,0,0,0,6-1.12L376.68,384a41.11,41.11,0,0,0,16.27-.12L386.4,378l10.57-.89L392,370.6l6.77-1.41-4.65-5.66,11.35-5.24-12.23-4,12.44-4.7-11.17-6.15L410,338.19l-17.14-7.74,19-1.5-16.87-8.28,21.94-3.42-17.14-7.74,18.14-3.93-7.63-5.1L428,284.89l-26.31,1.28a129.17,129.17,0,0,0,40-18.19,68.38,68.38,0,0,1-32.81.78A36.62,36.62,0,0,0,423,266.21c13.27-5.27,19.17-16.87,20.73-20.22A79.56,79.56,0,0,1,405,254.68a122.69,122.69,0,0,0,23.23-12.92c8.67-6.15,11.92-10.21,13.74-12.85a43.65,43.65,0,0,0,5.61-11.43A56,56,0,0,1,426,229.85a55,55,0,0,1-9.75,2,62.18,62.18,0,0,0,17.25-14.51c3.78-4.59,10.94-13.31,12.29-26.4a43.18,43.18,0,0,0-1.48-16.26l-27.66,37.09c0-1.81,0-3.61,0-5.42a44.61,44.61,0,0,0,5.35-9.54c7.84-19.24-.52-38.4-3.31-44.18a101.31,101.31,0,0,1-6.55,31.24,100.27,100.27,0,0,1-8,16.33c-.11-2.21-.29-4.57-.59-7s-.7-5-1.14-7.31q-7.23,13.33-14.45,26.69a49.06,49.06,0,0,0-2-52.34,111.57,111.57,0,0,1-8.34,45.9l-1.91-1.61c.22-5.69.22-10.5.16-14.11-.11-7.79-.54-12.7-.64-13.82-.55-6.13-.82-9.19-1.71-11.66-1-2.83-3.49-7.77-10.13-12.4,2.05,15.44,2.53,37.47-7.15,60-7,16.15-10.51,12.54-19.85,30.8-14.92,29.16-9.69,45.75-26.48,87-2.57,6.31-4.92,11.34-6.41,14.42Z"/><path d="M238,408.05a5.63,5.63,0,0,0-2.31,4.68,5.88,5.88,0,0,1-1.38-4.69,5.57,5.57,0,0,1,1.4-2.68c1.73-1.81,4.77-2.23,7.78-1.28-.43,1.1-.87,2.19-1.31,3.29A5.36,5.36,0,0,0,238,408.05Z"/><path d="M241.62,415.28a5.63,5.63,0,0,0-1.39,5A5.87,5.87,0,0,1,238,416a5.61,5.61,0,0,1,.88-2.9c1.36-2.09,4.26-3.08,7.4-2.7-.22,1.16-.44,2.31-.67,3.47A5.38,5.38,0,0,0,241.62,415.28Z"/><path class="cls-12" d="M265.76,430.44a3.44,3.44,0,0,1-3.32.88c-1.14-.51-1.43-2-1.7-3.1a22.48,22.48,0,0,0-4.59-9c-2.61-2.81-6.69-3.85-8.69-4.36-1.83-.47-4.26-.83-6.07-2.83a2.82,2.82,0,0,1-1-2,2.06,2.06,0,0,1,.52-1.21,8,8,0,0,1-2.75-2.19c-.62-.8-1.38-1.76-1.18-2.8.47-2.39,5.62-3,6.72-3.1,2.51-.29,4.68-.53,6.47,1a6.72,6.72,0,0,1,2.1,5.2,3.39,3.39,0,0,1,.78.69c.69.81.41,1.23,1.18,2.79a11.41,11.41,0,0,0,3.8,4.32c2.86,1.8,7.49,1,11.53-1.71l1.79,1.74c-3,1.91-6.36,4.46-5.85,6.42.12.45.34.51.75,1.14C267.76,424.63,267.84,428.6,265.76,430.44Z"/><path class="cls-11" d="M289.67,385.34c-2.61,9.9-9.39,16.15-13.63,20.21a57.37,57.37,0,0,1-14.22,10l4.58.57c-.16,1.07-.31,2.15-.47,3.23,1.14.2,15.92,2.55,25.79-8.14a26.6,26.6,0,0,0,6.79-21.31c-.85-6-4.27-12.44-6.29-12.09C290.78,378,290.74,381.3,289.67,385.34Z"/><path class="cls-13" d="M273.68,336.09c-2-.58-7.76-2.21-13.1.8a12.17,12.17,0,0,0-4.62,4.32c-2.59,4.35-1.88,10.38,1.45,15.59a18.42,18.42,0,0,1,7.37-9,17.9,17.9,0,0,0,21.83-1.33C285.52,344.6,281.5,338.32,273.68,336.09Z"/><path d="M274.08,351.07a36.53,36.53,0,0,1,7.08,8.33c3.14,5.09,3.27,8.17,6.08,19.68,3.7,15.14,5,16.14,4.12,20.65-1,5.09-3.68,8.73-7.1,13.41a60,60,0,0,1-10.78,11.27,11.51,11.51,0,0,1,5.95,9.08c3.61-3.06,13.84-10.85,27.84-10.46a37.19,37.19,0,0,1,10.22,1.74,59.32,59.32,0,0,1,6.73,5.32c13.36,12.23,11.12,21.51,22.15,31.85,7.34,6.88,15.83,9.81,21.27,11.69a46.83,46.83,0,0,0,15,3.13A42.85,42.85,0,0,0,400,473.51a49.68,49.68,0,0,1-4.41-3.27,52.48,52.48,0,0,1-4.11-3.79A137.86,137.86,0,0,1,356.21,427a135.42,135.42,0,0,1-9.84-20.47l6.55-.4q-1.21-2.12-2.45-4.23a15.75,15.75,0,0,1,5.86,2A16,16,0,0,1,361,408a8.43,8.43,0,0,0-.18-5.72A7.17,7.17,0,0,0,360,401a7.36,7.36,0,0,0-2.8-2.22l9.69,1.44c-.28-1.53-.54-3.09-.79-4.67-.21-1.3-.4-2.58-.57-3.85a46.78,46.78,0,0,0,13.62-.49L376,384.47a41.05,41.05,0,0,0,16.25,1l-6.12-6.37,10.61-.14-4.46-6.81,6.85-.92-4.24-6,11.7-4.41L394.71,356l12.74-3.81-10.7-6.93,15.76-4.16L396,332.2l19-.14-16.25-9.47,22.13-1.85-16.55-8.93,18.38-2.64-7.25-5.62,18.85-14.29L408,288.67a129.41,129.41,0,0,0,41.2-15.31,69.73,69.73,0,0,1-24.75.32,68.1,68.1,0,0,1-8-1.87,36.74,36.74,0,0,0,14.24-1.54c13.61-4.31,20.32-15.47,22.11-18.7a79.5,79.5,0,0,1-39.24,5.92,121.83,121.83,0,0,0,24.09-11.24c9.09-5.52,12.62-9.34,14.62-11.84a43.41,43.41,0,0,0,6.41-11,56.26,56.26,0,0,1-22.43,10.8,55,55,0,0,1-9.87,1.27,62.23,62.23,0,0,0,18.24-13.24c4.09-4.32,11.85-12.51,14.12-25.46a43.06,43.06,0,0,0-.31-16.33l-30.23,35c.11-1.8.23-3.61.34-5.41a43.67,43.67,0,0,0,6-9.13c9.18-18.64,2.21-38.35-.16-44.31a100.58,100.58,0,0,1-17.91,46.42c.05-2.22,0-4.58-.09-7.07s-.34-5.08-.62-7.38L399.4,214.2a49.06,49.06,0,0,0,1.71-52.35A111.63,111.63,0,0,1,389.53,207l-1.79-1.74c.62-5.66,1-10.45,1.17-14.06.43-7.78.36-12.71.34-13.84-.11-6.15-.17-9.22-.89-11.74-.82-2.9-2.92-8-9.22-13.09,1,15.54-.13,37.55-11.39,59.34-8.07,15.61-11.37,11.76-22,29.31-16.95,28-12.91,45-32.59,84.89-3,6.12-5.71,11-7.41,13.93l-10.66-3.4,5.28-1.83a103.86,103.86,0,0,1-12.83-3.27c-7.76-2.52-11-4.61-15-3.13-2.2.8-4.86,2.74-5.24,5.37-.57,4,4.43,7.41,5.2,7.94,4.47,3.07,8.67,2.31,9,3.84C281.7,346.5,280.4,348.12,274.08,351.07Z"/><path d="M251.19,428.75a5.64,5.64,0,0,0,2.14,4.76,5.89,5.89,0,0,1-4.5-1.92,5.53,5.53,0,0,1-1.18-2.79c-.29-2.49,1.31-5.1,4-6.82.56,1,1.13,2.07,1.7,3.1A5.42,5.42,0,0,0,251.19,428.75Z"/><path d="M245.4,424.65a5.68,5.68,0,0,0,1.31,5.06,5.91,5.91,0,0,1-4.11-2.66,5.57,5.57,0,0,1-.69-2.95c.14-2.5,2.16-4.8,5.07-6l1.15,3.34A5.42,5.42,0,0,0,245.4,424.65Z"/><path d="M242.31,421.12a5.63,5.63,0,0,0-2.3,4.68,5.88,5.88,0,0,1-1.38-4.69,5.63,5.63,0,0,1,1.4-2.69c1.73-1.8,4.77-2.23,7.78-1.27-.44,1.09-.87,2.19-1.31,3.28A5.41,5.41,0,0,0,242.31,421.12Z"/><path d="M260.8,448.6a5.67,5.67,0,0,1-5.2.49,5.9,5.9,0,0,0,3.89,3,5.59,5.59,0,0,0,3-.35c2.3-1,3.79-3.65,4-6.81l-3.54.05A5.35,5.35,0,0,1,260.8,448.6Z"/><path class="cls-13" d="M270.05,446.36c-1.71,2.16-5.11,1.86-5.28,1.84a6.84,6.84,0,0,1-4.72-2.75,8.85,8.85,0,0,0,3.58-4.93c.68-2.72-.39-4.94-1.45-7.16a17.76,17.76,0,0,0-8.43-8.42,17,17,0,0,0-4.81-1.39,7,7,0,0,1,.37-1.88,3.41,3.41,0,0,1-1.46-.25,11.35,11.35,0,0,1-1-.61c-1-.65-1.67-1.12-1.8-1.75-.17-.91.91-1.82,1.23-2.1a7.1,7.1,0,0,1,6.85-.92,7.49,7.49,0,0,1,2.47,1.57,5.26,5.26,0,0,1,2.68.82c1.43,1,1,2,2.45,4.23.48.72,3.13,4.54,7.55,5.11a10.6,10.6,0,0,0,7.77-2.5l5,2.22a97.63,97.63,0,0,0-7.37,9.05,14.62,14.62,0,0,0-2.13,3.67C270.37,443.34,271.34,444.73,270.05,446.36Z"/><path class="cls-11" d="M258.75,342.22a2.29,2.29,0,0,0-2.16,1.25c-.32.68-.32,1.61,0,1.72S257.33,344.85,258.75,342.22Z"/><path class="cls-11" d="M274,336.34a5.65,5.65,0,0,0,4.9,3.11c1.74,0,3.64-.86,3.54-1.52S281,336.72,274,336.34Z"/><path d="M280.4,92.13c-5.73,4-7.41,4.4-13.06,8.63-6.68,5-10,8.73-12.45,12.44-3.18,4.86-3.38,7.48-3.11,9.33a10.48,10.48,0,0,0,3.2,6,11.22,11.22,0,0,0,9.41,3c4.78-.87,9.33-5.59,10.62-6.94s2.5-2.9,4.77-3.57a8.72,8.72,0,0,1,4.67,0,7.16,7.16,0,0,0-6.23-1.56,2.24,2.24,0,0,0,0-1.55,2.91,2.91,0,0,0-3.11-1.56,2.9,2.9,0,0,1,1.56,1.56,2.81,2.81,0,0,1,0,1.55c-.2.72-7.7,13.14-16.66,10.14-2.87-1-6-3.55-6.67-7-.74-3.75,1.68-7,4.66-10.89a48.51,48.51,0,0,1,7.78-7.77c4.54-3.81,7.29-5.41,14.9-10.73,3.5-2.45,6.3-4.48,8-5.75l3.68-5A109,109,0,0,1,280.4,92.13Z"/><path class="cls-14" d="M351.13,90.73a24.38,24.38,0,0,0-2-10c-.44-1-6.27-13.75-18.07-14-7.37-.19-12.61,4.6-14.05,6a12.84,12.84,0,0,1,0,8c-2.08,5.69-8.64,8-20.07,12-9.34,3.3-8.14,1.4-14.06,4-3.32,1.47-7,3.53-10,2a4,4,0,0,1-2-2c-.85-2.26,1.35-5,4-8,4.73-5.32,7-6.91,10-10,7.78-8,6.55-11.81,12.05-14.05a34,34,0,0,1,10-2,37.9,37.9,0,0,1,4,0,29.58,29.58,0,0,1,8-4c11.17-3.57,24.32-.16,32.12,8,2.38,2.5,6,6.32,6,12C357.15,85.51,352,90,351.13,90.73Z"/><path class="cls-15" d="M363.56,231.46c4.65-8.53,5.52-16.36,2-20.08-2-2.07-5.45-3-12.05-2-23.76,3.72-28.52,24.06-46.17,26.1-13.55,1.57-28-8.41-34.13-20.07-8.69-16.42-.35-34.92,2-40.15,7.16-15.89,17.45-21,58.22-58.22A52.43,52.43,0,0,0,347.5,97a39.51,39.51,0,0,0,2-22.08,38.31,38.31,0,0,0-6-14.05c2.85,1.24,12.53,5.89,16.06,16.06,2.26,6.49,1.13,12.56,0,18.06a54.61,54.61,0,0,1-6,16.06c-12.55,22-33,32.1-46.17,58.22-2.21,4.4-7.87,16.52-4,28.11,1.5,4.5,3.35,5.66,4,6,4.63,2.5,10.45-2.18,24.09-10,19.11-11,25.06-11.82,28.1-12,4-.29,11.35-.72,18.07,4a24.28,24.28,0,0,1,10,18.07C388.26,215.12,378.6,227.26,363.56,231.46Z"/><path class="cls-16" d="M363.17,231.25c4.66-8.52,5.53-16.35,2-20.07-2-2.08-5.45-3-12-2-23.77,3.72-28.52,24.06-46.18,26.1-13.55,1.57-28-8.42-34.13-20.08-8.35-15.79-1.3-32.42,2-40.15,7.69-17.94,21.86-27,27.36-30.15-1.29,5.21-11.54,48,1.71,54.81,5.67,2.92,14.87-1.15,27.14-6.59,14.08-6.23,17.45-11.27,28.11-12,4-.29,11.35-.72,18.07,4a24.26,24.26,0,0,1,10,18.07C387.88,214.92,378.22,227.06,363.17,231.25Z"/><path class="cls-17" d="M343.1,213.19c-11-3.09-21.76.61-26.1,8a19.83,19.83,0,0,0-2,14.05,17.67,17.67,0,0,0,4,8c1.88,2.08,5.39,4.84,14.05,6a59.31,59.31,0,0,0,30.11-4c3.69-1.85,25.1-11.63,28.11-32.12.5-3.41,2.24-15.25-6-24.09-7.46-8-18-8.06-20.08-8,.9.76,14.22,12.37,12.05,28.1-.15,1.05-2.21,14.61-12.05,20.08l-.1.06c-1.29.7-12.18,6.49-20,1.94a10.24,10.24,0,0,1-4-4C337.79,221.09,342.77,213.67,343.1,213.19Z"/><path class="cls-18" d="M300.94,223.22c-.87,1.15-5.69,7.72-4,16.07,1.32,6.58,5.89,10.3,8,12,7.46,6.08,16.16,6,20.07,6,4.11,0,12.56,0,20.08-6,2-1.63,10.64-9.09,10-20.08S345,208,333.06,209.17c-8.45.81-16,8.13-18.07,18.07,10.49-6.19,20.7-5,24.09,0,2.72,4,1,10.34-2,14-7.18,9-27,8.66-34.13-2C298.86,233.17,300.34,225.7,300.94,223.22Z"/><path d="M273.56,97.64c0,.24,1.69.32,3.11,0a7.22,7.22,0,0,0,3.11-1.55C274.69,97,273.53,97.44,273.56,97.64Z"/><path d="M272.24,96.19c-.21,0-.35-.87-.23-1.54a2.62,2.62,0,0,1,1.31-1.77C272.75,95.56,272.43,96.2,272.24,96.19Z"/><path d="M287.56,91.42c.12.18.42.08,1.55,0,1.72-.11,2.05.06,3.11,0a7.43,7.43,0,0,0,4.67-1.55c.79-.7,2-2.21,1.56-3.11-.59-1.19-3.86-1-6.23,0C289.23,88,287.16,90.84,287.56,91.42Z"/><circle class="cls-10" cx="295.25" cy="87.91" r="0.46"/><path d="M279.89,84.83c-.06-.08,0-.2.26-.69.33-.74.31-.92.51-1.38a3.55,3.55,0,0,1,1.47-1.82c.44-.23,1.31-.52,1.64-.18s-.2,1.88-1,2.77C281.68,84.65,280.08,85.1,279.89,84.83Z"/><path class="cls-19" d="M201.83,226.9a34.08,34.08,0,0,0,3.94,7.43c9.78,13.94,27.31,16.15,32.29,16.61l-76.84-.75a146.82,146.82,0,0,1-16.41-6.71c-12-5.77-17.69-10.66-23.12-8.21-1.62.74-1.07,1.14-6,5.23-3.21,2.68-6.76,5.64-10.44,7.46-2.69,1.32-8.09,3.33-16.41,2.23H65c2.7-4.82,6.63-12,11.19-20.88s7-13.59,8.21-17.16c6.42-18.5-1.21-28,3.33-31.6,10.15-8.08,46.76,40.36,105.81,45.91C197,226.79,199.93,226.88,201.83,226.9Z"/><path class="cls-20" d="M166.86,169.62a104.42,104.42,0,0,0,22.73,34.54A42.49,42.49,0,0,0,203.15,198c3.68-2.53,5.8-4.89,10-9.62,5.63-6.25,9.59-10.65,13.12-17.49,2.67-5.17,2.71-7.11,5.68-10.05s4.62-2.73,8.75-6.56a57.42,57.42,0,0,0,6.12-7c4.21-5.32,4.68-7,7-7.87,1.52-.58,4-.91,7.87.88a5.88,5.88,0,0,1,4.38,3.06,5.61,5.61,0,0,1-.44,5.68,7.69,7.69,0,0,1,0,3.5c-.39,1.58-1.18,2.41-2.19,3.93-1.77,2.71-1.61,3.66-2.62,5.25s-3.16,3.64-7.87,4.81a4.73,4.73,0,0,1,3.5,2.19c1.16,2.32-1,4.91-1.31,5.24-2.79,3.3-8,2.26-8.31,2.19-8.66,11.78-17.45,24.46-26.23,38-9.55,14.75-18.11,29.09-25.8,42.85-.58-3.07-1.17-6.13-1.75-9.19a11.16,11.16,0,0,0-5.68,8.75,11.11,11.11,0,0,1-1.32-9.18,19,19,0,0,1-6.55,2.18,18.62,18.62,0,0,1-5.25,0,15.36,15.36,0,0,0,7.43-7.43,19.58,19.58,0,0,0-11.37,8.31L173,244a17.88,17.88,0,0,1-13.12-1.31,9.32,9.32,0,0,0,10.06-4.81A7.73,7.73,0,0,1,166,240a8.15,8.15,0,0,1-6.56-1.75,21.85,21.85,0,0,0,5.69-.87c1.61-.47,2.42-.72,2.62-1.31.48-1.43-2.8-3.84-5.68-5.69-6.57-4.2-11.43-5.73-15.31-7.43-10.05-4.41-16.46-11.31-21-16.18A77.59,77.59,0,0,1,117,195.42a27.25,27.25,0,0,1,3.94,7.87c.42,1.38.77,3,.87,3.49.46,2.13.72,3.94.88,5.25-1.22-1.85-2.53-3.75-3.94-5.68-2.2-3-4.4-5.78-6.56-8.31-.21,2.05-.36,4.24-.43,6.56q-.1,3.22,0,6.12a27.41,27.41,0,0,1-3.5-6.56,28,28,0,0,1-1.75-8.74,15.53,15.53,0,0,0-1.31,4.81,15.74,15.74,0,0,0,.43,5.68A21.35,21.35,0,0,1,100.4,198a21,21,0,0,1-1.31-6.12,7.3,7.3,0,0,0-2.19,7.43,7.4,7.4,0,0,1-5.25-5.68,32.5,32.5,0,0,0-1.31,19.24,45.31,45.31,0,0,1-9.18-11.81c-1.16-2.16-5.84-10.85-5.25-18.36,1.53-19.28,37.59-29.06,43.29-30.61,8-2.16,25.33-6.63,39.79,1.31,2.52,1.39,11.66,6.41,10.93,11.81A7,7,0,0,1,166.86,169.62Z"/><path class="cls-21" d="M208.39,132.46a13.36,13.36,0,0,0-7.43.43c-.76.28-6.73,2.56-7,7a5.93,5.93,0,0,0,1.32,3.93c2.32,2.87,6.36,2.22,6.55,2.19a11.32,11.32,0,0,1-2.62,6.12c-.29.32-.58.61-.87.88a18.73,18.73,0,0,1-10.06-4.81c-.85-.82-6.84-6.51-5.25-12.25,1.66-6,10.59-8.52,17.06-7.43A17.54,17.54,0,0,1,208.39,132.46Z"/><path class="cls-22" d="M187.41,141.2a16.28,16.28,0,0,0,2.18,2.62,20.62,20.62,0,0,0,5.25,3.5c1.63.87,2.46,1.31,3.06,1.31,2.31,0,4.43-2.2,5.25-4.37a7,7,0,0,0,.43-2.62c-1.31,1-2.77,2.05-4.37,3.06-.74.47-1.47.9-2.19,1.31a8.49,8.49,0,0,0,3.5-5.25,16.32,16.32,0,0,1-3.06,2.19,15.81,15.81,0,0,1-3.06,1.31c.29-.73.58-1.46.88-2.19a3.56,3.56,0,0,0-2.63.44,3.11,3.11,0,0,0-.87.88l-.44-1.75a11.31,11.31,0,0,1-1.75,0A10.42,10.42,0,0,1,187.41,141.2Z"/><path class="cls-22" d="M203.15,127.65v4.81l2.62-.88-.44,1.75,3.94-.44c-.67.71-1.4,1.45-2.19,2.19-1.05,1-2.08,1.85-3.06,2.62a5.48,5.48,0,0,0,2.19.88,5.62,5.62,0,0,0,1.75,0,8.05,8.05,0,0,0,3.49,0,8.64,8.64,0,0,0,5.25-3.94Z"/><path class="cls-23" d="M208.39,83.92a21.81,21.81,0,0,1-1.75-4.81c-1.08-5.64,1.56-8.43.88-11.8-.5-2.47-2.87-5.62-11.37-8.31-2.22-3.11-5.8-7-10.93-7.87a23.9,23.9,0,0,0-5.68,0,49.32,49.32,0,0,1-14.87-1.75,23.84,23.84,0,0,0-9.62-1.31,25,25,0,0,0-15.3,7,44.6,44.6,0,0,0-23.18,19.67,18.43,18.43,0,0,1,7.87-5.68L113.51,81.3a17.08,17.08,0,0,0-2.62,2.19,18.81,18.81,0,0,0-4.81,8.74l5.25-6.12,4.81-3.06a121.87,121.87,0,0,1-12.68,25.8c-2.3,3.45-5.3,7.46-7,13.55-1.55,5.55-2.62,11.37-2.62,11.37-.59,3.18-.49,3.33-.88,4.37-.86,2.35-2.19,3.9-8.3,9.18-4.93,4.25-6.16,5.05-7.87,7.43a24.9,24.9,0,0,0-3.06,5.69c2.54-2,5.17-4.08,7.87-6.12Q87.36,149.94,93,146a64.69,64.69,0,0,0-7,9.62,65.93,65.93,0,0,0-8.31,22.73A10.64,10.64,0,0,1,82.47,174a10.26,10.26,0,0,1,4.37-.87,35.71,35.71,0,0,0-3.93,6.12,36.29,36.29,0,0,0-3.5,10.93l22.3-14.43a16.78,16.78,0,0,0-1.31,9.18,16.42,16.42,0,0,0,2.18,6.12,26.42,26.42,0,0,1,7-15.74l2.19,14c.32-10.07.86-12.23,1.31-12.25s.93,3.67,3.06,9.62c.24.68,2.92,8.12,3.93,7.87,1.22-.29-3-11,1.31-21a24.89,24.89,0,0,1,7-9.18,37.37,37.37,0,0,0-1.31,32.36c-.46-8.45,1.85-13.33,3.93-16.18,4.13-5.64,9.69-6.47,13.12-13.12a20.72,20.72,0,0,0,2.19-9.62,29,29,0,0,0,3.06,6.13,36.18,36.18,0,0,0,4.81,5.68c1.77,1.84,4.45,4.65,7.87,8.31-1.11-2.51-2.48-5.76-3.94-9.62s-1.85-5.25-1.31-5.69c.9-.73,4,1.16,6.12,3.5,2.57,2.87,2.44,5.12,3.94,9.18,2.2,6,5.73,9.95,10.49,15.31a74.08,74.08,0,0,0,6.12,6.12,17.44,17.44,0,0,1-1.31-4.37,17.8,17.8,0,0,1,0-5.69,15.41,15.41,0,0,0,5.68,10.93,25.7,25.7,0,0,1-2.18-6.56,25.07,25.07,0,0,1-.44-4.81l3.06,7a34.43,34.43,0,0,0,.44-3.5,33.46,33.46,0,0,0-.44-8.3c.61,1.78,1.19,3.68,1.75,5.68q.75,2.71,1.31,5.25a23,23,0,0,0,1.31-13.12,14.45,14.45,0,0,1,2.63,13.55,22,22,0,0,0,4.37-10.49,23.65,23.65,0,0,1,.44,3.5c0,.78,0,1.51,0,2.18a26.29,26.29,0,0,0,3.06-11.36A26.92,26.92,0,0,0,201,165.25a34.51,34.51,0,0,0-5.68-9.18c-12.46-15.54-14.59-15.94-15.31-19.68-.27-1.42-.59-4.62,9.62-19.24C201.37,100.29,211.05,91.29,208.39,83.92Z"/><path class="cls-20" d="M200.52,148.63a9.57,9.57,0,0,1-3.93,5.69,9.67,9.67,0,0,1-7,1.31c-3-.55-4.93-2.38-7-4.37s-2.22-2.88-4.81-6.12c-2.3-2.88-3.1-3.32-7-7.44-2.69-2.85-2.72-3.08-7-7.87-9.19-10.3-9.68-9.94-10.5-12.24-2.35-6.6.37-13.2.88-14.43a19.09,19.09,0,0,1,3.49-5.68c1-1.12,1-.79,3.5-3.06,3-2.66,3.72-3.74,6.56-6.12.92-.78,1.7-1.38,2.19-1.75a13.44,13.44,0,0,1-2.63-2.19c-.92-1-4.21-4.51-3.49-9.18a10.22,10.22,0,0,1,3.49-6.12,10.43,10.43,0,0,1,7.87-2.63c.79.1,3.9.49,5.25,2.63.47.74,1.31,2.62,1.31,2.62.15.73.29,1.46.44,2.19a18.52,18.52,0,0,1,5.25,0A20.75,20.75,0,0,1,194,76.05c10.87,5.29,9.92,4.56,10.93,5.25,2.72,1.85,10.15,6.93,11.37,15.3a16.59,16.59,0,0,1,0,4.81c1.27.62,8.41,4.27,10.5,12.24a19.79,19.79,0,0,1-.88,11.81c-1.16,3.36-2.95,8.51-7,10.06-6.57,2.51-11.52-7.67-21.43-6.56-5.14.57-10.66,4.06-10.93,7.87-.23,3.26,3.44,6.12,5.69,7.87A21.52,21.52,0,0,0,200.52,148.63Z"/><path class="cls-23" d="M171.67,82.17a6,6,0,0,1,.43-11.36c.43-.13,3.2-.92,4.81.87a4.35,4.35,0,0,1,.88,3.5,11.35,11.35,0,0,0-4.38,3.5A11,11,0,0,0,171.67,82.17Z"/><path class="cls-23" d="M226.32,125.9a6.34,6.34,0,0,0,.87-5.69,5.39,5.39,0,0,0-1.75-2.62c-2.39-1.88-6.53-1.39-7.43.44a4.09,4.09,0,0,0,0,2.62,4.39,4.39,0,0,0,.88,1.75c1.11,1.29,2.28.79,3.06,1.75,1.08,1.33-.35,3.36.43,3.93S225.18,127.44,226.32,125.9Z"/><path class="cls-23" d="M189.35,99.08a7.81,7.81,0,0,0,3.5,2.8,13.19,13.19,0,0,0,4.89,1.39c1.21.15,2.79.34,3.15-.34.22-.42-.1-1-.35-1.4a13.83,13.83,0,0,0-4.9-4.89c-2-1-6-2.41-7-1C187.87,96.63,189.21,98.84,189.35,99.08Z"/><circle class="cls-24" cx="194.67" cy="99.59" r="2.28"/><circle cx="194.95" cy="99.31" r="2.02"/><circle class="cls-24" cx="194.08" cy="98.53" r="1.1"/><path class="cls-25" d="M103,221.85a38.4,38.4,0,0,1,16.41,9.69,45.74,45.74,0,0,1,11.93,18.65H115A29,29,0,0,0,92.6,231.54a29.49,29.49,0,0,0-19.4,3.73l3-6,3-6A38,38,0,0,1,103,221.85Z"/><path class="cls-26" d="M294.22,289.16c-1.37-3.43-6.37-16.57-7.33-41.85-.74-19.53,1.95-25.16,3.95-28.48a31.5,31.5,0,0,1,3.94-5.23l-3.94-7a154.47,154.47,0,0,1-96.9-.07l-3.94,7a30.66,30.66,0,0,1,3.94,5.23c2.43,4.06,4.65,9.89,3.94,28.48-1,25.28-6,38.41-7.32,41.85-.87,2.19-1.67,4-2.25,5.23l5.63,9.89h.13c1.37-.53,3.25-1.23,5.5-2l1.13-.36c17.48-5.48,41.83-5.44,41.83-5.44s24.12.05,41.55,5.51l1.12.36c2.26.74,4.13,1.44,5.5,2h.14q2.81-4.95,5.63-9.89C295.89,293.14,295.08,291.35,294.22,289.16Z"/><path d="M208.85,264.26a11.43,11.43,0,0,1,4.44-6.34c1.81-1.16,2.64-.76,9.52-1.29,3.6-.27,10.72-.84,14.51,0a13.24,13.24,0,0,1,2,.63,18.89,18.89,0,0,1,3.59,1.9,11.91,11.91,0,0,1,3.58-1.9,13.49,13.49,0,0,1,4.3-.64,98,98,0,0,1,10,.64c6.07.57,9.11.87,12.19-.64.81-.39,5.07-2.58,5-5.69a4,4,0,0,0-1.91-3.16,4.59,4.59,0,0,0-5.2.61,3.26,3.26,0,0,1,3.94.65c.93,1.26.06,3,0,3.17-.58,1.15-1.75,1.75-3.22,2.52a7.53,7.53,0,0,1-1.12.52c-1.76.6-3.86.31-9.86.23s-7.8.15-10.53-.75a27.58,27.58,0,0,1-4.31-1.9,23.48,23.48,0,0,1-2.86-1.9,11.86,11.86,0,0,1-2.87,1.9c-2,.93-3.9,1.15-7.17,1.27-.92,0-1.73.05-2.46.05-2.46,0-4.26,0-4.71-.05-9.43-.3-14.14-.45-16.19,1.92C208.78,256.83,207.43,259,208.85,264.26Z"/><path d="M227.07,285.81a3,3,0,0,0,1.77,1.27,2.85,2.85,0,0,0,2.36-.64,3.2,3.2,0,0,1-3.54,2.54,9.7,9.7,0,0,1-4.72-1.27A6.92,6.92,0,0,1,218.8,289a4.67,4.67,0,0,1-2.36-.64,4.87,4.87,0,0,1-1.77-1.9,3.41,3.41,0,0,0,3,.64,3.47,3.47,0,0,0,1.77-1.27v-59a3.3,3.3,0,0,0-5.9-.64,6,6,0,0,1,2.36-3.8c2.05-1.34,5-.89,7.09,1.27a8.28,8.28,0,0,1,10.63,0,5.72,5.72,0,0,0-4.14.63,6.29,6.29,0,0,0-2.36,2.54Z"/><path d="M258.61,285.59a3,3,0,0,1-1.77,1.27,2.85,2.85,0,0,1-2.36-.64,3.2,3.2,0,0,0,3.54,2.54,9.67,9.67,0,0,0,4.72-1.27,6.92,6.92,0,0,0,4.14,1.27,4.67,4.67,0,0,0,2.36-.64,4.87,4.87,0,0,0,1.77-1.9,3.41,3.41,0,0,1-2.95.64,3.47,3.47,0,0,1-1.77-1.27v-59a3.29,3.29,0,0,1,5.9-.64,6,6,0,0,0-2.36-3.8c-2.05-1.34-5-.89-7.09,1.27a8.27,8.27,0,0,0-10.62,0,5.7,5.7,0,0,1,4.13.63,6.29,6.29,0,0,1,2.36,2.54Z"/></g></g></svg>