<svg xmlns="http://www.w3.org/2000/svg" viewBox="0 0 205.11 326"><defs><style>.cls-1{fill:#946b2d;}.cls-2{fill:#02223b;}.cls-3{fill:#3e3b26;}.cls-4{fill:#a16b1d;}</style></defs><g id="Layer_2" data-name="Layer 2"><g id="Layer_1-2" data-name="Layer 1"><path class="cls-1" d="M205.11,43.59A108.06,108.06,0,0,0,199,76.5c-.38,12.4-2,100-5.36,150.77-2.28,34.44-5.08,47.89-15.31,59.7-8.8,10.16-20.58,16.35-33.67,23A219.6,219.6,0,0,1,102.56,326a219.4,219.4,0,0,1-42.1-16.07c-13.09-6.61-24.87-12.8-33.67-23-10.23-11.81-13-25.26-15.31-59.7C8.12,176.46,6.5,88.9,6.12,76.5A106.83,106.83,0,0,0,4.59,61.19,106.74,106.74,0,0,0,0,43.59a86,86,0,0,0,13,4.59C24.81,51.3,30.45,50,52,49.71c25.44-.39,33.24,1.11,42.86-5.36a37.55,37.55,0,0,0,7.66-6.88,37.18,37.18,0,0,0,7.65,6.88c9.62,6.47,17.43,5,42.86,5.36,21.59.33,27.23,1.59,39-1.53A86,86,0,0,0,205.11,43.59Z"/><path class="cls-2" d="M193.68,58.05a99.58,99.58,0,0,0-4.08,16A102.19,102.19,0,0,0,188.25,88c-.33,11.28-1.77,91-4.75,137.18-2,31.33-4.51,43.56-13.57,54.31-7.8,9.25-18.25,14.87-29.85,20.89A191.89,191.89,0,0,1,102.76,315a191.6,191.6,0,0,1-37.31-14.62c-11.6-6-22.05-11.64-29.85-20.89-9.07-10.75-11.55-23-13.57-54.31-3-46.23-4.42-125.9-4.75-137.18a101.05,101.05,0,0,0-1.36-13.93,99.75,99.75,0,0,0-4.07-16,75.45,75.45,0,0,0,11.53,4.18s3.3.86,6.78,1.41c22.12,3.45,123.08,3.45,145.21,0,3.47-.55,6.77-1.41,6.77-1.41A75.24,75.24,0,0,0,193.68,58.05Z"/><path class="cls-3" d="M130.59,230.65A14.11,14.11,0,0,1,141,233.47a7.52,7.52,0,0,0-1.48-4.88,6.34,6.34,0,0,0-1-.92,6.59,6.59,0,0,0-2.93-1.26l8.68-1c-.59-1.25-1.18-2.53-1.76-3.84-.48-1.07-.94-2.13-1.39-3.18a42.62,42.62,0,0,0,11.62-3.58l-4.24-5.07a36.27,36.27,0,0,0,14.23-2.88L156,202.79l9.11-2.59-5.42-4.82,5.68-2.39-5-4.16,9-6.52L158,180.91l10.09-6.24-10.82-3.48L169.9,164l-16.33-3.85,16.36-4.55-16.19-4.37,18.63-6.74L156,140.59l15.21-6.53-7.55-3.16,12.91-16.69-22.8,5.61a115.07,115.07,0,0,0,31.92-22.75,62.27,62.27,0,0,1-21.24,6,60.46,60.46,0,0,1-7.35.26A32.75,32.75,0,0,0,169,98.72c10.72-6.88,13.91-18,14.71-21.24a71,71,0,0,1-32.42,14.21,109.62,109.62,0,0,0,18.14-15.27c6.54-6.87,8.69-11,9.83-13.59a38.47,38.47,0,0,0,3-11,49.93,49.93,0,0,1-16.8,14.51,48.53,48.53,0,0,1-8.2,3.39,55.58,55.58,0,0,0,12.63-15.64c2.52-4.67,7.3-13.52,6.25-25.2a38.45,38.45,0,0,0-4.07-14q-8.94,18.6-17.89,37.19l-1-4.74a39.78,39.78,0,0,0,3.06-9.26c3.58-18.18-7-33.54-10.43-38.12a90.45,90.45,0,0,1-.41,28.47,89.82,89.82,0,0,1-4.23,15.66c-.47-1.92-1-4-1.72-6.07s-1.48-4.29-2.25-6.21l-8.1,25.83a43.73,43.73,0,0,0-10.68-45.47,99.64,99.64,0,0,1,2.47,22,99.37,99.37,0,0,1-2,19.64l-2-1.08c-.77-5-1.59-9.23-2.25-12.38-1.44-6.8-2.65-11-2.93-12-1.52-5.27-2.28-7.91-3.48-9.91-1.38-2.3-4.38-6.22-11-9.13,4.43,13.16,8.6,32.36,4,53.74C98,78.38,94.29,75.83,89.23,93.4c-8.09,28.08-.68,41.71-8.35,80.67-1.18,6-2.38,10.77-3.15,13.72Z"/><path d="M31.23,254.44A5,5,0,0,0,30,258.93a5.21,5.21,0,0,1-2-3.87,4.9,4.9,0,0,1,.77-2.59c1.21-1.87,3.79-2.76,6.59-2.44l-.58,3.1A4.77,4.77,0,0,0,31.23,254.44Z"/><path d="M35.67,260.14a5,5,0,0,0-.36,4.64,5.27,5.27,0,0,1-2.7-3.43,5,5,0,0,1,.27-2.69c.85-2.06,3.22-3.42,6-3.63v3.16A4.8,4.8,0,0,0,35.67,260.14Z"/><path class="cls-4" d="M59.38,269.3a3,3,0,0,1-2.75,1.33c-1.09-.25-1.6-1.53-2-2.42a20.1,20.1,0,0,0-5.55-7.09c-2.77-2-6.51-2.23-8.35-2.33-1.68-.1-3.87,0-5.8-1.45-1-.76-1.15-1.35-1.18-1.55a1.83,1.83,0,0,1,.25-1.15,7,7,0,0,1-2.78-1.45c-.69-.59-1.51-1.3-1.51-2.24,0-2.18,4.41-3.57,5.35-3.87,2.15-.68,4-1.26,5.82-.26A6,6,0,0,1,43.59,251a3.23,3.23,0,0,1,.8.47c.75.6.57,1,1.51,2.25A10.18,10.18,0,0,0,50,256.86c2.81,1.09,6.73-.36,9.79-3.46.63.4,1.25.81,1.87,1.22-2.32,2.19-4.8,5-4,6.62.18.37.38.38.84.86C60.14,263.87,60.89,267.33,59.38,269.3Z"/><path class="cls-3" d="M72.63,225.74c-.6,9.11-5.47,15.74-8.49,20A51,51,0,0,1,53.39,256.9l4.11-.28.13,2.91c1,0,14.38-.48,21.19-11.53a23.7,23.7,0,0,0,2.32-19.81c-1.78-5.14-5.87-10.17-7.57-9.51C72.35,219.15,72.87,222,72.63,225.74Z"/><path class="cls-1" d="M50.23,185.36c-1.88-.16-7.17-.62-11.33,2.93a10.81,10.81,0,0,0-3.31,4.57c-1.53,4.25.12,9.4,3.93,13.4a16.35,16.35,0,0,1,1.77-5.11,16.55,16.55,0,0,1,3.14-4.07,16.12,16.12,0,0,0,9.39,1,16.32,16.32,0,0,0,9.49-5.86A20.31,20.31,0,0,0,50.23,185.36Z"/><path d="M53.13,198.4a32.81,32.81,0,0,1,7.62,6.08c3.62,3.92,4.26,6.6,8.68,16.2,5.82,12.62,7.15,13.27,7.13,17.37,0,4.63-1.73,8.27-3.93,12.95a53.84,53.84,0,0,1-7.51,11.7,10.33,10.33,0,0,1,6.75,6.93c2.64-3.28,10.26-11.85,22.59-13.9a33.5,33.5,0,0,1,9.24-.22,55.76,55.76,0,0,1,6.8,3.51c13.78,8.44,13.41,16.94,24.83,24.11,7.59,4.77,15.52,5.89,20.61,6.6a41.51,41.51,0,0,0,13.68.18,38.22,38.22,0,0,0,14.62-5.79,46.75,46.75,0,0,1-4.42-2.11,44.42,44.42,0,0,1-4.24-2.63A122.61,122.61,0,0,1,138,250.83a118.63,118.63,0,0,1-12.11-16.24l5.67-1.46-2.87-3.29a14.11,14.11,0,0,1,5.47.76,14,14,0,0,1,4.75,2.8,7.51,7.51,0,0,0-1.13-5A6.47,6.47,0,0,0,134,226l8.73-.4c-.5-1.29-1-2.61-1.49-4-.4-1.1-.79-2.19-1.16-3.26a42.42,42.42,0,0,0,6.69-1.11,43.05,43.05,0,0,0,5.15-1.64c-1.28-1.79-2.57-3.57-3.86-5.36a36,36,0,0,0,7.53-.24,36.77,36.77,0,0,0,6.86-1.62L156,203.86l9.27-1.93-5.07-5.2,5.85-2-4.73-4.51,9.48-5.86-11.26-2.2,10.51-5.51-10.55-4.24,13.08-6.33-16-5,16.63-3.38-15.83-5.51,19.06-5.39-16-5,15.64-5.44-7.31-3.69L182.85,117l-23.15,4a115.68,115.68,0,0,0,33.46-20.43,62.2,62.2,0,0,1-21.62,4.5,59.65,59.65,0,0,1-7.35-.26,32.72,32.72,0,0,0,12.2-3.78c11.18-6.1,15.15-17,16.17-20.14a71,71,0,0,1-33.34,11.88,109.78,109.78,0,0,0,19.17-13.95c7-6.39,9.45-10.33,10.78-12.86a38.86,38.86,0,0,0,3.73-10.73,50.13,50.13,0,0,1-17.79,13.28,48.73,48.73,0,0,1-8.42,2.8,55.35,55.35,0,0,0,13.7-14.7c2.85-4.48,8.25-13,8-24.7a38.55,38.55,0,0,0-3.07-14.24q-10.23,17.91-20.48,35.82c-.21-1.6-.42-3.19-.62-4.79a39.46,39.46,0,0,0,3.71-9c4.86-17.88-4.61-33.95-7.7-38.76a90.44,90.44,0,0,1-2.43,28.36,89.18,89.18,0,0,1-5.33,15.33c-.34-1.95-.76-4-1.29-6.18S150.05,34,149.41,32q-4.95,12.58-9.91,25.19a43.77,43.77,0,0,0-7.43-46.12,99.7,99.7,0,0,1-2.43,41.54l-1.87-1.22c-.42-5.07-.93-9.32-1.37-12.51-1-6.89-1.86-11.19-2.07-12.17-1.14-5.37-1.71-8-2.77-10.13-1.21-2.4-3.93-6.51-10.3-9.89,3.48,13.45,6.28,32.9.14,53.89-4.4,15.05-8,12.24-14.24,29.41-10.06,27.42-3.64,41.55-14.06,79.87C81.51,175.75,80,180.45,79,183.34l-9.9-1.16,4.3-2.51A92.37,92.37,0,0,1,61.6,179c-7.22-.89-10.39-2.17-13.68-.18-1.79,1.07-3.79,3.22-3.67,5.59.18,3.59,5.14,5.73,5.91,6.07,4.44,1.92,8,.54,8.53,1.82C59,193.1,58.16,194.74,53.13,198.4Z"/><path d="M46.34,270.31a5.08,5.08,0,0,0,2.68,3.8,5.3,5.3,0,0,1-4.26-.92A4.92,4.92,0,0,1,43.25,271c-.67-2.13.28-4.68,2.31-6.64l2,2.42A4.85,4.85,0,0,0,46.34,270.31Z"/><path d="M40.58,267.71a5,5,0,0,0,2,4.2,5.31,5.31,0,0,1-4-1.63,5,5,0,0,1-1.1-2.46c-.31-2.21,1.07-4.57,3.4-6.16l1.58,2.73A4.84,4.84,0,0,0,40.58,267.71Z"/><path d="M37.27,265.14a5.05,5.05,0,0,0-1.22,4.49,5.24,5.24,0,0,1-2-3.87,5,5,0,0,1,.77-2.59c1.21-1.88,3.79-2.77,6.59-2.45l-.58,3.1A4.87,4.87,0,0,0,37.27,265.14Z"/><path d="M58.14,286.05a5,5,0,0,1-4.47,1.31,5.31,5.31,0,0,0,3.91,1.93,5,5,0,0,0,2.58-.82c1.85-1.25,2.69-3.85,2.31-6.64l-3.09.64A4.83,4.83,0,0,1,58.14,286.05Z"/><path class="cls-1" d="M65.85,282.51c-1.12,2.18-4.15,2.49-4.31,2.51a6.13,6.13,0,0,1-4.59-1.6,7.91,7.91,0,0,0,2.28-4.93c.14-2.5-1.17-4.26-2.48-6a15.82,15.82,0,0,0-8.82-5.94,15.19,15.19,0,0,0-4.44-.4,6.12,6.12,0,0,1,0-1.7,3.06,3.06,0,0,1-1.31,0,7.75,7.75,0,0,1-1-.35c-1-.4-1.65-.69-1.87-1.22-.31-.77.48-1.76.71-2.05a6.34,6.34,0,0,1,5.85-2,6.68,6.68,0,0,1,2.43.95,4.65,4.65,0,0,1,2.48.26c1.42.59,1.21,1.6,2.87,3.29.54.55,3.51,3.43,7.48,3.18A9.47,9.47,0,0,0,67.48,263l4.77,1.09a87.32,87.32,0,0,0-4.91,9.17,13.49,13.49,0,0,0-1.24,3.58C65.62,279.81,66.71,280.86,65.85,282.51Z"/><path class="cls-3" d="M38.2,193.26a2.06,2.06,0,0,0-1.68,1.47c-.16.65,0,1.46.27,1.5S37.41,195.81,38.2,193.26Z"/><path class="cls-3" d="M50.57,185.52a5,5,0,0,0,4.82,1.88c1.52-.28,3-1.37,2.84-1.93S56.7,184.66,50.57,185.52Z"/></g></g></svg>