<svg xmlns="http://www.w3.org/2000/svg" viewBox="0 0 231.01 294.62"><defs><style>.cls-1{fill:#d9ab0d;}.cls-2{fill:#363430;}.cls-3{fill:#4d4d4d;}.cls-4{fill:#999;}.cls-5{fill:#fff;}</style></defs><g id="Layer_2" data-name="Layer 2"><g id="Layer_1-2" data-name="Layer 1"><path class="cls-1" d="M210,97.21c-4.69,13.38-5.07,24.47-5.09,34.46-.07,28.88,2.85,47.06,2.91,79.49,0,15.08-.59,21.94-5.82,28.49-7,8.77-18.32,11.93-34.89,16.55-19.41,5.43-28,4.12-39.25,11.93a47.71,47.71,0,0,0-12.36,12.59h0a47.81,47.81,0,0,0-12.35-12.59c-11.25-7.8-19.84-6.5-39.26-11.92C47.33,251.59,36,248.43,29,239.66c-5.23-6.54-5.85-13.42-5.82-28.49.06-32.43,3-50.61,2.91-79.5,0-10-.4-21.06-5.09-34.44A94.79,94.79,0,0,0,10.83,76.69c.57,0,10.11-.61,14.54-8,3.63-6,2.24-13.94-3.64-19.21a86.8,86.8,0,0,1,28.35-8.61c3-.36,13.21-3,30.53-4.64a360.85,360.85,0,0,1,69.79,0C167.71,38,178,40.55,180.92,40.9a87.05,87.05,0,0,1,28.35,8.62c-5.87,5.26-7.26,13.2-3.64,19.21,4.43,7.35,14,7.93,14.54,8A95.42,95.42,0,0,0,210,97.21Z"/><path class="cls-2" d="M127.25,107.91a12.09,12.09,0,0,0-3.39,5,13.35,13.35,0,0,0,0,7.68c1.81,7.29,7.43,12.34,9.31,13.95a70.14,70.14,0,0,0,20.6,12c16.88,7,33.92,14,41.88,28.58,3.43,6.3.42,5.28,6.64,25.92.9,3,3,9.85,0,13.29a10,10,0,0,1-4,2.66c-1.92.7-3,.41-4.66.67-2.81.45-4.66,2.15-6.64,4-4.75,4.37-6.74,10.19-8,13.95a53.38,53.38,0,0,0-2.66,16.62c-3.2-1.18-6.53-2.5-10-4q-4.54-2-8.64-4c3.17-5.91,2.91-9.62,2-12s-2-2.71-3.32-6c-1.64-4.25-.41-6.08-2-7.31-2.18-1.69-6.67.09-9.31,2-2.41,1.74-2.73,3.19-4.65,5.32s-5,4.53-10.64,6a44.23,44.23,0,0,1-17.94-10.63c10.17-4.8,12.29-7.6,12-9.31s-2.83-2-5.32-5.32a16.28,16.28,0,0,1-2.65-6c-2.8-9.61-21.91-12.23-34.57-27.25a45.32,45.32,0,0,1-4.65-6.65l-8,2c-.88-2.44-1.77-4.88-2.65-7.31l-10,6.64a8,8,0,0,1-6.65-.66,7.46,7.46,0,0,1-2.91-3.6c-.52-1.84-1.1-3.75-1.74-5.71q-1.29-3.87-2.66-7.31c.59.36,7.92,4.73,15.14,1.19a14.64,14.64,0,0,0,6.13-5.84c-2.07-4.38-3.91-8-5.32-10.64-2-3.81-2.73-4.89-4-6-2.73-2.35-5.16-2.19-9.3-3.32-2.79-.77-6.29-2.73-13.3-6.65-3.18-1.78-7.29-4.21-12-7.31q4-5.65,8-11.3a47.57,47.57,0,0,0,10.64,7.31c4.93,2.47,13.57,6.81,20.22,3.52,1.55-.76,2.34-1.66,6.43-7.36,9.82-13.68,10.2-16.34,13.85-18.61,5.85-3.63,13-1.75,18.89-.31C114.1,89.91,123.82,102.8,127.25,107.91Z"/><path class="cls-3" d="M124.05,112.77a20.16,20.16,0,0,0,0,7.68c1,5.3,4.17,9.53,9.3,14,4.43,3.81,8.8,6.59,20.61,12,14.69,6.7,13.34,5,20.41,8.81,3.83,2,17.87,9.85,21.46,19.77.17.47.64,1.83,1.14,3.49,1.67,5.61,1.82,8.43,2.66,12.63,1.57,7.88,3.73,11.41,4,18a8.06,8.06,0,0,1-1.33,5.31,7.56,7.56,0,0,1-4,2.66c-2.54-6.39-5.94-9.57-8.64-11.3-4-2.54-7-2.27-12-5.31a29.5,29.5,0,0,1-8-7.32,11.52,11.52,0,0,0,4,8,48.35,48.35,0,0,1-23.93-27.25,27.52,27.52,0,0,0,1.33,6.65,26.6,26.6,0,0,0,3.33,6.64,50.82,50.82,0,0,1-23.93-35.22,40,40,0,0,0,1.33,20.6,50.16,50.16,0,0,1-13.3-24.59C114.77,130.27,122,116.42,124.05,112.77Z"/><path class="cls-3" d="M76,88.71l50.51,20.61a32.48,32.48,0,0,1-8,6.64c-3.54,2.09-6.17,2.71-12,4.66a129.48,129.48,0,0,0-12.63,4.65c-4.75,2.35-10.55,8-14,23.26a47.61,47.61,0,0,1-4-59.82Z"/><path class="cls-4" d="M76,88.71,122.48,108a40.6,40.6,0,0,1-8,4c-9.53,3.5-15.13,1.59-20.61,3.33-5,1.57-10.88,6.52-15.29,21.27a35.27,35.27,0,0,1-8.64-14C64.53,105.79,74.46,90.87,76,88.71Z"/><path class="cls-5" d="M114.27,62.75a24.89,24.89,0,0,1-10.91,2.56c0-.33-.16-3-2-4-2-1.18-5.63-.07-7.52,3.48a8.51,8.51,0,0,1,1.84-4.39c3.15-3.72,9.4-3.5,13.46-1.69A13.15,13.15,0,0,1,114.27,62.75Z"/><path class="cls-5" d="M167.66,103.81a11.67,11.67,0,0,1-1.86,3.71c-3.28,4.31-9.08,4.31-10.18,4.32-1.28,0-.89-.17-7.91-1.71-5.8-1.27-7.3-1.43-9.07-1.31a12.42,12.42,0,0,0-2,.27c-1.35.31-2,.42-3.88,1-1.19.36-2.72.4-12.26-2.75-3.35-1.1-3.64-1.27-4.65-1.33-3-.18-4.25,1-7.32,1.33a16.09,16.09,0,0,1-6.64-.66,7.58,7.58,0,0,0,2.66-.67,7.16,7.16,0,0,0,2-1.33,26.19,26.19,0,0,0-2.66,0A24.36,24.36,0,0,0,97.23,106a13.46,13.46,0,0,1,3.32-4,12.41,12.41,0,0,1,2-1.32,18.88,18.88,0,0,0-7.31,2c-3.32,1.69-5.45,4.14-9.3,10a167.71,167.71,0,0,0-8.64,14.62,27.84,27.84,0,0,1-6-10c-3.65-10.86.86-20.94,2.39-24.35A19.87,19.87,0,0,1,76,88.71c5.37-7.23,15.41-7.88,20.81-8.22A48.19,48.19,0,0,1,112,82c6.08,1.58,8.65,3.45,19.3,8.84,9.28,4.7,11.15,6,15.78,7.59a66,66,0,0,0,10.38,2.62,3.58,3.58,0,0,1,.24-1.95,3,3,0,0,1,.38-.62c-2-.8-4.25-1.82-6.72-3.12-3.89-2.06-7.2-3.8-10.4-6.88-4.81-4.63-3.05-6.19-7.82-11.44-3.45-3.79-4.37-3-12.74-9.92-5.34-4.43-5.18-4.81-6.66-5.22l-.11,0a29.9,29.9,0,0,1,14.27,1c.78-.61,2-1.4,3.8-2.49a11.09,11.09,0,0,1,3.94-1.76c2.83-.6,6.59,0,7.17,1.86a3.39,3.39,0,0,1-.68,2.61c-1,1.6-2.1,1.48-2.8,2.76a3.47,3.47,0,0,0-.17,2.58c1.51,1.07,2.72,2.08,3.63,2.84,3.95,3.3,2.72,3.27,7.94,8.33a7.92,7.92,0,0,1,2.74,4.2c.26,1.41-.22,2,.21,3.19.52,1.48,1.69,2.09,3.33,3.3.83.61-.39-.22,4.78,4.37,1.27,1.14,2.25,2,3,2.66a30.86,30.86,0,0,1,2.28,2.1,2.3,2.3,0,0,1,.53.94c.06.19.11.37.15.56A6.46,6.46,0,0,1,167.66,103.81Z"/><path class="cls-2" d="M161.42,99.72l-1.49,1.71c-.72-.1-1.54-.21-2.43-.36a3.58,3.58,0,0,1,.24-1.95,3,3,0,0,1,.38-.62C159.35,99,160.46,99.39,161.42,99.72Z"/><path d="M167.67,103.79c-.3.25-.8.66-1.43,1.15-1.33,1-2.17,1.32-2.11,1.76s.57.53.89.58a1.39,1.39,0,0,0,1.15-.4l-.66,1.22a1.22,1.22,0,0,1-.74.16,1.26,1.26,0,0,1-.89-.59,6.79,6.79,0,0,1-.91.81c-2.34,1.78-5.18,1.78-7.05,1.66-5.78-.38-9.07-2-15.58-3-2.47-.4-3.44-.39-4.5-.12-1.92.49-2.78,1.52-4.5,1.26-.32,0-1.79-.3-2.12-1.24s.65-2.16,1.42-2.77,2.66-1.64,10.62.67c2.45.71,1.61.62,7.27,2.47a47.69,47.69,0,0,0,10.1,1.7,3.24,3.24,0,0,0,2.21-.47,3.34,3.34,0,0,0,1-3.92c-.8-1.46-2.83-.79-3.9-2.4a3,3,0,0,1-.46-1.24,3.58,3.58,0,0,1,.24-1.95,3,3,0,0,1,.38-.62c1.3-1.65,4.39-2.3,6.73-1.2.22.11.43.24.59.34a5.81,5.81,0,0,1,2.27,2,4.12,4.12,0,0,1,.56,1.88A4.22,4.22,0,0,1,167.67,103.79Z"/><path class="cls-2" d="M157.5,101.07a66,66,0,0,1-10.38-2.62c-4.63-1.59-6.5-2.89-15.78-7.59C120.69,85.47,118.12,83.6,112,82a44.6,44.6,0,0,0-15.27-1.53A43.8,43.8,0,0,0,78.39,86.3l-.64.38a49.91,49.91,0,0,1,8.18-9.27A49.36,49.36,0,0,1,93.42,72a12.2,12.2,0,0,1,0-8c1.17-3.17,4.09-6.52,6.11-6.07.82.18.93.87,2.44,1.33,1.32.4,2,.08,2.61.68s.36,1.11.88,2a4.53,4.53,0,0,0,3,1.82,6.13,6.13,0,0,0,5.21-1.78l.12,0c1.48.41,1.32.79,6.66,5.22,8.37,7,9.29,6.13,12.74,9.92,4.77,5.25,3,6.81,7.82,11.44,3.2,3.08,6.51,4.82,10.4,6.88,2.47,1.3,4.75,2.32,6.72,3.12a3,3,0,0,0-.38.62A3.58,3.58,0,0,0,157.5,101.07Z"/><path class="cls-2" d="M127.84,62.79a20.18,20.18,0,0,1,2.22-1.86c1.95-1.4,5-3.57,8.45-3A7.74,7.74,0,0,1,141.36,59a4.46,4.46,0,0,1-1.08,1.46c-1,.87-1.63.62-3.2,1.61a8.43,8.43,0,0,0-1.81,1.62,2.52,2.52,0,0,0-.67,1.22,2.29,2.29,0,0,0,.07,1.06Z"/><path d="M122.2,79.73c.16.45.51,1.21,2.32,2.52,3.18,2.29,5.12,2.1,5.58,2,.92-.11,1.12-.38,1.2-.51.53-1-1.06-3-1.9-3.88a9.8,9.8,0,0,0-3.9-2.42c-1.49-.58-2.65-1-3.24-.42S122.18,79.65,122.2,79.73Z"/><circle class="cls-5" cx="124.45" cy="79.15" r="0.84"/><path d="M104.81,59.32c.63.42.73.88,1.22,1.63,1.38,2.14,3.21,2.53,3.08,2.89-.25.69-7,0-7.66-2.68a2.07,2.07,0,0,1,.51-2A2.51,2.51,0,0,1,104.81,59.32Z"/><path class="cls-4" d="M123.91,112.46a20.31,20.31,0,0,0,0,7.67c1.24,6.44,5.44,10.4,9.31,14a56.65,56.65,0,0,0,20.6,12,26.86,26.86,0,0,1-15.34-2.84,24,24,0,0,1-4-2.65,6.06,6.06,0,0,0-.67,2.65c0,3.18,2.63,6.27,6.65,8a15.22,15.22,0,0,1-10-3.32,12.84,12.84,0,0,1-1.33-1.33,16.67,16.67,0,0,0-2.66,13.29,29.32,29.32,0,0,1-8.11-12.28c-2.13-6.37-1.32-11.73-.53-17A55.87,55.87,0,0,1,123.91,112.46Z"/><path class="cls-2" d="M195.19,253.68a69,69,0,0,0-12.43-6.58c-13.79-5.55-22.52-3.72-32.17-5.11-14.86-2.15-11.59-9-43.13-27.05C91,205.5,83.09,203.4,70.91,192.28c-5.39-4.92-9.3-8.49-13.16-14.62-8-12.77-5.14-19.6-13.89-35.83-4.57-8.47-7-8.34-9.5-15.35-3.27-9.14-.86-12.6-4.39-21.2C26.16,96,18.86,89.14,17.54,89.93c-1,.61,1.4,5.81,2.93,10.24,5.88,17.07,2.06,32.92.73,40.93-2.31,13.91-3.46,42.14.73,103.81A97.07,97.07,0,0,0,44.59,258.8c18,7.85,29.48,1.49,46.06,8,6.65,2.63,15.74,7.78,24.85,19a183.63,183.63,0,0,1,79.69-32.17Z"/><path d="M231,69.45c-.63,0-11.16-.67-16-8.77-4-6.64-2.47-15.39,4-21.2A95.91,95.91,0,0,0,187.69,30C177.6,28.77,168,29.39,154,24.86c-6.79-2.19-11.48-4.57-12.84-8.78-1.13-3.48.47-6.88,1.61-8.77a58.72,58.72,0,0,1-12-1.46A57.36,57.36,0,0,1,115.5,0h0a56.93,56.93,0,0,1-15.24,5.85,58,58,0,0,1-12,1.46c1.13,1.89,2.73,5.29,1.61,8.78-1.36,4.2-6,6.58-12.84,8.77C63,29.4,53.41,28.79,43.31,30A95.91,95.91,0,0,0,12,39.49c6.48,5.81,8,14.56,4,21.2C11.16,68.79.63,69.43,0,69.46A105.85,105.85,0,0,1,11.23,92.12c5.17,14.76,5.59,27,5.61,38,.08,31.87-3.14,51.94-3.21,87.72,0,16.63.65,24.22,6.42,31.44,7.74,9.68,20.22,13.17,38.51,18.27,21.41,6,30.9,4.54,43.31,13.16a52.43,52.43,0,0,1,13.63,13.89h0a52.66,52.66,0,0,1,13.64-13.89c12.41-8.62,21.89-7.17,43.31-13.16,18.28-5.1,30.76-8.59,38.5-18.28,5.77-7.21,6.45-14.79,6.42-31.43-.06-35.79-3.28-55.85-3.21-87.73,0-11,.44-23.25,5.62-38A104.44,104.44,0,0,1,231,69.45ZM210,97.21c-4.69,13.38-5.07,24.47-5.09,34.46-.07,28.88,2.85,47.06,2.91,79.49,0,15.08-.59,21.94-5.82,28.49-7,8.77-18.32,11.93-34.89,16.55-19.41,5.43-28,4.12-39.25,11.93a47.71,47.71,0,0,0-12.36,12.59h0a47.81,47.81,0,0,0-12.35-12.59c-11.25-7.8-19.84-6.5-39.26-11.92C47.33,251.59,36,248.43,29,239.66c-5.23-6.54-5.85-13.42-5.82-28.49.06-32.43,3-50.61,2.91-79.5,0-10-.4-21.06-5.09-34.44A94.79,94.79,0,0,0,10.83,76.69c.57,0,10.11-.61,14.54-8,3.63-6,2.24-13.94-3.64-19.21a86.8,86.8,0,0,1,28.35-8.61c3-.36,13.21-3,30.53-4.64a360.85,360.85,0,0,1,69.79,0C167.71,38,178,40.55,180.92,40.9a87.05,87.05,0,0,1,28.35,8.62c-5.87,5.26-7.26,13.2-3.64,19.21,4.43,7.35,14,7.93,14.54,8A95.42,95.42,0,0,0,210,97.21Z"/></g></g></svg>