<svg xmlns="http://www.w3.org/2000/svg" viewBox="0 0 236 295.55"><defs><style>.cls-1{fill:#214926;}.cls-2{fill:#767676;}.cls-3{fill:#6c6c6c;}.cls-4{fill:#525554;}.cls-5{fill:#434343;}.cls-6{fill:#939393;}.cls-7{fill:#fff;}</style></defs><g id="Layer_2" data-name="Layer 2"><g id="Layer_1-2" data-name="Layer 1"><path class="cls-1" d="M195.61,153.06A755.13,755.13,0,0,0,210.82,254.5a98.33,98.33,0,0,0-66.95,1.17A76.21,76.21,0,0,0,118,272.09v.17a76.05,76.05,0,0,0-25.87-16.42,98.33,98.33,0,0,0-66.95-1.17A755.48,755.48,0,0,0,40.39,153.24c3.5-43.56,1.26-64.56-5.33-85.61A188.81,188.81,0,0,0,16.81,27.18a204.08,204.08,0,0,0,41.08,2.93A198.7,198.7,0,0,0,118,19V18.8a198.7,198.7,0,0,0,60.11,11.14A202.53,202.53,0,0,0,219.19,27a189,189,0,0,0-18.25,40.47C194.35,88.51,192.11,109.51,195.61,153.06Z"/><path class="cls-2" d="M156.45,253.38c5.65-10.35,6.71-19.85,2.44-24.37-2.39-2.52-6.62-3.69-14.63-2.44-28.84,4.52-34.61,29.21-56,31.69-16.46,1.9-33.95-10.22-41.44-24.38-10.55-19.93-.43-42.39,2.44-48.75,8.69-19.28,21.19-25.44,70.68-70.68A63.3,63.3,0,0,0,137,90.08a49.7,49.7,0,0,0,3.34-15.9,50.36,50.36,0,0,0-8.07-27.77l-.07-.1-.07-.11c3.46,1.52,15.21,7.15,19.5,19.5,2.73,7.89,1.37,15.25,0,21.94a66.84,66.84,0,0,1-7.32,19.5c-15.23,26.71-40.11,39-56,70.69-2.69,5.32-9.56,20-4.88,34.12,1.82,5.46,4.06,6.87,4.88,7.31,5.62,3,12.69-2.65,29.24-12.19,23.21-13.36,30.43-14.35,34.13-14.62,4.87-.35,13.77-.87,21.94,4.88a29.43,29.43,0,0,1,12.18,21.93C186.44,233.54,174.72,248.29,156.45,253.38Z"/><path class="cls-3" d="M156,253.14c5.65-10.35,6.7-19.86,2.43-24.38-2.38-2.52-6.61-3.69-14.62-2.43C115,230.84,109.17,255.53,87.74,258c-16.45,1.9-33.95-10.22-41.44-24.37-10.14-19.17-1.58-39.37,2.44-48.75,9.33-21.79,26.54-32.8,33.21-36.6-1.56,6.32-14,58.26,2.08,66.54,6.89,3.54,18.06-1.4,33-8,17.09-7.57,21.18-13.69,34.12-14.63,4.87-.35,13.78-.87,21.94,4.88A29.43,29.43,0,0,1,185.23,219C186,233.3,174.25,248,156,253.14Z"/><path class="cls-4" d="M131.61,231.2c-13.36-3.75-26.42.75-31.69,9.75A24.13,24.13,0,0,0,97.49,258a21.36,21.36,0,0,0,4.87,9.75c2.29,2.52,6.55,5.88,17.06,7.31A72.14,72.14,0,0,0,156,270.2c4.47-2.24,30.46-14.11,34.12-39,.61-4.13,2.72-18.51-7.31-29.25-9.06-9.7-21.8-9.78-24.38-9.75,1.1.93,17.27,15,14.63,34.13-.18,1.27-2.68,17.73-14.63,24.37l-.13.07c-1.55.86-14.78,7.88-24.24,2.37a12.6,12.6,0,0,1-4.88-4.88C125.17,240.8,131.21,231.78,131.61,231.2Z"/><path class="cls-2" d="M214.71,56.75A220.28,220.28,0,0,1,236,9.57,237.34,237.34,0,0,1,188.09,13,231.46,231.46,0,0,1,118,0V.19a231.46,231.46,0,0,1-70.09,13A236.62,236.62,0,0,1,0,9.76,220.51,220.51,0,0,1,21.29,56.94C29,81.48,31.58,106,27.5,156.76A879.8,879.8,0,0,1,9.76,275a113,113,0,0,1,34.6-6.15,113.72,113.72,0,0,1,43.47,7.52A88.92,88.92,0,0,1,118,295.55v-.19a88.76,88.76,0,0,1,30.17-19.15,114.13,114.13,0,0,1,43.47-7.52,112.94,112.94,0,0,1,34.6,6.16A879.91,879.91,0,0,1,208.5,156.56C204.42,105.77,207,81.28,214.71,56.75ZM181.15,249.22a97.72,97.72,0,0,0-37.28,6.45A76.21,76.21,0,0,0,118,272.09v.17a76.05,76.05,0,0,0-25.87-16.42,98.33,98.33,0,0,0-66.95-1.17A755.48,755.48,0,0,0,40.39,153.24c3.5-43.56,1.26-64.56-5.33-85.61A188.81,188.81,0,0,0,16.81,27.18a204.08,204.08,0,0,0,41.08,2.93A198.7,198.7,0,0,0,118,19V18.8a198.7,198.7,0,0,0,60.11,11.14A202.53,202.53,0,0,0,219.19,27a189,189,0,0,0-18.25,40.47c-6.59,21-8.83,42-5.33,85.59A755.13,755.13,0,0,0,210.82,254.5,97.23,97.23,0,0,0,181.15,249.22Z"/><path class="cls-5" d="M80.43,243.39c-1.07,1.39-6.92,9.36-4.88,19.5,1.61,8,7.16,12.51,9.75,14.62,9.07,7.39,19.63,7.31,24.37,7.31,5,0,15.26,0,24.38-7.31,2.48-2,12.92-11,12.19-24.37s-12.28-28.2-26.82-26.81c-10.26,1-19.42,9.86-21.93,21.93,12.73-7.52,25.13-6.07,29.25,0,3.29,4.86,1.17,12.56-2.44,17.06-8.72,10.87-32.79,10.51-41.44-2.43C77.9,255.46,79.69,246.4,80.43,243.39Z"/><path d="M55.49,84.22c-7,4.91-9,5.35-15.86,10.48-8.11,6-12.16,10.6-15.11,15.1-3.87,5.9-4.11,9.09-3.78,11.34a12.68,12.68,0,0,0,3.88,7.24A13.57,13.57,0,0,0,36.05,132c5.8-1,11.33-6.78,12.89-8.41s3-3.52,5.79-4.34a10.59,10.59,0,0,1,5.67,0,8.7,8.7,0,0,0-7.55-1.89,2.92,2.92,0,0,0,0-1.89,3.56,3.56,0,0,0-3.78-1.89A3.55,3.55,0,0,1,51,115.47a3.46,3.46,0,0,1,0,1.89c-.24.87-9.35,16-20.22,12.3-3.49-1.17-7.28-4.31-8.11-8.52-.9-4.56,2.05-8.45,5.66-13.22,1-1.3,3.43-4.4,9.45-9.45,5.5-4.62,8.85-6.56,18.09-13,4.24-3,7.64-5.44,9.75-7L70,72.34A131.87,131.87,0,0,1,55.49,84.22Z"/><path class="cls-6" d="M140.29,74.18a27.84,27.84,0,0,0-1.37-3.84c-.53-1.22-7.62-16.71-21.93-17.07-9-.23-15.32,5.6-17.07,7.31a15.53,15.53,0,0,1,0,9.76C97.39,77.24,89.43,80.06,75.55,85c-11.34,4-9.88,1.7-17.06,4.88-4,1.79-8.51,4.29-12.19,2.44l-.22-.11a5.64,5.64,0,0,1-1.37-1,3.61,3.61,0,0,1-.84-1.3c-1-2.74,1.64-6.12,4.87-9.75,3-3.35,5.17-5.49,7.09-7.29.92-.88,1.8-1.68,2.66-2.49s1.59-1.53,2.43-2.41c9.45-9.76,8-14.34,14.63-17A41.22,41.22,0,0,1,87.74,48.4a43.25,43.25,0,0,1,4.87,0,35.76,35.76,0,0,1,9.75-4.88,39.47,39.47,0,0,1,29.86,2.89,46,46,0,0,1,8.07,27.77Z"/><path d="M47.18,90.92c0,.29,2,.38,3.78,0A8.9,8.9,0,0,0,54.73,89C48.55,90.17,47.15,90.67,47.18,90.92Z"/><path d="M45.58,89.15c-.26,0-.43-1.05-.28-1.87a3.21,3.21,0,0,1,1.59-2.15C46.21,88.39,45.82,89.17,45.58,89.15Z"/><path d="M64.18,83.36c.15.22.51.09,1.89,0,2.08-.13,2.48.07,3.77,0a9,9,0,0,0,5.67-1.89c1-.85,2.43-2.68,1.89-3.77-.71-1.44-4.69-1.22-7.56,0C66.21,79.24,63.69,82.65,64.18,83.36Z"/><circle class="cls-7" cx="73.52" cy="79.1" r="0.56"/><path d="M54.87,75.36c-.08-.1,0-.24.31-.84.4-.9.38-1.12.63-1.68a4.31,4.31,0,0,1,1.77-2.2c.54-.29,1.6-.64,2-.22s-.23,2.29-1.25,3.36C57,75.14,55.1,75.69,54.87,75.36Z"/></g></g></svg>