<svg xmlns="http://www.w3.org/2000/svg" viewBox="0 0 229.75 256.89"><defs><style>.cls-1{fill:#d9ab0d;}</style></defs><g id="Layer_2" data-name="Layer 2"><g id="Layer_1-2" data-name="Layer 1"><path class="cls-1" d="M229.75,3.62V256.89A100.58,100.58,0,0,1,208,240.61c-5.79-5.73-8.11-9.46-10.85-12.67C185.28,214,169,214.06,150.15,208c-25.8-8.24-42.63-23.49-50.65-30.75-9.69-8.78-25.25-25.61-36.18-54.27a101.19,101.19,0,0,1-10.86,7.23,99.64,99.64,0,0,1-10.85,5.43,135.9,135.9,0,0,1-9-19.9c-3.28-9.09-3.79-13.52-5.42-18.09C24.41,90.07,17.78,80,0,70.55L47,0Z"/></g></g></svg>