<svg xmlns="http://www.w3.org/2000/svg" viewBox="0 0 204.68 247.85"><defs><style>.cls-1{fill:#214926;}</style></defs><g id="Layer_2" data-name="Layer 2"><g id="Layer_1-2" data-name="Layer 1"><path class="cls-1" d="M204.68,43.11a76.67,76.67,0,0,0-18.35,5.74c-2.05.94-31.75,15-41.6,45.22-5,15.36-3,29,1.8,48.85A558.78,558.78,0,0,0,182.72,246L0,247.85V81.41L21.71,56.08a54.63,54.63,0,0,0,27.13,1.81c18.67-3.77,21.42-15.9,52.47-38,21.2-15.08,34.83-20,48.84-19.9A59.87,59.87,0,0,1,161,1.12s0-.07-.06-.1Q182.82,22.07,204.68,43.11Z"/></g></g></svg>