<svg xmlns="http://www.w3.org/2000/svg" viewBox="0 0 225.12 324.31"><defs><style>.cls-1{fill:#3e3b26;}.cls-2{fill:#a16b1d;}.cls-3{fill:#946b2d;}</style></defs><g id="Layer_2" data-name="Layer 2"><g id="Layer_1-2" data-name="Layer 1"><path class="cls-1" d="M118.22,250.71a15.75,15.75,0,0,1,10.89,5.34,8.43,8.43,0,0,0-.58-5.69,7.35,7.35,0,0,0-3.82-3.23l9.77.74c-.39-1.5-.76-3-1.12-4.6-.3-1.28-.58-2.54-.84-3.79a47.8,47.8,0,0,0,7.59-.33,47,47,0,0,0,6-1.13l-3.58-6.48a41.16,41.16,0,0,0,16.28-.12l-6.56-5.92,10.57-.89-4.93-6.47,6.78-1.41L160,211.07l11.36-5.24-12.24-4,12.44-4.7L160.37,191l15.42-5.26L158.64,178l19-1.5-16.88-8.28,21.95-3.42-17.15-7.74,18.15-3.93-7.64-5.1,17.79-15.59-26.3,1.28a129.15,129.15,0,0,0,40-18.2,69.64,69.64,0,0,1-24.67,2.08,67.45,67.45,0,0,1-8.14-1.29,36.74,36.74,0,0,0,14.08-2.55c13.27-5.27,19.18-16.87,20.74-20.22a80.2,80.2,0,0,1-18.13,6.64,79.21,79.21,0,0,1-20.6,2A122.83,122.83,0,0,0,194.07,89.3c8.67-6.15,11.91-10.22,13.73-12.85A43.42,43.42,0,0,0,213.42,65a56.2,56.2,0,0,1-21.61,12.36,53.46,53.46,0,0,1-9.75,2,62,62,0,0,0,17.25-14.5c3.77-4.59,10.93-13.31,12.28-26.4a43.21,43.21,0,0,0-1.47-16.26L182.45,59.28c0-1.81,0-3.62,0-5.42a44.2,44.2,0,0,0,5.36-9.54c7.83-19.24-.52-38.41-3.31-44.19a101.6,101.6,0,0,1-6.55,31.25,101.09,101.09,0,0,1-8,16.33c-.11-2.22-.3-4.57-.59-7.05s-.71-5-1.14-7.31L153.71,60a49,49,0,0,0-2-52.33,111.74,111.74,0,0,1-2,24.7,112,112,0,0,1-6.36,21.2L141.44,52c.22-5.7.22-10.5.17-14.11-.12-7.79-.55-12.7-.65-13.83-.54-6.12-.82-9.18-1.71-11.65-1-2.83-3.49-7.77-10.13-12.4,2.06,15.44,2.54,37.47-7.15,60-6.94,16.15-10.5,12.54-19.84,30.79-14.92,29.16-9.69,45.76-26.49,87-2.57,6.32-4.92,11.35-6.4,14.43Z"/><path d="M3.77,255.59a5.69,5.69,0,0,0-2.31,4.68,6,6,0,0,1-1.38-4.69,5.63,5.63,0,0,1,1.4-2.69c1.74-1.8,4.77-2.23,7.79-1.27-.44,1.09-.87,2.19-1.31,3.29A5.34,5.34,0,0,0,3.77,255.59Z"/><path d="M7.44,262.81a5.62,5.62,0,0,0-1.39,5,5.92,5.92,0,0,1-2.24-4.35,5.61,5.61,0,0,1,.88-2.9c1.37-2.1,4.27-3.08,7.41-2.7-.23,1.15-.45,2.31-.67,3.47A5.4,5.4,0,0,0,7.44,262.81Z"/><path class="cls-2" d="M31.57,278a3.42,3.42,0,0,1-3.31.87c-1.15-.5-1.44-2-1.71-3.1a22.42,22.42,0,0,0-4.59-9c-2.61-2.81-6.68-3.85-8.69-4.35-1.83-.47-4.26-.83-6.07-2.84-1-1.06-1-1.73-1-2a2.08,2.08,0,0,1,.51-1.21A7.91,7.91,0,0,1,4,254.21c-.63-.81-1.38-1.76-1.18-2.8.47-2.39,5.62-3,6.72-3.1,2.51-.29,4.68-.54,6.46.95a6.68,6.68,0,0,1,2.1,5.21,3.9,3.9,0,0,1,.79.68c.69.82.41,1.24,1.18,2.8a11.32,11.32,0,0,0,3.8,4.32c2.86,1.8,7.49,1.05,11.52-1.71.6.57,1.2,1.16,1.79,1.74-3,1.91-6.35,4.45-5.84,6.42.12.45.34.51.74,1.14C33.57,272.16,33.65,276.13,31.57,278Z"/><path class="cls-1" d="M55.49,232.88c-2.62,9.9-9.4,16.15-13.63,20.21a57.46,57.46,0,0,1-14.23,10l4.59.56-.48,3.23c1.14.21,15.92,2.56,25.8-8.13a26.65,26.65,0,0,0,6.79-21.31c-.86-6-4.28-12.45-6.3-12.09C56.6,225.56,56.56,228.84,55.49,232.88Z"/><path class="cls-3" d="M39.49,183.63c-2-.58-7.76-2.21-13.09.8a12.17,12.17,0,0,0-4.63,4.32c-2.59,4.34-1.87,10.37,1.45,15.59a18.47,18.47,0,0,1,7.38-9.05,18,18,0,0,0,10.13,3.09A18.36,18.36,0,0,0,52.42,194C51.34,192.14,47.31,185.86,39.49,183.63Z"/><path d="M39.9,198.6A37.11,37.11,0,0,1,47,206.94c3.14,5.08,3.27,8.17,6.08,19.68,3.7,15.14,5,16.14,4.12,20.65-1,5.09-3.68,8.73-7.11,13.41A60.35,60.35,0,0,1,39.3,272,11.53,11.53,0,0,1,45.24,281c3.61-3,13.84-10.84,27.85-10.45a37.12,37.12,0,0,1,10.21,1.74A58.18,58.18,0,0,1,90,277.63c13.36,12.23,11.13,21.51,22.16,31.85,7.33,6.87,15.82,9.81,21.27,11.68a46.43,46.43,0,0,0,15,3.14,42.88,42.88,0,0,0,17.33-3.25,48.76,48.76,0,0,1-4.41-3.27,50.75,50.75,0,0,1-4.11-3.79A137.63,137.63,0,0,1,122,274.5,134.39,134.39,0,0,1,112.19,254l6.55-.4-2.45-4.23a15.74,15.74,0,0,1,10.48,6.1,8.43,8.43,0,0,0-.18-5.72,7.63,7.63,0,0,0-.77-1.27A7.37,7.37,0,0,0,123,246.3l9.69,1.43c-.27-1.52-.54-3.08-.79-4.67q-.3-1.94-.57-3.84a47.1,47.1,0,0,0,7.6.21,45.39,45.39,0,0,0,6-.7l-3.1-6.72a41.24,41.24,0,0,0,8.34,1.35,42,42,0,0,0,7.9-.31L152,226.68l10.61-.14-4.46-6.81,6.86-.92c-1.42-2-2.83-4-4.24-6l11.69-4.42-11.92-4.83,12.75-3.81-10.7-6.93,15.75-4.16-16.55-8.94,19-.15-16.24-9.46,22.13-1.85-16.55-8.93,18.37-2.64-7.25-5.62,18.85-14.29-26.32-.6a128.72,128.72,0,0,0,22.69-6.43A129.21,129.21,0,0,0,215,120.89a69.75,69.75,0,0,1-24.76.33,67.46,67.46,0,0,1-8-1.87,36.87,36.87,0,0,0,14.23-1.54c13.61-4.32,20.33-15.47,22.12-18.7A79.5,79.5,0,0,1,179.31,105,123.55,123.55,0,0,0,203.4,93.79C212.48,88.27,216,84.45,218,82a43.31,43.31,0,0,0,6.41-11A56.06,56.06,0,0,1,202,81.74,53.93,53.93,0,0,1,192.13,83a62.16,62.16,0,0,0,18.23-13.24c4.1-4.32,11.86-12.51,14.13-25.47A43.19,43.19,0,0,0,224.17,28L193.94,63c.12-1.8.23-3.61.35-5.41a44.74,44.74,0,0,0,6-9.13c9.18-18.64,2.21-38.35-.17-44.31a101.28,101.28,0,0,1-8.75,30.69,99.93,99.93,0,0,1-9.16,15.73c.05-2.22,0-4.58-.09-7.07s-.34-5.08-.61-7.38q-8.16,12.8-16.31,25.59a49,49,0,0,0,1.7-52.34,111.08,111.08,0,0,1-3.73,24.49,112.14,112.14,0,0,1-7.84,20.7l-1.8-1.74c.63-5.67,1-10.46,1.17-14.06.44-7.79.36-12.71.34-13.84-.11-6.15-.16-9.22-.88-11.74-.82-2.9-2.93-8-9.22-13.09.95,15.54-.13,37.55-11.4,59.33-8.07,15.62-11.37,11.77-22,29.31-17,28-12.91,45-32.59,84.9-3,6.11-5.71,11-7.41,13.93l-10.65-3.4,5.28-1.84a102.16,102.16,0,0,1-12.84-3.26c-7.75-2.52-11-4.62-15-3.13-2.19.8-4.86,2.74-5.23,5.37-.57,4,4.42,7.41,5.2,7.94,4.47,3.07,8.66,2.31,9,3.84C47.52,194,46.21,195.66,39.9,198.6Z"/><path d="M17,276.29a5.69,5.69,0,0,0,2.14,4.76,6,6,0,0,1-4.49-1.92,5.65,5.65,0,0,1-1.19-2.79c-.28-2.49,1.32-5.1,4-6.82l1.71,3.1A5.39,5.39,0,0,0,17,276.29Z"/><path d="M11.22,272.19a5.62,5.62,0,0,0,1.3,5.05,5.91,5.91,0,0,1-4.1-2.65,5.51,5.51,0,0,1-.69-2.95c.14-2.5,2.16-4.8,5.06-6,.39,1.11.77,2.22,1.16,3.34A5.36,5.36,0,0,0,11.22,272.19Z"/><path d="M8.13,268.66a5.68,5.68,0,0,0-2.31,4.68,6,6,0,0,1-1.38-4.69A5.63,5.63,0,0,1,5.84,266c1.74-1.8,4.77-2.23,7.79-1.27-.44,1.09-.88,2.19-1.31,3.28A5.41,5.41,0,0,0,8.13,268.66Z"/><path d="M26.61,296.14a5.65,5.65,0,0,1-5.19.49,5.93,5.93,0,0,0,3.88,3,5.62,5.62,0,0,0,3-.35c2.3-1,3.78-3.66,4-6.81l-3.53,0A5.4,5.4,0,0,1,26.61,296.14Z"/><path class="cls-3" d="M35.86,293.9c-1.7,2.16-5.1,1.86-5.28,1.84A6.9,6.9,0,0,1,25.86,293a8.79,8.79,0,0,0,3.58-4.94c.68-2.71-.38-4.93-1.45-7.15a17.63,17.63,0,0,0-8.43-8.42,17.14,17.14,0,0,0-4.8-1.4,6.87,6.87,0,0,1,.36-1.87,3.33,3.33,0,0,1-1.45-.26,7.9,7.9,0,0,1-1.05-.61c-1-.64-1.67-1.11-1.79-1.74-.18-.91.9-1.83,1.22-2.1a7.07,7.07,0,0,1,6.85-.92,7.34,7.34,0,0,1,2.47,1.57,5.2,5.2,0,0,1,2.68.82c1.43,1,1,2,2.45,4.23.48.72,3.13,4.53,7.56,5.1a10.58,10.58,0,0,0,7.77-2.49l5,2.22a94.54,94.54,0,0,0-7.37,9,15.1,15.1,0,0,0-2.14,3.67C36.18,290.88,37.15,292.27,35.86,293.9Z"/><path class="cls-1" d="M24.57,189.75A2.31,2.31,0,0,0,22.4,191c-.32.67-.31,1.61,0,1.71S23.15,192.39,24.57,189.75Z"/><path class="cls-1" d="M39.84,183.88a5.66,5.66,0,0,0,4.9,3.11c1.73,0,3.64-.86,3.53-1.52S46.76,184.26,39.84,183.88Z"/></g></g></svg>