<svg xmlns="http://www.w3.org/2000/svg" viewBox="0 0 72.08 53"><defs><style>.cls-1{fill:#3a3120;}.cls-2{fill:#faecbf;}.cls-3{fill:#f5d775;}</style></defs><g id="Layer_2" data-name="Layer 2"><g id="Layer_1-2" data-name="Layer 1"><path class="cls-1" d="M4.39.34a105.75,105.75,0,0,1,0,27.21A106,106,0,0,1,0,46.86,99.61,99.61,0,0,1,63.19,53,46.23,46.23,0,0,1,72,11.75,74.31,74.31,0,0,1,35.86,14.2,74.2,74.2,0,0,1,4.39.34Z"/><path class="cls-2" d="M4.39.34a105.75,105.75,0,0,1,0,27.21A106,106,0,0,1,0,46.86,99.61,99.61,0,0,1,63.19,53,46.23,46.23,0,0,1,72,11.75L55.68,14.9a67.07,67.07,0,0,1-10.92,7.38c-4.5,2.44-6.8,3.65-9.65,3.51-4.37-.21-7.39-3.13-11.41-7A49.83,49.83,0,0,1,14.54,6.69Z"/><path class="cls-3" d="M4.2,0A3,3,0,0,0,5,2.4a7.23,7.23,0,0,0,1,.75c.61.4,1.07.66,1.15.71a45.82,45.82,0,0,1,5.9,3.86c2.36,1.88,1.8,2.38,3.86,3.85,2.31,1.65,3,1,6.13,2.73a13,13,0,0,1,5.45,4.54,18,18,0,0,1,1.82,3.86,10.7,10.7,0,0,0,1.36,3.4,2.09,2.09,0,0,0,.71.92,2,2,0,0,0,1.56,0c1.62-.56,2.87-2.27,3.63-3.18,1.81-2.16,4-3.1,6.36-4.08.77-.33,1.15-.42,5.45-1.36,9-2,9.94-2.13,11.35-2.27s2.29-.18,4.09-.46A46.49,46.49,0,0,0,70,14.53l2-2.73c-3.92-1.08-8.33-2.17-13.17-3.18A96.59,96.59,0,0,0,48.47,6.81c-8.08-.83-8.18.62-13.62-.23-6.57-1-6.56-3.16-15.89-5.22A59.73,59.73,0,0,0,9.42.22C7.26.08,5.46,0,4.2,0Z"/><path class="cls-1" d="M41.59,37.09c-.27.11-.69.27-1.2.45-1.23.44-2.2.7-2.4.76a15.21,15.21,0,0,1-5.5-.06c-1.32-.17-4.17-.54-5.83-1.58-.09,0-.75-.47-1.59-1.07-.51-.37-.93-.69-1.2-.9.4-.09,1-.24,1.66-.45.41-.13,1.16-.36,2.1-.75,1.35-.55,1.4-.73,1.95-.75a3,3,0,0,1,1.8.45c.52.35.62.7,1.05.75s.67-.27,1-.45c.73-.35,1.55,0,3.16.75A33.55,33.55,0,0,1,40,36.13Z"/></g></g></svg>