<svg xmlns="http://www.w3.org/2000/svg" viewBox="0 0 47.13 53.94"><defs><style>.cls-1{fill:#faecbf;}.cls-2{fill:#3a3120;}.cls-3{fill:#bdac5c;}.cls-4{fill:#f5d775;}.cls-5{fill:#a62025;}.cls-6{fill:#862025;}</style></defs><g id="Layer_2" data-name="Layer 2"><g id="Layer_2-2" data-name="Layer 2"><path class="cls-1" d="M21.48,51.34h5.84l1.3-1.3a13.61,13.61,0,0,0,2.6-1.62,13.8,13.8,0,0,0,2.27-2.27,32,32,0,0,0,2.6,2,31,31,0,0,0,11,4.54A50.9,50.9,0,0,0,45.51,40,73.72,73.72,0,0,0,40,26c-2.76-5.56-3.59-5.79-4.22-8.76A31.63,31.63,0,0,0,33.43,9.3a15.24,15.24,0,0,0-.91-1.8c-.83-1.36-3.58-5.86-9.09-7.14a12.75,12.75,0,0,0-10.4,2A12.24,12.24,0,0,0,8.49,9.78a13.51,13.51,0,0,0,.65,6.82,21.05,21.05,0,0,0,1,2.49,39.23,39.23,0,0,1,3.46,11.29c.22,2-.13,1.39,0,4.4.53,8.74,2.78,11.72,3.58,12.67A12.88,12.88,0,0,0,20.18,50Z"/><path class="cls-2" d="M16.61,8.48c.27-1.29,2.29-2.08,3.57-1.3a2.25,2.25,0,0,1,1,2.6,2.42,2.42,0,0,1-3.25,1A2.24,2.24,0,0,1,16.61,8.48Z"/><path class="cls-2" d="M10,6.73a2.53,2.53,0,0,1,3.57-1.3,2.24,2.24,0,0,1,1,2.6,2.41,2.41,0,0,1-3.24,1A2.25,2.25,0,0,1,10,6.73Z"/><path class="cls-2" d="M18.88,51.67a2.64,2.64,0,0,1,1-.65c.64-.25,1-.09,1.63-.33a2.63,2.63,0,0,0,1-.65l.65,1,.65-.65,1,.65.65-1L26,51l1-.65a4,4,0,0,0,1,1A8.75,8.75,0,0,1,29,52a2.47,2.47,0,0,1,.65,1.3A4.31,4.31,0,0,0,28,52.64a4.75,4.75,0,0,0-3.57,1,.73.73,0,0,1-.33-.65.74.74,0,0,1,.65-.65,5.72,5.72,0,0,0-2.59.65,5.2,5.2,0,0,0-1,.65,1.63,1.63,0,0,1,.33-1c.17-.21.34-.28.32-.32a5.18,5.18,0,0,0-2.27.65,9.23,9.23,0,0,0-1.63,1A3.52,3.52,0,0,1,18.88,51.67Z"/><path class="cls-3" d="M11.09,7.18c-.05.41.49.84,1,1s1.08.1,1.3-.32-.16-1.08-.65-1.3C12.05,6.23,11.14,6.68,11.09,7.18Z"/><path class="cls-3" d="M17.58,8.8c0,.41.53.83,1,1s1.46.12,1.63-.33-.36-1.11-1-1.3S17.64,8.33,17.58,8.8Z"/><path class="cls-2" d="M17.92,9.65a1.1,1.1,0,0,1,1.55-.56,1,1,0,0,1,.42,1.13,1,1,0,0,1-1.41.42A1,1,0,0,1,17.92,9.65Z"/><path class="cls-2" d="M11.23,8.07a1,1,0,0,1,1.38-.5.88.88,0,0,1,.38,1A1,1,0,0,1,11.73,9,.88.88,0,0,1,11.23,8.07Z"/><rect class="cls-4" x="-2.65" y="19.1" width="26.58" height="14.59" transform="translate(38.94 23.35) rotate(105.83)"/><polygon class="cls-3" points="17.66 28.38 14.04 41.17 11.2 33.46 8.35 25.74 14.82 20.67 21.29 15.59 17.66 28.38"/><path class="cls-5" d="M9.64,27.8c-.1.05-.13,0-.45,0a1.34,1.34,0,0,1-.35,0c-.14,0-.14-.08-.28-.13s-.23,0-.43-.06a.93.93,0,0,1-.38-.18c-.19-.16-.18-.31-.37-.39s-.12,0-.2-.06A.5.5,0,0,1,7,26.39c0-.1.08-.09.1-.18S7,26,7,25.73a.63.63,0,0,1,.06-.39,1.84,1.84,0,0,1,.25-.43c0-.06,0,0,.16-.28s.2-.34.21-.35.25-.06.7-.18c.26-.07.28-.11.42-.11s.21.05.49.17c.5.21.53.16.65.28s.09.23.3.52.35.27.43.48,0,.12,0,.6c0,.29,0,.4,0,.49s-.16.07-.22.18,0,.19-.07.31-.22.11-.38.25S9.83,27.71,9.64,27.8Z"/><circle class="cls-6" cx="8.87" cy="25.89" r="1.37"/><path class="cls-2" d="M12.38,11.72a2,2,0,0,1,1.3-.32,2.08,2.08,0,0,1,1.63,1.3l-2.6,1.62Z"/></g></g></svg>